{"glyphs":{"0":{"ha":745,"x_min":49,"x_max":695,"o":"m 695 726 l 695 360 q 682 178 695 235 q 625 72 668 121 q 522 1 583 22 q 387 -21 462 -21 q 224 2 289 -21 q 120 73 159 24 q 65 174 81 121 q 49 343 49 227 l 49 726 q 75 953 49 878 q 179 1074 101 1028 q 367 1119 256 1119 q 528 1087 457 1119 q 635 1010 600 1056 q 683 908 670 965 q 695 726 695 851 m 421 819 q 413 928 421 906 q 373 950 404 950 q 333 927 342 950 q 323 819 323 903 l 323 283 q 332 168 323 187 q 372 148 341 148 q 412 171 402 148 q 421 275 421 194 l 421 819 z "},"1":{"ha":529,"x_min":8,"x_max":471,"o":"m 471 1098 l 471 0 l 197 0 l 197 589 q 191 742 197 716 q 158 781 185 768 q 35 794 130 794 l 8 794 l 8 922 q 310 1098 207 965 l 471 1098 z "},"2":{"ha":697,"x_min":37,"x_max":664,"o":"m 640 187 l 640 0 l 37 0 l 37 157 q 355 699 304 595 q 406 861 406 803 q 390 928 406 906 q 344 950 375 950 q 297 926 313 950 q 282 829 282 901 l 282 724 l 37 724 l 37 764 q 46 910 37 857 q 93 1015 56 963 q 190 1093 130 1066 q 333 1119 250 1119 q 580 1038 496 1119 q 664 833 664 957 q 617 633 664 739 q 339 187 570 528 l 640 187 z "},"3":{"ha":736,"x_min":41,"x_max":687,"o":"m 564 622 q 656 553 626 601 q 687 329 687 505 q 657 126 687 198 q 554 16 627 54 q 366 -22 481 -22 q 162 22 236 -22 q 64 129 87 66 q 41 349 41 193 l 41 436 l 315 436 l 315 258 q 323 167 315 186 q 361 148 332 148 q 403 172 393 148 q 413 300 413 197 l 413 376 q 399 468 413 439 q 357 506 385 497 q 249 517 329 515 l 249 676 q 370 684 347 676 q 403 716 393 691 q 413 795 413 741 l 413 856 q 401 932 413 913 q 364 950 389 950 q 325 931 336 950 q 315 848 315 911 l 315 758 l 41 758 l 41 852 q 113 1064 41 1009 q 341 1120 184 1120 q 607 1043 537 1120 q 677 830 677 966 q 652 697 677 738 q 564 622 627 656 z "},"4":{"ha":694,"x_min":8,"x_max":686,"o":"m 608 1098 l 608 380 l 686 380 l 686 193 l 608 193 l 608 0 l 334 0 l 334 193 l 8 193 l 8 380 l 245 1098 l 608 1098 m 334 380 l 334 848 l 213 380 l 334 380 z "},"5":{"ha":745,"x_min":45,"x_max":701,"o":"m 647 1098 l 647 922 l 307 922 l 307 736 q 471 811 371 811 q 643 748 585 811 q 701 504 701 684 l 701 347 q 689 176 701 231 q 642 75 678 121 q 539 4 605 28 q 380 -21 474 -21 q 193 16 274 -21 q 79 126 113 53 q 45 353 45 199 l 45 412 l 319 412 l 319 344 q 326 193 319 237 q 378 148 334 148 q 411 161 398 148 q 424 189 423 174 q 427 318 425 203 l 427 536 q 414 620 427 597 q 371 642 401 642 q 339 631 352 642 q 322 606 326 619 q 319 545 319 593 l 47 545 l 59 1098 l 647 1098 z "},"6":{"ha":752,"x_min":49,"x_max":707,"o":"m 707 806 l 433 806 q 431 903 433 883 q 415 937 429 923 q 375 950 400 950 q 340 937 354 950 q 325 904 327 924 q 323 822 323 884 l 323 647 q 385 713 344 691 q 485 735 425 735 q 618 694 560 735 q 691 597 675 654 q 707 443 707 540 l 707 355 q 698 184 707 240 q 651 80 689 127 q 546 5 612 32 q 390 -21 479 -21 q 209 9 279 -21 q 100 97 138 40 q 55 218 62 155 q 49 463 49 281 l 49 614 q 55 877 49 810 q 102 1002 60 943 q 215 1090 143 1061 q 380 1120 286 1120 q 569 1082 495 1120 q 675 977 643 1045 q 707 806 707 909 m 433 464 q 420 544 433 522 q 378 566 407 566 q 336 545 349 566 q 323 464 323 524 l 323 265 q 335 170 323 193 q 377 148 348 148 q 414 165 395 148 q 433 258 433 182 l 433 464 z "},"7":{"ha":544,"x_min":8,"x_max":532,"o":"m 532 1098 l 532 859 l 357 0 l 84 0 l 279 901 l 8 901 l 8 1098 l 532 1098 z "},"8":{"ha":743,"x_min":45,"x_max":697,"o":"m 572 623 q 665 550 632 598 q 697 319 697 501 q 671 123 697 186 q 571 19 646 60 q 371 -21 496 -21 q 178 18 249 -21 q 76 120 106 56 q 45 332 45 184 q 60 505 45 432 q 156 623 75 578 q 80 700 105 647 q 54 836 54 753 q 133 1048 54 977 q 368 1119 212 1119 q 618 1044 549 1119 q 688 829 688 968 q 665 701 688 740 q 572 623 642 661 m 418 859 q 408 932 418 914 q 370 950 398 950 q 334 931 343 950 q 324 859 324 911 l 324 775 q 335 707 324 726 q 372 688 346 688 q 408 706 399 688 q 418 783 418 725 l 418 859 m 423 402 q 410 486 423 465 q 370 507 397 507 q 331 487 342 507 q 319 402 319 467 l 319 260 q 332 168 319 189 q 374 148 345 148 q 413 169 403 148 q 423 262 423 189 l 423 402 z "},"9":{"ha":752,"x_min":49,"x_max":707,"o":"m 49 292 l 323 292 q 325 195 323 215 q 341 161 327 175 q 381 148 356 148 q 416 161 402 148 q 431 194 429 174 q 433 276 433 214 l 433 451 q 372 385 412 407 q 271 363 331 363 q 138 404 195 363 q 64 501 80 444 q 49 655 49 558 l 49 743 q 58 914 49 858 q 105 1018 67 970 q 210 1093 143 1066 q 366 1119 277 1119 q 547 1088 476 1119 q 656 1001 617 1058 q 701 880 694 943 q 707 636 707 817 l 707 484 q 701 221 707 288 q 654 96 696 155 q 541 8 612 37 q 376 -22 470 -22 q 187 16 260 -22 q 81 121 113 53 q 49 292 49 189 m 323 634 q 341 549 323 565 q 378 532 359 532 q 419 553 406 532 q 433 634 433 574 l 433 833 q 420 928 433 905 q 378 950 408 950 q 342 933 361 950 q 323 840 323 916 l 323 634 z "}," ":{"ha":245,"x_min":0,"x_max":0,"o":""},"!":{"ha":375,"x_min":49,"x_max":350,"o":"m 350 1098 l 305 271 l 94 271 l 49 1098 l 350 1098 m 328 220 l 328 0 l 71 0 l 71 220 l 328 220 z "},"\"":{"ha":513,"x_min":24,"x_max":489,"o":"m 60 745 l 24 930 l 24 1098 l 232 1098 l 232 930 l 201 745 l 60 745 m 317 745 l 281 930 l 281 1098 l 489 1098 l 489 930 l 457 745 l 317 745 z "},"#":{"ha":870,"x_min":24,"x_max":846,"o":"m 24 720 l 233 720 l 290 979 l 418 979 l 361 720 l 602 720 l 658 979 l 786 979 l 730 720 l 846 720 l 846 591 l 706 591 l 663 386 l 846 386 l 846 258 l 639 258 l 583 0 l 454 0 l 511 258 l 267 258 l 214 0 l 85 0 l 140 258 l 24 258 l 24 386 l 166 386 l 209 591 l 24 591 l 24 720 m 337 591 l 294 387 l 536 387 l 578 591 l 337 591 z "},"$":{"ha":760,"x_min":37,"x_max":723,"o":"m 691 778 l 417 778 l 417 823 q 408 918 417 896 q 367 941 398 941 q 329 921 342 941 q 317 863 317 902 q 342 773 317 799 q 490 673 368 747 q 633 576 595 610 q 697 481 671 543 q 723 328 723 420 q 652 98 723 182 q 441 -5 582 15 l 441 -108 l 315 -108 l 315 -1 q 123 83 205 9 q 41 340 41 157 l 41 393 l 315 393 l 315 326 q 323 189 315 216 q 364 162 332 162 q 406 181 392 162 q 419 236 419 199 q 406 368 419 328 q 318 454 393 408 q 148 570 193 533 q 70 674 102 607 q 37 826 37 741 q 106 1019 37 949 q 315 1105 176 1088 l 315 1192 l 441 1192 l 441 1105 q 631 1020 568 1088 q 694 829 694 951 q 691 778 694 812 z "},"%":{"ha":962,"x_min":24,"x_max":938,"o":"m 748 1119 l 319 -21 l 214 -21 l 645 1119 l 748 1119 m 429 911 l 429 722 q 415 611 429 648 q 355 547 401 574 q 234 519 309 519 q 102 546 147 519 q 40 608 56 572 q 24 713 24 645 l 24 911 q 41 1031 24 992 q 105 1095 58 1070 q 222 1119 153 1119 q 348 1092 300 1119 q 412 1027 396 1065 q 429 911 429 989 m 255 959 q 251 1013 255 1002 q 227 1023 246 1023 q 203 1012 208 1023 q 197 959 197 1001 l 197 682 q 202 625 197 635 q 227 616 207 616 q 250 627 245 616 q 255 677 255 637 l 255 959 m 938 380 l 938 191 q 924 81 938 118 q 864 16 910 43 q 743 -12 819 -12 q 611 15 657 -12 q 550 78 566 41 q 534 182 534 115 l 534 380 q 550 500 534 461 q 614 564 567 539 q 732 589 662 589 q 858 562 810 589 q 922 496 906 534 q 938 380 938 458 m 764 428 q 760 482 764 471 q 736 492 755 492 q 712 481 718 492 q 707 428 707 471 l 707 151 q 712 95 707 104 q 736 85 717 85 q 760 96 755 85 q 764 147 764 106 l 764 428 z "},"&":{"ha":800,"x_min":24,"x_max":800,"o":"m 781 417 l 781 232 l 704 183 l 800 0 l 547 0 l 514 61 q 273 -23 387 -23 q 89 56 153 -23 q 24 248 24 136 q 62 388 24 337 q 176 471 100 439 q 68 682 68 549 q 145 866 68 796 q 358 936 222 936 q 550 867 480 936 q 621 693 621 799 q 535 496 621 582 l 632 321 l 781 417 m 359 610 q 405 725 405 670 q 391 768 405 749 q 353 788 378 788 q 319 773 331 788 q 308 728 308 758 q 359 610 308 664 m 420 185 l 332 333 q 281 233 281 287 q 297 175 281 195 q 344 156 313 156 q 420 185 377 156 z "},"'":{"ha":257,"x_min":24,"x_max":232,"o":"m 60 745 l 24 930 l 24 1098 l 232 1098 l 232 930 l 201 745 l 60 745 z "},"(":{"ha":435,"x_min":57,"x_max":410,"o":"m 410 1098 l 410 955 q 337 950 354 955 q 313 928 321 945 q 305 830 305 911 l 305 268 q 311 174 305 193 q 334 149 317 155 q 410 143 351 143 l 410 0 l 324 0 q 149 22 205 0 q 75 87 93 44 q 57 269 57 130 l 57 829 q 75 1011 57 968 q 150 1076 92 1055 q 324 1098 208 1098 l 410 1098 z "},")":{"ha":435,"x_min":24,"x_max":378,"o":"m 24 1098 l 111 1098 q 285 1076 227 1098 q 360 1011 342 1055 q 378 829 378 968 l 378 269 q 360 87 378 130 q 286 22 342 44 q 111 0 230 0 l 24 0 l 24 143 q 101 149 85 143 q 124 174 117 155 q 130 268 130 193 l 130 830 q 122 928 130 911 q 97 950 114 945 q 24 955 81 955 l 24 1098 z "},"*":{"ha":390,"x_min":20,"x_max":370,"o":"m 239 1098 l 239 989 l 339 1023 l 370 943 l 269 901 l 332 812 l 264 762 l 196 852 l 129 762 l 58 812 l 121 905 l 20 943 l 50 1023 l 153 989 l 153 1098 l 239 1098 z "},"+":{"ha":741,"x_min":43,"x_max":697,"o":"m 43 631 l 287 631 l 287 875 l 452 875 l 452 631 l 697 631 l 697 465 l 452 465 l 452 222 l 287 222 l 287 465 l 43 465 l 43 631 z "},",":{"ha":233,"x_min":24,"x_max":208,"o":"m 208 215 l 208 117 q 190 -10 208 39 q 126 -94 172 -60 q 24 -140 81 -129 l 24 -62 q 71 0 65 -39 l 24 0 l 24 215 l 208 215 z "},"-":{"ha":409,"x_min":24,"x_max":385,"o":"m 385 545 l 385 355 l 24 355 l 24 545 l 385 545 z "},".":{"ha":256,"x_min":24,"x_max":231,"o":"m 231 224 l 231 0 l 24 0 l 24 224 l 231 224 z "},"/":{"ha":549,"x_min":8,"x_max":541,"o":"m 541 1119 l 216 -21 l 8 -21 l 336 1119 l 541 1119 z "},":":{"ha":281,"x_min":49,"x_max":256,"o":"m 256 715 l 256 492 l 49 492 l 49 715 l 256 715 m 256 224 l 256 0 l 49 0 l 49 224 l 256 224 z "},";":{"ha":281,"x_min":49,"x_max":256,"o":"m 256 715 l 256 492 l 49 492 l 49 715 l 256 715 m 244 215 l 244 117 q 226 -10 244 39 q 162 -94 208 -60 q 60 -140 117 -129 l 60 -62 q 106 0 101 -39 l 60 0 l 60 215 l 244 215 z "},"<":{"ha":741,"x_min":44,"x_max":696,"o":"m 696 220 l 44 492 l 44 629 l 696 902 l 696 723 l 294 561 l 696 399 l 696 220 z "},"=":{"ha":741,"x_min":44,"x_max":696,"o":"m 44 761 l 696 761 l 696 595 l 44 595 l 44 761 m 44 502 l 696 502 l 696 336 l 44 336 l 44 502 z "},">":{"ha":741,"x_min":44,"x_max":696,"o":"m 44 902 l 696 631 l 696 492 l 44 220 l 44 399 l 447 561 l 44 722 l 44 902 z "},"?":{"ha":729,"x_min":57,"x_max":704,"o":"m 331 744 l 57 744 q 81 955 58 888 q 181 1071 104 1021 q 378 1121 258 1121 q 528 1094 464 1121 q 631 1018 593 1067 q 686 913 669 970 q 704 737 704 857 l 704 603 q 687 456 704 511 q 613 358 670 400 q 479 316 556 316 q 331 394 380 316 l 331 276 l 75 276 l 75 578 l 325 578 q 370 515 326 515 q 413 543 404 515 q 422 677 422 570 l 422 860 q 413 941 422 920 q 380 962 405 962 q 340 934 349 962 q 331 810 331 907 l 331 744 m 331 220 l 331 0 l 75 0 l 75 220 l 331 220 z "},"@":{"ha":1076,"x_min":24,"x_max":1053,"o":"m 809 887 l 723 350 q 720 326 720 332 q 745 300 720 300 q 834 339 786 300 q 917 454 882 378 q 953 633 953 531 q 849 913 953 806 q 576 1020 745 1020 q 252 885 380 1020 q 125 524 125 749 q 249 178 125 306 q 566 50 374 50 q 747 82 661 50 q 909 177 832 114 l 1051 177 q 832 7 963 64 q 567 -51 702 -51 q 180 105 336 -51 q 24 517 24 262 q 170 946 24 771 q 573 1121 315 1121 q 825 1062 727 1121 q 988 896 922 1002 q 1053 633 1053 790 q 937 306 1053 425 q 705 186 821 186 q 598 264 617 186 q 518 202 552 220 q 438 185 485 185 q 276 264 337 185 q 215 474 215 342 q 300 775 215 644 q 507 907 385 907 q 595 883 556 907 q 664 810 635 859 l 675 887 l 809 887 m 356 435 q 383 328 356 372 q 456 283 410 283 q 533 318 500 283 q 595 460 567 353 q 624 665 624 568 q 598 764 624 726 q 528 802 572 802 q 401 685 446 802 q 356 435 356 569 z "},"A":{"ha":705,"x_min":-8,"x_max":713,"o":"m 550 1098 l 713 0 l 421 0 l 407 197 l 304 197 l 288 0 l -8 0 l 137 1098 l 550 1098 m 399 392 q 355 852 377 578 q 301 392 312 538 l 399 392 z "},"B":{"ha":767,"x_min":57,"x_max":722,"o":"m 57 1098 l 342 1098 q 546 1077 477 1098 q 659 992 616 1056 q 701 785 701 928 q 671 651 701 689 q 552 593 641 613 q 686 518 651 570 q 722 359 722 467 l 722 258 q 696 93 722 146 q 615 20 671 39 q 387 0 559 0 l 57 0 l 57 1098 m 342 910 l 342 666 q 371 667 361 667 q 425 687 413 667 q 436 806 436 708 q 427 878 436 857 q 402 904 417 899 q 342 910 387 909 m 342 495 l 342 188 q 419 207 403 190 q 436 290 436 224 l 436 393 q 421 478 436 463 q 342 495 406 493 z "},"C":{"ha":769,"x_min":49,"x_max":724,"o":"m 724 619 l 438 619 l 438 810 q 429 915 438 894 q 389 935 420 935 q 344 910 353 935 q 334 802 334 885 l 334 292 q 344 187 334 212 q 387 163 353 163 q 428 187 418 163 q 438 302 438 212 l 438 439 l 724 439 l 724 397 q 700 155 724 227 q 593 31 675 84 q 390 -23 511 -23 q 183 22 264 -23 q 75 148 102 68 q 49 390 49 229 l 49 711 q 57 889 49 829 q 105 1003 65 948 q 217 1089 146 1058 q 382 1121 289 1121 q 590 1072 508 1121 q 698 950 672 1023 q 724 724 724 878 l 724 619 z "},"D":{"ha":768,"x_min":57,"x_max":718,"o":"m 57 1098 l 271 1098 q 550 1079 477 1098 q 661 1017 623 1060 q 709 920 699 973 q 718 711 718 867 l 718 326 q 704 129 718 178 q 656 51 690 79 q 570 11 621 22 q 417 0 519 0 l 57 0 l 57 1098 m 342 910 l 342 188 q 418 213 404 188 q 433 347 433 237 l 433 774 q 428 869 433 848 q 406 900 423 890 q 342 910 389 910 z "},"E":{"ha":577,"x_min":57,"x_max":552,"o":"m 57 1098 l 533 1098 l 533 878 l 342 878 l 342 670 l 521 670 l 521 461 l 342 461 l 342 220 l 552 220 l 552 0 l 57 0 l 57 1098 z "},"F":{"ha":553,"x_min":57,"x_max":541,"o":"m 57 1098 l 541 1098 l 541 878 l 342 878 l 342 670 l 519 670 l 519 461 l 342 461 l 342 0 l 57 0 l 57 1098 z "},"G":{"ha":766,"x_min":49,"x_max":712,"o":"m 712 694 l 427 694 l 427 793 q 418 911 427 888 q 380 935 410 935 q 344 915 353 935 q 334 810 334 895 l 334 283 q 344 186 334 210 q 382 163 353 163 q 424 189 413 163 q 435 292 435 216 l 435 422 l 378 422 l 378 589 l 712 589 l 712 0 l 532 0 l 506 79 q 432 2 477 28 q 328 -23 388 -23 q 193 12 256 -23 q 98 98 130 47 q 57 207 65 150 q 49 376 49 263 l 49 703 q 66 931 49 860 q 163 1062 83 1002 q 371 1121 243 1121 q 579 1069 496 1121 q 687 947 662 1018 q 712 741 712 876 l 712 694 z "},"H":{"ha":771,"x_min":57,"x_max":713,"o":"m 713 1098 l 713 0 l 428 0 l 428 461 l 342 461 l 342 0 l 57 0 l 57 1098 l 342 1098 l 342 705 l 428 705 l 428 1098 l 713 1098 z "},"I":{"ha":400,"x_min":57,"x_max":342,"o":"m 342 1098 l 342 0 l 57 0 l 57 1098 l 342 1098 z "},"J":{"ha":460,"x_min":12,"x_max":406,"o":"m 406 1098 l 406 364 q 403 152 406 199 q 372 67 399 105 q 297 15 345 29 q 155 0 250 0 l 12 0 l 12 192 q 50 190 38 190 q 98 205 80 190 q 118 241 115 220 q 121 326 121 263 l 121 1098 l 406 1098 z "},"K":{"ha":745,"x_min":57,"x_max":753,"o":"m 737 1098 l 574 602 l 753 0 l 458 0 l 342 471 l 342 0 l 57 0 l 57 1098 l 342 1098 l 342 671 l 469 1098 l 737 1098 z "},"L":{"ha":528,"x_min":57,"x_max":516,"o":"m 342 1098 l 342 220 l 516 220 l 516 0 l 57 0 l 57 1098 l 342 1098 z "},"M":{"ha":996,"x_min":57,"x_max":938,"o":"m 938 1098 l 938 0 l 688 0 l 688 741 l 589 0 l 412 0 l 307 724 l 307 0 l 57 0 l 57 1098 l 427 1098 q 461 865 443 999 l 500 585 l 566 1098 l 938 1098 z "},"N":{"ha":752,"x_min":57,"x_max":694,"o":"m 694 1098 l 694 0 l 444 0 l 296 499 l 296 0 l 57 0 l 57 1098 l 296 1098 l 456 604 l 456 1098 l 694 1098 z "},"O":{"ha":759,"x_min":49,"x_max":709,"o":"m 709 455 q 702 221 709 290 q 653 95 694 152 q 542 7 612 38 q 379 -23 472 -23 q 221 6 291 -23 q 108 92 151 35 q 57 218 65 150 q 49 455 49 286 l 49 643 q 57 877 49 808 q 105 1003 64 946 q 216 1090 146 1060 q 379 1121 286 1121 q 537 1092 467 1121 q 650 1006 608 1063 q 701 880 693 948 q 709 643 709 812 l 709 455 m 424 816 q 415 914 424 892 q 380 935 407 935 q 346 918 358 935 q 334 816 334 901 l 334 303 q 342 185 334 208 q 378 163 350 163 q 416 189 408 163 q 424 311 424 214 l 424 816 z "},"P":{"ha":697,"x_min":57,"x_max":672,"o":"m 57 1098 l 345 1098 q 524 1080 461 1098 q 618 1027 587 1061 q 661 943 650 992 q 672 791 672 894 l 672 695 q 650 542 672 590 q 571 468 629 494 q 419 442 513 442 l 342 442 l 342 0 l 57 0 l 57 1098 m 342 910 l 342 631 q 363 630 355 630 q 418 649 403 630 q 433 730 433 669 l 433 820 q 416 893 433 876 q 342 910 398 910 z "},"Q":{"ha":759,"x_min":49,"x_max":710,"o":"m 710 0 l 710 -133 l 494 -133 q 385 -121 416 -133 q 341 -85 353 -109 q 330 0 330 -62 q 163 51 233 3 q 71 173 94 99 q 49 395 49 248 l 49 735 q 62 906 49 847 q 117 1016 75 964 q 223 1095 158 1068 q 368 1121 288 1121 q 538 1088 463 1121 q 650 1006 613 1056 q 698 902 687 956 q 709 741 709 848 l 709 385 q 695 186 709 238 q 641 103 681 134 q 533 56 600 72 q 548 9 535 19 q 611 0 562 0 l 710 0 m 424 816 q 415 914 424 892 q 380 935 407 935 q 346 918 358 935 q 334 816 334 901 l 334 303 q 342 185 334 208 q 378 163 350 163 q 416 189 408 163 q 424 311 424 214 l 424 816 z "},"R":{"ha":748,"x_min":57,"x_max":694,"o":"m 57 1098 l 259 1098 q 533 1082 461 1098 q 649 1003 604 1067 q 694 798 694 939 q 663 626 694 670 q 537 573 631 582 q 651 517 622 552 q 687 452 680 481 q 694 290 694 422 l 694 0 l 429 0 l 429 365 q 415 474 429 453 q 342 495 401 495 l 342 0 l 57 0 l 57 1098 m 342 910 l 342 666 q 410 679 391 666 q 429 765 429 692 l 429 825 q 411 894 429 878 q 342 910 392 910 z "},"S":{"ha":718,"x_min":33,"x_max":686,"o":"m 662 766 l 397 766 l 397 847 q 387 920 397 904 q 353 935 376 935 q 314 914 327 935 q 300 850 300 893 q 315 768 300 795 q 396 701 330 740 q 636 515 587 587 q 686 281 686 442 q 658 108 686 163 q 552 15 631 52 q 369 -23 473 -23 q 173 20 254 -23 q 67 131 92 64 q 42 321 42 198 l 42 393 l 307 393 l 307 260 q 318 180 307 198 q 358 163 330 163 q 400 185 387 163 q 414 252 414 208 q 388 378 414 349 q 254 478 361 408 q 113 581 148 549 q 56 669 79 612 q 33 812 33 725 q 65 997 33 939 q 170 1088 98 1055 q 343 1121 241 1121 q 533 1085 454 1121 q 636 995 611 1049 q 662 809 662 940 l 662 766 z "},"T":{"ha":640,"x_min":8,"x_max":632,"o":"m 632 1098 l 632 878 l 463 878 l 463 0 l 177 0 l 177 878 l 8 878 l 8 1098 l 632 1098 z "},"U":{"ha":760,"x_min":53,"x_max":706,"o":"m 706 1098 l 706 364 q 698 189 706 239 q 650 85 690 138 q 544 4 610 32 q 390 -23 479 -23 q 216 9 292 -23 q 104 94 141 42 q 60 204 66 146 q 53 448 53 262 l 53 1098 l 338 1098 l 338 275 q 346 183 338 203 q 378 163 354 163 q 413 185 405 163 q 420 289 420 207 l 420 1098 l 706 1098 z "},"V":{"ha":727,"x_min":-8,"x_max":735,"o":"m 735 1098 l 590 0 l 157 0 l -8 1098 l 293 1098 q 368 331 345 644 q 414 894 390 648 l 434 1098 l 735 1098 z "},"W":{"ha":1131,"x_min":0,"x_max":1131,"o":"m 1131 1098 l 1004 0 l 648 0 q 562 575 599 253 q 482 0 545 437 l 127 0 l 0 1098 l 277 1098 l 307 715 l 336 345 q 415 1098 352 632 l 712 1098 q 743 736 718 1050 l 774 319 q 854 1098 798 717 l 1131 1098 z "},"X":{"ha":670,"x_min":0,"x_max":686,"o":"m 635 1098 l 536 612 l 686 0 l 422 0 q 335 399 374 164 q 305 179 324 296 l 278 0 l 0 0 l 103 612 l 0 1098 l 276 1098 q 306 947 283 1053 q 335 799 323 866 l 396 1098 l 635 1098 z "},"Y":{"ha":657,"x_min":-8,"x_max":665,"o":"m 665 1098 l 457 397 l 457 0 l 193 0 l 193 397 l -8 1098 l 254 1098 q 323 666 316 777 q 403 1098 347 842 l 665 1098 z "},"Z":{"ha":551,"x_min":8,"x_max":534,"o":"m 534 1098 l 534 878 l 321 220 l 534 220 l 534 0 l 8 0 l 8 159 l 228 878 l 34 878 l 34 1098 l 534 1098 z "},"[":{"ha":392,"x_min":57,"x_max":367,"o":"m 367 1098 l 367 929 l 305 929 l 305 169 l 367 169 l 367 0 l 57 0 l 57 1098 l 367 1098 z "},"\\":{"ha":549,"x_min":8,"x_max":541,"o":"m 8 1119 l 214 1119 l 541 -21 l 334 -21 l 8 1119 z "},"]":{"ha":392,"x_min":24,"x_max":334,"o":"m 24 0 l 24 169 l 86 169 l 86 929 l 24 929 l 24 1098 l 334 1098 l 334 0 l 24 0 z "},"^":{"ha":671,"x_min":8,"x_max":663,"o":"m 8 556 l 263 1098 l 414 1098 l 663 556 l 470 556 l 336 888 l 202 556 l 8 556 z "},"_":{"ha":767,"x_min":-8,"x_max":775,"o":"m -8 -104 l 775 -104 l 775 -174 l -8 -174 l -8 -104 z "},"`":{"ha":463,"x_min":0,"x_max":361,"o":"m 0 1202 l 241 1202 l 361 1018 l 223 1018 l 0 1202 z "},"a":{"ha":700,"x_min":37,"x_max":654,"o":"m 294 551 l 37 551 l 37 612 q 61 773 37 716 q 157 873 85 829 q 346 916 230 916 q 555 867 485 916 q 640 746 626 818 q 654 452 654 675 l 654 0 l 388 0 l 388 80 q 323 8 363 32 q 229 -16 283 -16 q 97 24 157 -16 q 37 201 37 64 l 37 275 q 68 412 37 376 q 227 498 100 449 q 371 569 361 551 q 380 644 380 587 q 370 735 380 714 q 335 757 359 757 q 300 739 307 757 q 294 646 294 721 l 294 551 m 380 428 q 304 347 315 380 q 294 254 294 315 q 303 163 294 184 q 339 143 312 143 q 373 159 365 143 q 380 243 380 175 l 380 428 z "},"b":{"ha":722,"x_min":49,"x_max":680,"o":"m 323 1098 l 323 838 q 398 897 357 878 q 489 916 440 916 q 587 899 545 916 q 650 849 628 881 q 676 787 671 817 q 680 656 680 756 l 680 251 q 667 103 680 152 q 605 19 654 55 q 489 -16 556 -16 q 399 5 441 -16 q 323 68 357 26 l 305 0 l 49 0 l 49 1098 l 323 1098 m 406 644 q 397 735 406 714 q 363 757 389 757 q 330 738 338 757 q 323 644 323 720 l 323 256 q 331 163 323 184 q 365 143 340 143 q 398 164 391 143 q 406 265 406 185 l 406 644 z "},"c":{"ha":687,"x_min":41,"x_max":654,"o":"m 654 560 l 396 560 l 396 664 q 387 738 396 718 q 355 757 378 757 q 323 740 331 757 q 315 664 315 723 l 315 239 q 327 167 315 191 q 363 143 339 143 q 400 168 391 143 q 410 263 410 193 l 410 370 l 654 370 q 647 209 654 262 q 601 98 640 155 q 501 13 563 41 q 349 -16 439 -16 q 165 23 233 -16 q 69 135 97 63 q 41 338 41 206 l 41 593 q 64 766 41 708 q 162 870 87 825 q 345 916 237 916 q 528 871 452 916 q 629 756 604 825 q 654 560 654 687 z "},"d":{"ha":722,"x_min":41,"x_max":672,"o":"m 672 1098 l 672 0 l 398 0 l 398 65 q 315 4 359 24 q 224 -16 272 -16 q 114 17 161 -16 q 54 95 67 51 q 41 239 41 139 l 41 660 q 54 807 41 764 q 115 883 67 850 q 228 916 162 916 q 321 898 279 916 q 398 843 363 880 l 398 1098 l 672 1098 m 398 673 q 390 740 398 723 q 356 757 381 757 q 323 742 332 757 q 315 673 315 726 l 315 233 q 323 160 315 178 q 354 143 331 143 q 389 162 380 143 q 398 257 398 182 l 398 673 z "},"e":{"ha":710,"x_min":41,"x_max":669,"o":"m 669 434 l 315 434 l 315 239 q 323 161 315 178 q 357 143 332 143 q 399 166 389 143 q 410 257 410 190 l 410 376 l 669 376 l 669 309 q 659 181 669 226 q 610 85 648 136 q 512 9 571 35 q 363 -16 452 -16 q 210 9 276 -16 q 106 78 143 34 q 55 174 69 121 q 41 327 41 227 l 41 589 q 73 775 41 707 q 177 880 104 844 q 344 916 250 916 q 534 872 459 916 q 639 756 609 829 q 669 553 669 684 l 669 434 m 395 581 l 395 646 q 387 736 395 716 q 357 757 380 757 q 321 740 328 757 q 315 646 315 722 l 315 581 l 395 581 z "},"f":{"ha":401,"x_min":3,"x_max":398,"o":"m 398 1098 l 398 959 q 298 951 313 959 q 283 907 283 943 l 283 878 l 398 878 l 398 736 l 333 736 l 333 0 l 59 0 l 59 736 l 3 736 l 3 878 l 59 878 q 65 997 59 967 q 95 1050 71 1027 q 163 1086 119 1074 q 298 1098 206 1098 l 398 1098 z "},"g":{"ha":720,"x_min":41,"x_max":671,"o":"m 671 900 l 671 207 q 665 25 671 66 q 619 -61 659 -16 q 510 -131 580 -107 q 333 -155 439 -155 q 123 -111 202 -155 q 41 64 43 -66 l 307 64 q 350 4 307 4 q 391 22 381 4 q 401 99 401 41 l 401 167 q 327 119 366 135 q 245 102 288 102 q 124 132 172 102 q 58 211 76 162 q 41 349 41 259 l 41 675 q 87 860 41 804 q 227 916 133 916 q 321 895 279 916 q 397 832 363 874 l 416 900 l 671 900 m 397 661 q 390 740 397 723 q 358 757 382 757 q 325 738 334 757 q 315 661 315 718 l 315 359 q 322 280 315 298 q 353 262 330 262 q 389 284 380 262 q 397 382 397 306 l 397 661 z "},"h":{"ha":728,"x_min":49,"x_max":682,"o":"m 323 1098 l 323 851 q 399 900 358 884 q 487 916 440 916 q 609 880 559 916 q 671 795 660 843 q 682 621 682 747 l 682 0 l 408 0 l 408 633 q 400 734 408 712 q 366 757 393 757 q 332 734 340 757 q 323 642 323 711 l 323 0 l 49 0 l 49 1098 l 323 1098 z "},"i":{"ha":380,"x_min":49,"x_max":331,"o":"m 331 1098 l 331 955 l 49 955 l 49 1098 l 331 1098 m 331 900 l 331 0 l 49 0 l 49 900 l 331 900 z "},"j":{"ha":389,"x_min":-4,"x_max":339,"o":"m 339 1098 l 339 955 l 57 955 l 57 1098 l 339 1098 m 339 900 l 339 188 q 334 18 339 62 q 303 -60 329 -26 q 233 -110 277 -94 q 102 -126 189 -126 l -4 -126 l -4 18 q 51 28 45 18 q 57 164 57 39 l 57 900 l 339 900 z "},"k":{"ha":664,"x_min":49,"x_max":672,"o":"m 639 900 l 528 541 l 672 0 l 408 0 l 323 392 l 323 0 l 49 0 l 49 1098 l 323 1098 l 323 637 l 408 900 l 639 900 z "},"l":{"ha":380,"x_min":49,"x_max":331,"o":"m 331 1098 l 331 0 l 49 0 l 49 1098 l 331 1098 z "},"m":{"ha":1071,"x_min":49,"x_max":1025,"o":"m 319 900 l 315 814 q 391 891 347 865 q 491 916 435 916 q 664 814 601 916 q 742 891 699 865 q 838 916 785 916 q 954 882 908 916 q 1013 799 1000 848 q 1025 640 1025 750 l 1025 0 l 760 0 l 760 587 q 752 729 760 702 q 715 757 744 757 q 678 730 686 757 q 669 587 669 703 l 669 0 l 404 0 l 404 572 q 397 730 404 704 q 361 757 391 757 q 330 743 343 757 q 316 709 317 729 q 315 624 315 689 l 315 0 l 49 0 l 49 900 l 319 900 z "},"n":{"ha":726,"x_min":49,"x_max":681,"o":"m 328 900 l 323 817 q 396 891 353 867 q 495 916 439 916 q 610 883 566 916 q 668 799 655 850 q 681 631 681 749 l 681 0 l 407 0 l 407 623 q 401 736 407 716 q 367 757 395 757 q 330 733 338 757 q 323 608 323 710 l 323 0 l 49 0 l 49 900 l 328 900 z "},"o":{"ha":710,"x_min":41,"x_max":669,"o":"m 669 584 l 669 363 q 656 185 669 242 q 604 80 644 129 q 502 7 564 31 q 357 -16 439 -16 q 203 4 267 -16 q 105 64 140 24 q 56 162 71 104 q 41 334 41 219 l 41 564 q 68 760 41 690 q 165 873 95 831 q 346 916 236 916 q 504 889 438 916 q 606 817 570 861 q 655 726 642 773 q 669 584 669 680 m 395 652 q 387 739 395 721 q 355 757 380 757 q 323 739 331 757 q 315 652 315 721 l 315 245 q 323 162 315 182 q 355 143 331 143 q 387 161 379 143 q 395 237 395 178 l 395 652 z "},"p":{"ha":721,"x_min":49,"x_max":680,"o":"m 328 900 l 323 821 q 404 892 359 869 q 500 916 448 916 q 610 882 564 916 q 668 803 656 848 q 680 651 680 758 l 680 272 q 665 97 680 149 q 605 15 650 45 q 496 -16 560 -16 q 402 7 446 -16 q 323 78 359 31 l 323 -128 l 49 -128 l 49 900 l 328 900 m 406 638 q 399 739 406 722 q 366 757 393 757 q 331 736 338 757 q 323 638 323 716 l 323 265 q 331 163 323 184 q 366 143 339 143 q 399 162 393 143 q 406 252 406 180 l 406 638 z "},"q":{"ha":720,"x_min":41,"x_max":670,"o":"m 670 900 l 670 -128 l 396 -128 l 396 73 q 322 -1 356 14 q 239 -16 289 -16 q 120 18 168 -16 q 57 105 73 52 q 41 271 41 159 l 41 667 q 53 804 41 759 q 112 883 65 849 q 222 916 158 916 q 317 893 273 916 q 396 823 360 870 l 401 900 l 670 900 m 396 655 q 387 736 396 715 q 354 757 378 757 q 323 739 331 757 q 315 655 315 720 l 315 254 q 323 162 315 182 q 356 143 331 143 q 388 163 380 143 q 396 250 396 183 l 396 655 z "},"r":{"ha":497,"x_min":49,"x_max":485,"o":"m 323 900 l 312 782 q 485 916 372 909 l 485 600 q 374 579 410 600 q 331 523 339 559 q 323 355 323 486 l 323 0 l 49 0 l 49 900 l 323 900 z "},"s":{"ha":654,"x_min":28,"x_max":629,"o":"m 608 612 l 366 612 l 366 661 q 358 740 366 724 q 323 757 351 757 q 288 742 300 757 q 277 696 277 726 q 282 635 277 654 q 317 593 288 616 q 435 526 346 570 q 592 416 555 467 q 629 266 629 364 q 601 100 629 156 q 506 14 572 44 q 345 -16 439 -16 q 166 16 240 -16 q 64 104 92 49 q 36 273 36 160 l 36 316 l 279 316 l 279 259 q 288 165 279 186 q 324 143 297 143 q 365 158 353 143 q 376 219 376 172 q 361 300 376 283 q 202 396 346 316 q 55 519 81 464 q 28 650 28 574 q 57 809 28 758 q 154 888 85 861 q 312 916 222 916 q 464 893 401 916 q 561 833 527 871 q 601 764 594 796 q 608 665 608 732 l 608 612 z "},"t":{"ha":423,"x_min":4,"x_max":423,"o":"m 338 1020 l 338 878 l 412 878 l 412 736 l 338 736 l 338 254 q 347 155 338 165 q 423 145 356 145 l 423 0 l 313 0 q 179 8 219 0 q 109 44 139 16 q 71 108 78 72 q 63 279 63 144 l 63 736 l 4 736 l 4 878 l 63 878 l 63 1020 l 338 1020 z "},"u":{"ha":726,"x_min":45,"x_max":676,"o":"m 676 900 l 676 0 l 397 0 l 402 75 q 332 6 374 29 q 236 -16 290 -16 q 134 5 174 -16 q 74 63 93 27 q 50 138 54 99 q 45 293 45 177 l 45 900 l 319 900 l 319 288 q 325 163 319 182 q 360 143 332 143 q 396 163 391 143 q 402 294 402 184 l 402 900 l 676 900 z "},"v":{"ha":607,"x_min":-8,"x_max":615,"o":"m 615 900 l 487 0 l 130 0 l -8 900 l 237 900 l 313 243 q 343 596 322 315 q 370 900 355 753 l 615 900 z "},"w":{"ha":930,"x_min":-4,"x_max":934,"o":"m 934 900 l 825 0 l 527 0 q 471 434 503 165 q 440 195 460 316 l 410 0 l 112 0 l -4 900 l 232 900 q 292 385 235 865 q 353 900 296 434 l 580 900 l 635 385 q 698 900 648 610 l 934 900 z "},"x":{"ha":602,"x_min":0,"x_max":614,"o":"m 591 900 l 482 470 l 614 0 l 348 0 q 288 306 309 178 q 229 0 261 146 l 0 0 l 118 470 l 0 900 l 229 900 q 288 587 284 625 q 348 900 328 817 l 591 900 z "},"y":{"ha":623,"x_min":-8,"x_max":623,"o":"m 623 900 l 544 249 q 513 38 526 94 q 471 -55 500 -18 q 390 -109 442 -92 q 224 -126 338 -126 l 58 -126 l 58 18 q 140 24 122 18 q 159 53 159 31 q 142 147 159 64 l -8 900 l 241 900 l 330 293 l 374 900 l 623 900 z "},"z":{"ha":488,"x_min":8,"x_max":475,"o":"m 475 900 l 475 701 l 273 180 l 475 180 l 475 0 l 8 0 l 8 189 l 215 720 l 29 720 l 29 900 l 475 900 z "},"{":{"ha":513,"x_min":24,"x_max":488,"o":"m 24 365 l 24 528 q 136 571 98 528 q 173 765 173 614 q 181 935 173 880 q 222 1027 190 990 q 307 1081 255 1065 q 452 1098 358 1098 l 488 1098 l 488 936 q 371 916 390 936 q 350 836 351 895 q 339 625 346 673 q 310 531 333 576 q 222 446 286 487 q 310 359 283 410 q 342 212 338 308 l 353 15 q 382 -28 359 -14 q 488 -43 405 -43 l 488 -205 l 452 -205 q 285 -181 344 -205 q 199 -100 226 -156 q 173 82 173 -43 q 163 259 173 220 q 127 330 154 298 q 24 365 100 362 z "},"|":{"ha":376,"x_min":115,"x_max":262,"o":"m 115 1098 l 262 1098 l 262 -180 l 115 -180 l 115 1098 z "},"}":{"ha":513,"x_min":24,"x_max":488,"o":"m 488 365 q 377 321 414 364 q 340 128 340 277 q 332 -42 340 13 q 291 -135 323 -98 q 207 -189 258 -172 q 61 -205 155 -205 l 25 -205 l 25 -43 q 141 -23 119 -43 q 163 57 162 -3 q 176 280 168 231 q 210 372 184 329 q 290 446 235 414 q 209 521 232 484 q 178 601 186 557 q 165 761 170 644 q 156 895 161 878 q 130 924 151 911 q 24 936 109 936 l 24 1098 l 60 1098 q 228 1073 169 1098 q 313 992 287 1048 q 340 810 340 936 q 350 629 340 667 q 388 561 361 592 q 488 528 414 530 l 488 365 z "},"~":{"ha":729,"x_min":39,"x_max":690,"o":"m 690 534 q 498 445 583 445 q 324 500 439 445 q 228 532 258 532 q 39 422 154 532 l 39 610 q 235 697 138 697 q 392 650 292 697 q 507 611 473 611 q 573 629 538 611 q 690 720 608 647 l 690 534 z "},"Ä":{"ha":705,"x_min":-8,"x_max":713,"o":"m 550 1098 l 713 0 l 421 0 l 407 197 l 304 197 l 288 0 l -8 0 l 137 1098 l 550 1098 m 399 392 q 355 852 377 578 q 301 392 312 538 l 399 392 m 284 1309 l 284 1133 l 107 1133 l 107 1309 l 284 1309 m 581 1309 l 581 1133 l 404 1133 l 404 1309 l 581 1309 z "},"Å":{"ha":705,"x_min":-8,"x_max":713,"o":"m 550 1098 l 713 0 l 421 0 l 407 197 l 304 197 l 288 0 l -8 0 l 137 1098 l 550 1098 m 399 392 q 355 852 377 578 q 301 392 312 538 l 399 392 m 344 1401 q 444 1360 401 1401 q 486 1258 486 1319 q 444 1157 486 1199 q 344 1116 402 1116 q 242 1157 284 1116 q 201 1258 201 1199 q 243 1359 201 1317 q 344 1401 285 1401 m 342 1312 q 303 1295 320 1312 q 287 1255 287 1279 q 303 1216 287 1232 q 342 1200 320 1200 q 382 1216 366 1200 q 399 1255 399 1232 q 382 1295 399 1279 q 342 1312 366 1312 z "},"Ç":{"ha":769,"x_min":49,"x_max":724,"o":"m 411 -22 l 411 -35 q 478 -59 448 -35 q 509 -125 509 -83 q 467 -214 509 -176 q 366 -252 425 -252 q 231 -144 260 -252 l 332 -144 q 366 -173 341 -173 q 396 -163 386 -173 q 406 -132 406 -153 q 392 -99 406 -110 q 349 -87 378 -87 l 332 -87 l 332 -20 q 151 44 216 -9 q 67 172 86 96 q 49 390 49 248 l 49 711 q 57 889 49 829 q 105 1003 65 948 q 217 1089 146 1058 q 382 1121 289 1121 q 590 1072 508 1121 q 698 950 672 1023 q 724 724 724 878 l 724 619 l 438 619 l 438 810 q 429 915 438 894 q 389 935 420 935 q 344 910 353 935 q 334 802 334 885 l 334 292 q 344 187 334 212 q 387 163 353 163 q 428 187 418 163 q 438 302 438 212 l 438 439 l 724 439 l 724 397 q 705 170 724 239 q 611 43 686 101 q 411 -22 536 -15 z "},"É":{"ha":577,"x_min":57,"x_max":552,"o":"m 57 1098 l 533 1098 l 533 878 l 342 878 l 342 670 l 521 670 l 521 461 l 342 461 l 342 220 l 552 220 l 552 0 l 57 0 l 57 1098 m 519 1316 l 296 1133 l 159 1133 l 278 1316 l 519 1316 z "},"Ñ":{"ha":752,"x_min":57,"x_max":694,"o":"m 694 1098 l 694 0 l 444 0 l 296 499 l 296 0 l 57 0 l 57 1098 l 296 1098 l 456 604 l 456 1098 l 694 1098 m 662 1261 q 585 1166 631 1193 q 505 1139 540 1139 q 401 1161 457 1139 l 351 1181 q 279 1200 303 1200 q 197 1133 229 1200 l 90 1204 q 258 1335 164 1335 q 364 1314 307 1335 l 406 1298 q 478 1278 459 1278 q 553 1339 534 1278 l 662 1261 z "},"Ö":{"ha":759,"x_min":49,"x_max":709,"o":"m 709 455 q 702 221 709 290 q 653 95 694 152 q 542 7 612 38 q 379 -23 472 -23 q 221 6 291 -23 q 108 92 151 35 q 57 218 65 150 q 49 455 49 286 l 49 643 q 57 877 49 808 q 105 1003 64 946 q 216 1090 146 1060 q 379 1121 286 1121 q 537 1092 467 1121 q 650 1006 608 1063 q 701 880 693 948 q 709 643 709 812 l 709 455 m 424 816 q 415 914 424 892 q 380 935 407 935 q 346 918 358 935 q 334 816 334 901 l 334 303 q 342 185 334 208 q 378 163 350 163 q 416 189 408 163 q 424 311 424 214 l 424 816 m 319 1309 l 319 1133 l 142 1133 l 142 1309 l 319 1309 m 616 1309 l 616 1133 l 439 1133 l 439 1309 l 616 1309 z "},"Ü":{"ha":760,"x_min":53,"x_max":706,"o":"m 706 1098 l 706 364 q 698 189 706 239 q 650 85 690 138 q 544 4 610 32 q 390 -23 479 -23 q 216 9 292 -23 q 104 94 141 42 q 60 204 66 146 q 53 448 53 262 l 53 1098 l 338 1098 l 338 275 q 346 183 338 203 q 378 163 354 163 q 413 185 405 163 q 420 289 420 207 l 420 1098 l 706 1098 m 320 1309 l 320 1133 l 143 1133 l 143 1309 l 320 1309 m 616 1309 l 616 1133 l 439 1133 l 439 1309 l 616 1309 z "},"á":{"ha":700,"x_min":37,"x_max":654,"o":"m 294 551 l 37 551 l 37 612 q 61 773 37 716 q 157 873 85 829 q 346 916 230 916 q 555 867 485 916 q 640 746 626 818 q 654 452 654 675 l 654 0 l 388 0 l 388 80 q 323 8 363 32 q 229 -16 283 -16 q 97 24 157 -16 q 37 201 37 64 l 37 275 q 68 412 37 376 q 227 498 100 449 q 371 569 361 551 q 380 644 380 587 q 370 735 380 714 q 335 757 359 757 q 300 739 307 757 q 294 646 294 721 l 294 551 m 380 428 q 304 347 315 380 q 294 254 294 315 q 303 163 294 184 q 339 143 312 143 q 373 159 365 143 q 380 243 380 175 l 380 428 m 581 1144 l 358 960 l 220 960 l 340 1144 l 581 1144 z "},"à":{"ha":700,"x_min":37,"x_max":654,"o":"m 294 551 l 37 551 l 37 612 q 61 773 37 716 q 157 873 85 829 q 346 916 230 916 q 555 867 485 916 q 640 746 626 818 q 654 452 654 675 l 654 0 l 388 0 l 388 80 q 323 8 363 32 q 229 -16 283 -16 q 97 24 157 -16 q 37 201 37 64 l 37 275 q 68 412 37 376 q 227 498 100 449 q 371 569 361 551 q 380 644 380 587 q 370 735 380 714 q 335 757 359 757 q 300 739 307 757 q 294 646 294 721 l 294 551 m 380 428 q 304 347 315 380 q 294 254 294 315 q 303 163 294 184 q 339 143 312 143 q 373 159 365 143 q 380 243 380 175 l 380 428 m 118 1144 l 359 1144 l 479 960 l 341 960 l 118 1144 z "},"â":{"ha":700,"x_min":37,"x_max":654,"o":"m 294 551 l 37 551 l 37 612 q 61 773 37 716 q 157 873 85 829 q 346 916 230 916 q 555 867 485 916 q 640 746 626 818 q 654 452 654 675 l 654 0 l 388 0 l 388 80 q 323 8 363 32 q 229 -16 283 -16 q 97 24 157 -16 q 37 201 37 64 l 37 275 q 68 412 37 376 q 227 498 100 449 q 371 569 361 551 q 380 644 380 587 q 370 735 380 714 q 335 757 359 757 q 300 739 307 757 q 294 646 294 721 l 294 551 m 380 428 q 304 347 315 380 q 294 254 294 315 q 303 163 294 184 q 339 143 312 143 q 373 159 365 143 q 380 243 380 175 l 380 428 m 355 1049 l 275 960 l 85 960 l 260 1152 l 451 1152 l 614 960 l 431 960 l 355 1049 z "},"ä":{"ha":700,"x_min":37,"x_max":654,"o":"m 294 551 l 37 551 l 37 612 q 61 773 37 716 q 157 873 85 829 q 346 916 230 916 q 555 867 485 916 q 640 746 626 818 q 654 452 654 675 l 654 0 l 388 0 l 388 80 q 323 8 363 32 q 229 -16 283 -16 q 97 24 157 -16 q 37 201 37 64 l 37 275 q 68 412 37 376 q 227 498 100 449 q 371 569 361 551 q 380 644 380 587 q 370 735 380 714 q 335 757 359 757 q 300 739 307 757 q 294 646 294 721 l 294 551 m 380 428 q 304 347 315 380 q 294 254 294 315 q 303 163 294 184 q 339 143 312 143 q 373 159 365 143 q 380 243 380 175 l 380 428 m 290 1137 l 290 960 l 113 960 l 113 1137 l 290 1137 m 587 1137 l 587 960 l 410 960 l 410 1137 l 587 1137 z "},"ã":{"ha":700,"x_min":37,"x_max":654,"o":"m 294 551 l 37 551 l 37 612 q 61 773 37 716 q 157 873 85 829 q 346 916 230 916 q 555 867 485 916 q 640 746 626 818 q 654 452 654 675 l 654 0 l 388 0 l 388 80 q 323 8 363 32 q 229 -16 283 -16 q 97 24 157 -16 q 37 201 37 64 l 37 275 q 68 412 37 376 q 227 498 100 449 q 371 569 361 551 q 380 644 380 587 q 370 735 380 714 q 335 757 359 757 q 300 739 307 757 q 294 646 294 721 l 294 551 m 380 428 q 304 347 315 380 q 294 254 294 315 q 303 163 294 184 q 339 143 312 143 q 373 159 365 143 q 380 243 380 175 l 380 428 m 636 1089 q 559 994 605 1021 q 479 966 514 966 q 376 989 431 966 l 326 1008 q 254 1028 277 1028 q 171 960 203 1028 l 64 1031 q 232 1163 138 1163 q 338 1141 281 1163 l 380 1126 q 452 1106 433 1106 q 527 1167 509 1106 l 636 1089 z "},"å":{"ha":700,"x_min":37,"x_max":654,"o":"m 294 551 l 37 551 l 37 612 q 61 773 37 716 q 157 873 85 829 q 346 916 230 916 q 555 867 485 916 q 640 746 626 818 q 654 452 654 675 l 654 0 l 388 0 l 388 80 q 323 8 363 32 q 229 -16 283 -16 q 97 24 157 -16 q 37 201 37 64 l 37 275 q 68 412 37 376 q 227 498 100 449 q 371 569 361 551 q 380 644 380 587 q 370 735 380 714 q 335 757 359 757 q 300 739 307 757 q 294 646 294 721 l 294 551 m 380 428 q 304 347 315 380 q 294 254 294 315 q 303 163 294 184 q 339 143 312 143 q 373 159 365 143 q 380 243 380 175 l 380 428 m 350 1246 q 450 1205 407 1246 q 492 1103 492 1164 q 450 1002 492 1044 q 350 960 408 960 q 249 1002 290 960 q 207 1103 207 1044 q 249 1204 207 1162 q 350 1246 291 1246 m 349 1156 q 310 1140 326 1156 q 293 1100 293 1124 q 310 1061 293 1077 q 349 1044 326 1044 q 388 1061 372 1044 q 405 1100 405 1077 q 388 1140 405 1124 q 349 1156 372 1156 z "},"ç":{"ha":687,"x_min":41,"x_max":654,"o":"m 370 -16 l 370 -35 q 437 -59 406 -35 q 468 -125 468 -83 q 426 -214 468 -176 q 326 -252 384 -252 q 191 -144 220 -252 l 291 -144 q 325 -173 300 -173 q 355 -163 345 -173 q 365 -132 365 -153 q 351 -99 365 -110 q 309 -87 337 -87 l 291 -87 l 291 -13 q 138 41 189 -1 q 64 146 87 83 q 41 338 41 210 l 41 593 q 64 766 41 708 q 162 870 87 825 q 345 916 237 916 q 528 871 452 916 q 629 756 604 825 q 654 560 654 687 l 396 560 l 396 664 q 387 738 396 718 q 355 757 378 757 q 323 740 331 757 q 315 664 315 723 l 315 239 q 327 167 315 191 q 363 143 339 143 q 400 168 391 143 q 410 263 410 193 l 410 370 l 654 370 q 648 217 654 270 q 608 108 642 163 q 517 21 573 52 q 370 -16 461 -10 z "},"é":{"ha":710,"x_min":41,"x_max":669,"o":"m 669 434 l 315 434 l 315 239 q 323 161 315 178 q 357 143 332 143 q 399 166 389 143 q 410 257 410 190 l 410 376 l 669 376 l 669 309 q 659 181 669 226 q 610 85 648 136 q 512 9 571 35 q 363 -16 452 -16 q 210 9 276 -16 q 106 78 143 34 q 55 174 69 121 q 41 327 41 227 l 41 589 q 73 775 41 707 q 177 880 104 844 q 344 916 250 916 q 534 872 459 916 q 639 756 609 829 q 669 553 669 684 l 669 434 m 395 581 l 395 646 q 387 736 395 716 q 357 757 380 757 q 321 740 328 757 q 315 646 315 722 l 315 581 l 395 581 m 587 1144 l 363 960 l 226 960 l 345 1144 l 587 1144 z "},"è":{"ha":710,"x_min":41,"x_max":669,"o":"m 669 434 l 315 434 l 315 239 q 323 161 315 178 q 357 143 332 143 q 399 166 389 143 q 410 257 410 190 l 410 376 l 669 376 l 669 309 q 659 181 669 226 q 610 85 648 136 q 512 9 571 35 q 363 -16 452 -16 q 210 9 276 -16 q 106 78 143 34 q 55 174 69 121 q 41 327 41 227 l 41 589 q 73 775 41 707 q 177 880 104 844 q 344 916 250 916 q 534 872 459 916 q 639 756 609 829 q 669 553 669 684 l 669 434 m 395 581 l 395 646 q 387 736 395 716 q 357 757 380 757 q 321 740 328 757 q 315 646 315 722 l 315 581 l 395 581 m 123 1144 l 365 1144 l 484 960 l 347 960 l 123 1144 z "},"ê":{"ha":710,"x_min":41,"x_max":669,"o":"m 669 434 l 315 434 l 315 239 q 323 161 315 178 q 357 143 332 143 q 399 166 389 143 q 410 257 410 190 l 410 376 l 669 376 l 669 309 q 659 181 669 226 q 610 85 648 136 q 512 9 571 35 q 363 -16 452 -16 q 210 9 276 -16 q 106 78 143 34 q 55 174 69 121 q 41 327 41 227 l 41 589 q 73 775 41 707 q 177 880 104 844 q 344 916 250 916 q 534 872 459 916 q 639 756 609 829 q 669 553 669 684 l 669 434 m 395 581 l 395 646 q 387 736 395 716 q 357 757 380 757 q 321 740 328 757 q 315 646 315 722 l 315 581 l 395 581 m 360 1049 l 280 960 l 90 960 l 264 1152 l 456 1152 l 619 960 l 435 960 l 360 1049 z "},"ë":{"ha":710,"x_min":41,"x_max":669,"o":"m 669 434 l 315 434 l 315 239 q 323 161 315 178 q 357 143 332 143 q 399 166 389 143 q 410 257 410 190 l 410 376 l 669 376 l 669 309 q 659 181 669 226 q 610 85 648 136 q 512 9 571 35 q 363 -16 452 -16 q 210 9 276 -16 q 106 78 143 34 q 55 174 69 121 q 41 327 41 227 l 41 589 q 73 775 41 707 q 177 880 104 844 q 344 916 250 916 q 534 872 459 916 q 639 756 609 829 q 669 553 669 684 l 669 434 m 395 581 l 395 646 q 387 736 395 716 q 357 757 380 757 q 321 740 328 757 q 315 646 315 722 l 315 581 l 395 581 m 295 1137 l 295 960 l 118 960 l 118 1137 l 295 1137 m 591 1137 l 591 960 l 414 960 l 414 1137 l 591 1137 z "},"í":{"ha":380,"x_min":49,"x_max":424,"o":"m 331 900 l 331 0 l 49 0 l 49 900 l 331 900 m 424 1144 l 201 960 l 63 960 l 182 1144 l 424 1144 z "},"ì":{"ha":380,"x_min":-39,"x_max":331,"o":"m 331 900 l 331 0 l 49 0 l 49 900 l 331 900 m -39 1144 l 202 1144 l 321 960 l 184 960 l -39 1144 z "},"î":{"ha":380,"x_min":-72,"x_max":457,"o":"m 331 900 l 331 0 l 49 0 l 49 900 l 331 900 m 198 1049 l 118 960 l -72 960 l 102 1152 l 294 1152 l 457 960 l 273 960 l 198 1049 z "},"ï":{"ha":380,"x_min":-44,"x_max":429,"o":"m 331 900 l 331 0 l 49 0 l 49 900 l 331 900 m 133 1137 l 133 960 l -44 960 l -44 1137 l 133 1137 m 429 1137 l 429 960 l 252 960 l 252 1137 l 429 1137 z "},"ñ":{"ha":726,"x_min":49,"x_max":681,"o":"m 328 900 l 323 817 q 396 891 353 867 q 495 916 439 916 q 610 883 566 916 q 668 799 655 850 q 681 631 681 749 l 681 0 l 407 0 l 407 623 q 401 736 407 716 q 367 757 395 757 q 330 733 338 757 q 323 608 323 710 l 323 0 l 49 0 l 49 900 l 328 900 m 649 1089 q 572 994 618 1021 q 492 966 527 966 q 389 989 444 966 l 338 1008 q 267 1028 290 1028 q 184 960 216 1028 l 77 1031 q 245 1163 151 1163 q 351 1141 294 1163 l 393 1126 q 465 1106 446 1106 q 540 1167 522 1106 l 649 1089 z "},"ó":{"ha":710,"x_min":41,"x_max":669,"o":"m 669 584 l 669 363 q 656 185 669 242 q 604 80 644 129 q 502 7 564 31 q 357 -16 439 -16 q 203 4 267 -16 q 105 64 140 24 q 56 162 71 104 q 41 334 41 219 l 41 564 q 68 760 41 690 q 165 873 95 831 q 346 916 236 916 q 504 889 438 916 q 606 817 570 861 q 655 726 642 773 q 669 584 669 680 m 395 652 q 387 739 395 721 q 355 757 380 757 q 323 739 331 757 q 315 652 315 721 l 315 245 q 323 162 315 182 q 355 143 331 143 q 387 161 379 143 q 395 237 395 178 l 395 652 m 587 1144 l 363 960 l 226 960 l 345 1144 l 587 1144 z "},"ò":{"ha":710,"x_min":41,"x_max":669,"o":"m 669 584 l 669 363 q 656 185 669 242 q 604 80 644 129 q 502 7 564 31 q 357 -16 439 -16 q 203 4 267 -16 q 105 64 140 24 q 56 162 71 104 q 41 334 41 219 l 41 564 q 68 760 41 690 q 165 873 95 831 q 346 916 236 916 q 504 889 438 916 q 606 817 570 861 q 655 726 642 773 q 669 584 669 680 m 395 652 q 387 739 395 721 q 355 757 380 757 q 323 739 331 757 q 315 652 315 721 l 315 245 q 323 162 315 182 q 355 143 331 143 q 387 161 379 143 q 395 237 395 178 l 395 652 m 123 1144 l 365 1144 l 484 960 l 347 960 l 123 1144 z "},"ô":{"ha":710,"x_min":41,"x_max":669,"o":"m 669 584 l 669 363 q 656 185 669 242 q 604 80 644 129 q 502 7 564 31 q 357 -16 439 -16 q 203 4 267 -16 q 105 64 140 24 q 56 162 71 104 q 41 334 41 219 l 41 564 q 68 760 41 690 q 165 873 95 831 q 346 916 236 916 q 504 889 438 916 q 606 817 570 861 q 655 726 642 773 q 669 584 669 680 m 395 652 q 387 739 395 721 q 355 757 380 757 q 323 739 331 757 q 315 652 315 721 l 315 245 q 323 162 315 182 q 355 143 331 143 q 387 161 379 143 q 395 237 395 178 l 395 652 m 360 1049 l 280 960 l 90 960 l 264 1152 l 456 1152 l 619 960 l 435 960 l 360 1049 z "},"ö":{"ha":710,"x_min":41,"x_max":669,"o":"m 669 584 l 669 363 q 656 185 669 242 q 604 80 644 129 q 502 7 564 31 q 357 -16 439 -16 q 203 4 267 -16 q 105 64 140 24 q 56 162 71 104 q 41 334 41 219 l 41 564 q 68 760 41 690 q 165 873 95 831 q 346 916 236 916 q 504 889 438 916 q 606 817 570 861 q 655 726 642 773 q 669 584 669 680 m 395 652 q 387 739 395 721 q 355 757 380 757 q 323 739 331 757 q 315 652 315 721 l 315 245 q 323 162 315 182 q 355 143 331 143 q 387 161 379 143 q 395 237 395 178 l 395 652 m 295 1137 l 295 960 l 118 960 l 118 1137 l 295 1137 m 591 1137 l 591 960 l 414 960 l 414 1137 l 591 1137 z "},"õ":{"ha":710,"x_min":41,"x_max":669,"o":"m 669 584 l 669 363 q 656 185 669 242 q 604 80 644 129 q 502 7 564 31 q 357 -16 439 -16 q 203 4 267 -16 q 105 64 140 24 q 56 162 71 104 q 41 334 41 219 l 41 564 q 68 760 41 690 q 165 873 95 831 q 346 916 236 916 q 504 889 438 916 q 606 817 570 861 q 655 726 642 773 q 669 584 669 680 m 395 652 q 387 739 395 721 q 355 757 380 757 q 323 739 331 757 q 315 652 315 721 l 315 245 q 323 162 315 182 q 355 143 331 143 q 387 161 379 143 q 395 237 395 178 l 395 652 m 641 1089 q 564 994 610 1021 q 484 966 519 966 q 380 989 436 966 l 330 1008 q 258 1028 282 1028 q 176 960 208 1028 l 68 1031 q 237 1163 143 1163 q 343 1141 286 1163 l 385 1126 q 457 1106 438 1106 q 532 1167 513 1106 l 641 1089 z "},"ú":{"ha":726,"x_min":45,"x_max":676,"o":"m 676 900 l 676 0 l 397 0 l 402 75 q 332 6 374 29 q 236 -16 290 -16 q 134 5 174 -16 q 74 63 93 27 q 50 138 54 99 q 45 293 45 177 l 45 900 l 319 900 l 319 288 q 325 163 319 182 q 360 143 332 143 q 396 163 391 143 q 402 294 402 184 l 402 900 l 676 900 m 594 1144 l 371 960 l 233 960 l 353 1144 l 594 1144 z "},"ù":{"ha":726,"x_min":45,"x_max":676,"o":"m 676 900 l 676 0 l 397 0 l 402 75 q 332 6 374 29 q 236 -16 290 -16 q 134 5 174 -16 q 74 63 93 27 q 50 138 54 99 q 45 293 45 177 l 45 900 l 319 900 l 319 288 q 325 163 319 182 q 360 143 332 143 q 396 163 391 143 q 402 294 402 184 l 402 900 l 676 900 m 131 1144 l 372 1144 l 492 960 l 354 960 l 131 1144 z "},"û":{"ha":726,"x_min":45,"x_max":676,"o":"m 676 900 l 676 0 l 397 0 l 402 75 q 332 6 374 29 q 236 -16 290 -16 q 134 5 174 -16 q 74 63 93 27 q 50 138 54 99 q 45 293 45 177 l 45 900 l 319 900 l 319 288 q 325 163 319 182 q 360 143 332 143 q 396 163 391 143 q 402 294 402 184 l 402 900 l 676 900 m 368 1049 l 288 960 l 98 960 l 273 1152 l 464 1152 l 627 960 l 444 960 l 368 1049 z "},"ü":{"ha":726,"x_min":45,"x_max":676,"o":"m 676 900 l 676 0 l 397 0 l 402 75 q 332 6 374 29 q 236 -16 290 -16 q 134 5 174 -16 q 74 63 93 27 q 50 138 54 99 q 45 293 45 177 l 45 900 l 319 900 l 319 288 q 325 163 319 182 q 360 143 332 143 q 396 163 391 143 q 402 294 402 184 l 402 900 l 676 900 m 303 1137 l 303 960 l 126 960 l 126 1137 l 303 1137 m 600 1137 l 600 960 l 422 960 l 422 1137 l 600 1137 z "},"†":{"ha":754,"x_min":24,"x_max":730,"o":"m 227 1098 l 528 1098 l 528 781 l 730 781 l 730 522 l 528 522 l 528 -128 l 227 -128 l 227 522 l 24 522 l 24 780 l 227 780 l 227 1098 z "},"°":{"ha":482,"x_min":24,"x_max":457,"o":"m 24 891 q 89 1050 24 987 q 241 1113 153 1113 q 394 1049 331 1113 q 457 897 457 986 q 394 744 457 807 q 241 680 330 680 q 85 746 146 680 q 24 891 24 812 m 137 899 q 168 823 137 853 q 241 793 199 793 q 314 823 283 793 q 345 897 345 854 q 314 970 345 939 q 241 1000 283 1000 q 166 968 196 1000 q 137 899 137 937 z "},"¢":{"ha":718,"x_min":41,"x_max":682,"o":"m 681 625 l 407 625 l 407 717 q 398 816 407 795 q 361 837 390 837 q 324 819 333 837 q 315 726 315 802 l 315 305 q 323 211 315 231 q 359 190 332 190 q 406 218 393 190 q 418 335 418 245 l 418 434 l 681 434 q 682 389 682 404 q 621 141 682 227 q 427 26 560 55 l 427 -86 l 300 -86 l 300 26 q 142 93 211 38 q 57 207 74 147 q 41 399 41 266 l 41 602 q 58 805 41 739 q 139 926 75 871 q 300 1000 203 981 l 300 1093 l 427 1093 l 427 1000 q 548 955 493 988 q 633 875 602 921 q 673 782 665 829 q 681 625 681 736 z "},"£":{"ha":743,"x_min":49,"x_max":711,"o":"m 677 745 l 432 745 l 432 844 q 430 929 432 911 q 413 961 427 947 q 378 975 399 975 q 334 951 351 975 q 316 899 316 928 q 346 759 316 862 q 378 625 378 646 l 551 625 l 551 437 l 395 437 q 263 160 393 253 q 294 164 275 161 q 330 168 314 168 q 393 161 353 168 q 420 158 408 158 q 465 175 448 158 q 481 264 481 192 q 480 308 481 275 l 711 308 l 710 220 q 696 79 710 122 q 632 7 682 36 q 507 -21 583 -21 q 368 2 460 -21 q 215 25 279 25 q 49 -21 113 25 l 49 139 q 97 189 78 159 q 131 288 115 219 q 146 408 146 357 q 146 437 146 418 l 49 437 l 49 625 l 116 625 q 59 832 59 733 q 146 1046 59 974 q 369 1119 234 1119 q 599 1043 513 1119 q 684 834 684 966 q 677 745 684 798 z "},"§":{"ha":672,"x_min":24,"x_max":648,"o":"m 595 863 l 378 863 l 378 880 q 365 931 378 914 q 322 948 351 948 q 292 938 302 948 q 281 908 281 928 q 302 863 281 887 q 412 774 323 838 q 609 606 571 659 q 648 494 648 554 q 500 301 648 370 q 588 186 559 241 q 617 82 617 132 q 542 -82 617 -9 q 334 -155 467 -155 q 150 -94 221 -155 q 77 99 79 -33 l 294 99 q 347 12 294 12 q 379 23 369 12 q 390 56 390 34 q 369 104 390 81 q 296 165 348 127 q 83 337 141 276 q 24 471 24 399 q 171 667 24 583 q 85 772 114 718 q 56 884 56 827 q 126 1047 56 972 q 334 1121 195 1121 q 519 1064 444 1121 q 595 863 595 1008 m 259 589 q 235 538 235 565 q 252 501 235 519 q 340 433 269 483 q 413 378 388 397 q 437 429 437 400 q 413 473 437 450 q 318 547 390 496 q 259 589 288 568 z "},"•":{"ha":483,"x_min":41,"x_max":441,"o":"m 441 554 q 382 407 441 465 q 241 349 322 349 q 99 407 158 349 q 41 549 41 466 q 100 690 41 631 q 241 749 159 749 q 385 688 329 749 q 441 554 441 627 z "},"¶":{"ha":800,"x_min":24,"x_max":791,"o":"m 456 -150 l 292 -150 l 292 541 q 24 814 24 570 q 55 954 24 893 q 137 1048 85 1015 q 237 1090 189 1082 q 387 1098 285 1098 l 791 1098 l 791 921 l 715 921 l 715 -150 l 554 -150 l 554 921 l 456 921 l 456 -150 z "},"ß":{"ha":764,"x_min":49,"x_max":719,"o":"m 612 694 q 690 623 661 671 q 719 429 719 574 l 719 328 q 705 176 719 227 q 648 80 690 124 q 549 18 605 35 q 412 0 494 0 l 360 0 l 360 166 l 391 166 q 437 178 429 166 q 445 274 445 191 l 445 543 q 435 606 444 589 q 391 627 425 622 l 391 793 q 420 802 406 793 q 433 857 433 810 q 419 936 433 909 q 378 962 406 962 q 334 939 346 962 q 323 847 323 916 l 323 0 l 49 0 l 49 733 q 67 959 49 892 q 158 1074 85 1026 q 363 1121 232 1121 q 615 1055 525 1121 q 705 872 705 989 q 612 694 705 766 z "},"®":{"ha":1088,"x_min":24,"x_max":1063,"o":"m 530 1039 q 913 884 763 1039 q 1063 519 1063 730 q 911 153 1063 305 q 544 0 758 0 q 176 152 328 0 q 24 519 24 304 q 105 797 24 671 q 306 981 185 924 q 530 1039 427 1039 m 556 938 q 246 812 365 938 q 127 519 127 686 q 250 224 127 347 q 545 102 373 102 q 840 224 717 102 q 962 519 962 347 q 901 738 962 638 q 742 888 839 838 q 556 938 645 938 m 315 242 l 315 793 l 576 793 q 718 748 673 793 q 762 637 762 703 q 725 535 762 574 q 613 483 688 496 q 667 448 647 470 q 730 353 687 426 l 795 242 l 657 242 l 611 331 q 538 439 570 410 q 456 468 507 468 l 427 468 l 427 242 l 315 242 m 427 555 l 517 555 q 615 573 586 555 q 644 632 644 591 q 615 687 644 669 q 529 705 587 705 l 427 705 l 427 555 z "},"©":{"ha":1088,"x_min":24,"x_max":1063,"o":"m 530 1039 q 915 883 766 1039 q 1063 519 1063 727 q 911 153 1063 305 q 544 0 758 0 q 176 152 328 0 q 24 519 24 304 q 101 791 24 667 q 299 977 178 916 q 530 1039 420 1039 m 555 937 q 247 812 368 937 q 127 519 127 688 q 249 225 127 348 q 544 102 372 102 q 839 225 716 102 q 961 519 961 348 q 834 818 961 699 q 555 937 708 937 m 670 443 l 779 406 q 549 229 724 229 q 360 308 431 229 q 289 517 289 386 q 361 729 289 652 q 547 807 433 807 q 779 642 720 807 l 669 616 q 549 711 634 711 q 445 660 481 711 q 408 524 408 608 q 443 378 408 430 q 542 326 478 326 q 670 443 633 326 z "},"™":{"ha":1087,"x_min":8,"x_max":1055,"o":"m 180 543 l 180 1002 l 8 1002 l 8 1098 l 459 1098 l 459 1002 l 292 1002 l 292 543 l 180 543 m 500 543 l 500 1098 l 676 1098 l 777 715 l 878 1098 l 1055 1098 l 1055 543 l 947 543 l 947 985 l 827 543 l 726 543 l 606 985 l 606 543 l 500 543 z "},"´":{"ha":463,"x_min":102,"x_max":463,"o":"m 463 1202 l 240 1018 l 102 1018 l 222 1202 l 463 1202 z "},"¨":{"ha":463,"x_min":-5,"x_max":469,"o":"m 172 1194 l 172 1018 l -5 1018 l -5 1194 l 172 1194 m 469 1194 l 469 1018 l 292 1018 l 292 1194 l 469 1194 z "},"≠":{"ha":741,"x_min":44,"x_max":696,"o":"m 44 761 l 376 761 l 488 1045 l 640 1045 l 530 761 l 696 761 l 696 595 l 465 595 l 429 502 l 696 502 l 696 336 l 364 336 l 252 52 l 98 52 l 211 336 l 44 336 l 44 502 l 275 502 l 313 595 l 44 595 l 44 761 z "},"Æ":{"ha":991,"x_min":-8,"x_max":966,"o":"m 952 1098 l 952 878 l 760 878 l 760 670 l 941 670 l 941 461 l 760 461 l 760 220 l 966 220 l 966 0 l 475 0 l 475 197 l 311 197 l 264 0 l -8 0 l 281 1098 l 952 1098 m 475 892 l 353 392 l 475 392 l 475 892 z "},"Ø":{"ha":759,"x_min":-37,"x_max":795,"o":"m 696 909 q 709 643 709 857 l 709 455 q 702 221 709 290 q 653 95 694 152 q 542 7 612 38 q 379 -23 472 -23 q 210 9 280 -23 q 98 106 140 42 l 25 12 l -37 59 l 62 189 q 49 455 49 238 l 49 643 q 57 877 49 808 q 105 1003 64 946 q 216 1090 146 1060 q 379 1121 286 1121 q 548 1089 477 1121 q 661 991 618 1057 l 733 1086 l 795 1040 l 696 909 m 424 669 l 424 816 q 415 914 424 892 q 380 935 407 935 q 343 912 353 935 q 334 816 334 890 l 334 551 l 424 669 m 334 423 l 334 303 q 342 185 334 208 q 378 163 350 163 q 416 189 408 163 q 424 311 424 214 l 424 542 l 334 423 z "},"∞":{"ha":990,"x_min":36,"x_max":954,"o":"m 443 549 q 550 700 490 663 q 694 736 610 736 q 816 707 760 736 q 913 612 872 677 q 954 454 954 547 q 920 307 954 370 q 830 207 887 244 q 717 169 774 169 q 612 202 663 169 q 488 363 560 236 q 395 244 450 284 q 269 205 340 205 q 104 274 172 205 q 36 455 36 343 q 96 633 36 562 q 244 704 156 704 q 344 675 296 704 q 443 549 391 647 m 508 411 q 605 272 555 311 q 720 233 654 233 q 861 296 807 233 q 915 454 915 359 q 856 618 915 552 q 724 684 798 684 q 622 644 666 684 q 508 411 578 605 m 423 496 q 348 605 393 569 q 242 642 302 642 q 123 592 174 642 q 73 456 73 543 q 122 310 73 363 q 229 258 172 258 q 319 292 272 258 q 416 473 367 327 l 423 496 z "},"±":{"ha":741,"x_min":43,"x_max":697,"o":"m 452 368 l 287 368 l 287 609 l 43 609 l 43 774 l 287 774 l 287 1019 l 452 1019 l 452 774 l 697 774 l 697 609 l 452 609 l 452 368 m 43 287 l 697 287 l 697 121 l 43 121 l 43 287 z "},"≤":{"ha":741,"x_min":43,"x_max":697,"o":"m 696 330 l 44 602 l 44 739 l 696 1012 l 696 833 l 294 671 l 696 509 l 696 330 m 43 275 l 697 275 l 697 110 l 43 110 l 43 275 z "},"≥":{"ha":741,"x_min":43,"x_max":697,"o":"m 44 1012 l 696 741 l 696 602 l 44 330 l 44 509 l 447 671 l 44 832 l 44 1012 m 43 275 l 697 275 l 697 110 l 43 110 l 43 275 z "},"¥":{"ha":657,"x_min":-8,"x_max":665,"o":"m 537 666 l 655 666 l 655 549 l 503 549 l 457 397 l 655 397 l 655 281 l 457 281 l 457 0 l 193 0 l 193 281 l 1 281 l 1 397 l 193 397 l 149 549 l 1 549 l 1 666 l 115 666 l -8 1098 l 254 1098 q 323 666 316 777 q 403 1098 347 842 l 665 1098 l 537 666 z "},"µ":{"ha":654,"x_min":49,"x_max":605,"o":"m 49 900 l 269 900 l 269 251 q 321 155 269 155 q 387 313 387 155 l 387 900 l 605 900 l 605 0 l 397 0 l 397 83 q 269 -14 356 -13 l 269 -276 l 49 -276 l 49 900 z "},"∂":{"ha":680,"x_min":42,"x_max":647,"o":"m 240 780 l 212 780 q 306 924 247 876 q 448 972 365 972 q 560 941 515 972 q 626 858 604 909 q 647 701 647 806 q 583 304 647 468 q 441 62 518 140 q 256 -16 363 -16 q 97 47 151 -16 q 42 199 42 109 q 170 494 42 355 q 440 633 298 633 q 600 532 554 633 q 606 618 606 584 q 577 739 606 692 q 509 811 549 785 q 393 837 469 837 q 306 823 344 837 q 240 780 267 808 m 589 469 q 444 599 547 599 q 333 538 386 599 q 248 358 281 477 q 216 144 216 240 q 235 55 216 80 q 297 30 255 30 q 473 165 388 30 q 589 469 557 300 z "},"∑":{"ha":984,"x_min":26,"x_max":960,"o":"m 916 -56 l 26 -56 l 26 -32 l 479 532 l 26 1085 l 26 1111 l 892 1111 l 911 882 l 884 882 q 715 1056 865 1056 l 213 1056 l 594 590 l 168 63 l 722 63 q 845 90 783 63 q 932 230 907 116 l 960 224 l 916 -56 z "},"∏":{"ha":1143,"x_min":31,"x_max":1112,"o":"m 840 1057 l 301 1057 l 301 75 q 328 -7 301 16 q 411 -31 354 -31 l 435 -31 l 435 -56 l 31 -56 l 31 -31 l 54 -31 q 141 -5 117 -31 q 165 75 165 20 l 165 979 q 139 1061 165 1037 q 54 1084 113 1084 l 31 1084 l 31 1109 l 1112 1109 l 1112 1084 l 1088 1084 q 1004 1060 1029 1084 q 978 979 978 1036 l 978 75 q 1004 -7 978 16 q 1088 -31 1031 -31 l 1112 -31 l 1112 -56 l 707 -56 l 707 -31 l 730 -31 q 817 -5 793 -31 q 840 75 840 20 l 840 1057 z "},"∫":{"ha":380,"x_min":0,"x_max":380,"o":"m 136 607 l 144 909 q 195 1203 150 1142 q 295 1263 239 1263 q 355 1240 331 1263 q 380 1191 380 1217 q 362 1141 380 1161 q 317 1120 345 1120 q 266 1145 294 1120 q 239 1158 250 1158 q 212 1116 212 1158 q 218 1017 212 1087 q 243 566 243 738 q 235 247 243 519 q 182 -88 227 -26 q 80 -149 138 -149 q 23 -127 47 -149 q 0 -67 0 -105 q 18 -18 0 -37 q 61 0 35 0 q 109 -22 88 0 q 141 -43 127 -43 q 161 -33 155 -43 q 168 -2 168 -22 q 161 79 168 26 q 136 607 136 294 z "},"ª":{"ha":451,"x_min":24,"x_max":426,"o":"m 191 924 l 24 924 q 39 1026 24 991 q 101 1088 54 1061 q 224 1116 148 1116 q 359 1088 313 1116 q 415 1016 404 1059 q 426 833 426 972 l 426 566 l 253 566 l 253 612 q 210 568 236 583 q 150 553 184 553 q 56 586 87 553 q 24 687 24 620 l 24 731 q 47 819 24 796 q 171 878 70 842 q 245 915 242 903 q 248 945 248 927 q 242 1000 248 989 q 218 1012 235 1012 q 195 1003 199 1012 q 191 949 191 994 l 191 924 m 248 820 q 201 778 210 792 q 192 720 192 764 q 197 673 192 684 q 221 663 203 663 q 243 671 239 663 q 248 718 248 680 l 248 820 z "},"º":{"ha":458,"x_min":24,"x_max":433,"o":"m 433 912 l 433 785 q 418 655 433 700 q 355 582 403 610 q 228 553 308 553 q 101 577 143 553 q 41 644 58 601 q 24 767 24 686 l 24 901 q 79 1071 24 1025 q 222 1116 134 1116 q 348 1089 300 1116 q 414 1022 396 1062 q 433 912 433 981 m 254 953 q 250 1003 254 994 q 229 1012 246 1012 q 207 1002 212 1012 q 203 953 203 993 l 203 713 q 208 666 203 676 q 227 656 212 656 q 250 666 245 656 q 254 708 254 675 l 254 953 z "},"Ω":{"ha":1067,"x_min":22,"x_max":1044,"o":"m 418 243 l 441 0 l 22 0 l 22 256 l 46 256 q 69 187 49 209 q 154 165 89 165 l 376 165 l 372 212 q 129 346 201 248 q 56 559 56 444 q 181 828 56 716 q 533 941 307 941 q 885 828 760 941 q 1010 559 1010 716 q 938 346 1010 444 q 694 212 865 248 l 690 165 l 912 165 q 974 172 956 165 q 1005 198 992 179 q 1020 256 1018 217 l 1044 256 l 1044 0 l 625 0 l 648 243 q 772 543 772 286 q 699 812 772 737 q 533 888 627 888 q 403 845 459 888 q 321 735 347 802 q 294 551 294 667 q 418 243 294 286 z "},"æ":{"ha":1046,"x_min":37,"x_max":1005,"o":"m 1005 434 l 648 434 l 648 252 q 656 163 648 183 q 694 143 665 143 q 735 163 724 143 q 746 248 746 184 l 746 376 l 1005 376 l 1005 285 q 978 135 1005 196 q 881 29 951 74 q 708 -16 810 -16 q 547 9 613 -16 q 441 87 480 35 q 353 9 404 35 q 239 -16 302 -16 q 116 14 164 -16 q 52 92 67 45 q 37 245 37 138 q 51 375 37 340 q 108 437 64 410 q 258 502 151 465 q 334 534 314 521 q 361 566 353 547 q 368 649 368 585 q 360 733 368 709 q 330 757 352 757 q 301 737 308 757 q 295 637 295 718 l 295 551 l 38 551 l 38 618 q 48 736 38 693 q 97 822 59 779 q 192 890 134 865 q 340 916 250 916 q 437 904 391 916 q 527 867 484 892 q 600 904 558 892 q 692 916 641 916 q 870 871 795 916 q 975 757 944 827 q 1005 550 1005 687 l 1005 434 m 731 581 l 731 662 q 720 741 731 725 q 690 757 708 757 q 657 739 667 757 q 648 662 648 720 l 648 581 l 731 581 m 374 422 q 303 354 321 385 q 286 239 286 323 q 296 165 286 186 q 334 143 307 143 q 363 157 354 143 q 373 197 373 170 l 374 277 l 374 422 z "},"ø":{"ha":710,"x_min":41,"x_max":669,"o":"m 618 801 q 657 723 645 765 q 669 584 669 680 l 669 363 q 656 185 669 242 q 604 80 644 129 q 502 7 564 31 q 357 -16 439 -16 q 223 -2 280 -16 q 130 41 166 13 l 109 9 l 56 44 l 86 91 q 52 176 63 129 q 41 334 41 224 l 41 564 q 68 760 41 690 q 165 873 95 831 q 346 916 236 916 q 474 899 417 916 q 573 848 531 882 l 601 890 l 654 856 l 618 801 m 395 566 l 395 652 q 387 739 395 721 q 355 757 380 757 q 323 739 331 757 q 315 652 315 721 l 315 444 l 395 566 m 315 326 l 315 245 q 323 162 315 182 q 355 143 331 143 q 387 161 379 143 q 395 237 395 178 l 395 449 l 315 326 z "},"¿":{"ha":729,"x_min":24,"x_max":671,"o":"m 397 746 l 397 966 l 653 966 l 653 746 l 397 746 m 397 222 l 671 222 q 647 11 670 77 q 547 -106 624 -56 q 351 -155 470 -155 q 200 -128 264 -155 q 98 -53 136 -101 q 42 52 60 -4 q 24 228 24 109 l 24 362 q 41 510 24 454 q 115 607 58 565 q 249 649 172 649 q 397 572 353 649 l 397 689 l 653 689 l 653 387 l 404 387 q 359 450 403 450 q 316 423 325 450 q 307 288 307 395 l 307 105 q 315 25 307 45 q 349 4 323 4 q 389 31 380 4 q 397 155 397 58 l 397 222 z "},"¡":{"ha":375,"x_min":24,"x_max":326,"o":"m 47 746 l 47 966 l 303 966 l 303 746 l 47 746 m 24 -132 l 69 694 l 281 694 l 326 -132 l 24 -132 z "},"¬":{"ha":741,"x_min":43,"x_max":697,"o":"m 43 764 l 697 764 l 697 334 l 532 334 l 532 597 l 43 597 l 43 764 z "},"√":{"ha":762,"x_min":57,"x_max":762,"o":"m 712 1267 l 762 1267 l 551 -53 l 214 640 l 80 578 l 57 621 l 261 724 l 536 165 l 712 1267 z "},"ƒ":{"ha":616,"x_min":-33,"x_max":616,"o":"m 616 1119 l 587 975 q 540 972 549 975 q 526 942 531 969 q 520 913 525 937 l 474 681 l 574 681 l 542 516 l 442 516 l 352 60 q 278 -113 326 -70 q 90 -155 229 -155 l -33 -155 l -3 -11 q 44 -5 38 -11 q 60 45 51 1 l 154 516 l 60 516 l 90 681 l 188 681 l 229 892 q 280 1051 252 1017 q 343 1102 307 1086 q 471 1119 379 1119 l 616 1119 z "},"≈":{"ha":729,"x_min":39,"x_max":690,"o":"m 690 666 q 502 577 585 577 q 433 587 466 577 q 324 633 400 596 q 227 665 259 665 q 150 643 189 665 q 39 553 111 621 l 39 742 q 235 830 136 830 q 392 782 293 830 q 507 743 472 743 q 690 853 573 743 l 690 666 m 690 404 l 681 397 q 502 315 581 315 q 433 325 466 315 q 324 371 400 334 q 227 403 259 403 q 154 383 195 403 q 39 292 113 363 l 39 480 q 235 568 136 568 q 392 520 293 568 q 507 481 472 481 q 690 591 573 481 l 690 404 z "},"∆":{"ha":854,"x_min":20,"x_max":833,"o":"m 833 0 l 20 0 l 446 941 l 833 0 m 673 56 l 403 711 l 104 56 l 673 56 z "},"«":{"ha":515,"x_min":24,"x_max":491,"o":"m 81 840 l 242 840 l 185 471 l 242 84 l 81 84 l 24 471 l 81 840 m 330 840 l 491 840 l 433 471 l 491 84 l 330 84 l 273 471 l 330 840 z "},"»":{"ha":515,"x_min":24,"x_max":491,"o":"m 433 840 l 491 471 l 433 84 l 273 84 l 330 471 l 273 840 l 433 840 m 185 840 l 242 471 l 185 84 l 24 84 l 81 471 l 24 840 l 185 840 z "},"…":{"ha":768,"x_min":24,"x_max":744,"o":"m 231 224 l 231 0 l 24 0 l 24 224 l 231 224 m 744 224 l 744 0 l 537 0 l 537 224 l 744 224 m 488 224 l 488 0 l 281 0 l 281 224 l 488 224 z "}," ":{"ha":245,"x_min":0,"x_max":0,"o":""},"À":{"ha":705,"x_min":-8,"x_max":713,"o":"m 550 1098 l 713 0 l 421 0 l 407 197 l 304 197 l 288 0 l -8 0 l 137 1098 l 550 1098 m 399 392 q 355 852 377 578 q 301 392 312 538 l 399 392 m 103 1316 l 345 1316 l 464 1133 l 326 1133 l 103 1316 z "},"Ã":{"ha":705,"x_min":-8,"x_max":713,"o":"m 550 1098 l 713 0 l 421 0 l 407 197 l 304 197 l 288 0 l -8 0 l 137 1098 l 550 1098 m 399 392 q 355 852 377 578 q 301 392 312 538 l 399 392 m 630 1261 q 553 1166 599 1193 q 473 1139 508 1139 q 370 1161 425 1139 l 319 1181 q 248 1200 271 1200 q 165 1133 197 1200 l 58 1204 q 226 1335 132 1335 q 332 1314 275 1335 l 374 1298 q 446 1278 427 1278 q 521 1339 503 1278 l 630 1261 z "},"Õ":{"ha":759,"x_min":49,"x_max":709,"o":"m 709 455 q 702 221 709 290 q 653 95 694 152 q 542 7 612 38 q 379 -23 472 -23 q 221 6 291 -23 q 108 92 151 35 q 57 218 65 150 q 49 455 49 286 l 49 643 q 57 877 49 808 q 105 1003 64 946 q 216 1090 146 1060 q 379 1121 286 1121 q 537 1092 467 1121 q 650 1006 608 1063 q 701 880 693 948 q 709 643 709 812 l 709 455 m 424 816 q 415 914 424 892 q 380 935 407 935 q 346 918 358 935 q 334 816 334 901 l 334 303 q 342 185 334 208 q 378 163 350 163 q 416 189 408 163 q 424 311 424 214 l 424 816 m 665 1261 q 589 1166 634 1193 q 509 1139 543 1139 q 405 1161 460 1139 l 355 1181 q 283 1200 307 1200 q 200 1133 233 1200 l 93 1204 q 261 1335 168 1335 q 368 1314 310 1335 l 410 1298 q 481 1278 463 1278 q 556 1339 538 1278 l 665 1261 z "},"Œ":{"ha":956,"x_min":49,"x_max":931,"o":"m 908 1098 l 908 878 l 715 878 l 715 670 l 899 670 l 899 461 l 715 461 l 715 220 l 931 220 l 931 0 l 502 0 q 374 -12 409 -12 q 214 19 287 -12 q 106 97 142 50 q 60 195 71 144 q 49 358 49 246 l 49 717 q 58 896 49 839 q 107 1002 68 953 q 214 1080 146 1051 q 378 1109 281 1109 q 504 1098 435 1109 l 908 1098 m 430 753 q 429 803 430 787 q 428 844 428 833 q 380 924 428 924 q 344 906 353 924 q 335 843 335 888 l 334 793 l 334 353 q 341 200 334 226 q 380 174 349 174 q 420 203 411 174 q 430 340 430 233 l 430 753 z "},"œ":{"ha":1063,"x_min":41,"x_max":1021,"o":"m 1021 434 l 669 434 l 669 233 q 677 160 669 177 q 710 143 686 143 q 751 172 739 143 q 762 264 762 200 l 762 376 l 1021 376 l 1021 287 q 993 134 1021 195 q 890 28 964 73 q 715 -16 817 -16 q 616 -6 662 -16 q 530 26 570 5 q 450 -6 493 5 q 356 -16 406 -16 q 197 13 264 -16 q 95 86 131 42 q 50 178 60 131 q 41 336 41 224 l 41 532 q 59 742 41 677 q 154 862 78 807 q 345 916 229 916 q 443 903 397 916 q 530 862 490 889 q 610 903 566 889 q 707 916 654 916 q 886 870 803 916 q 996 751 970 825 q 1021 564 1021 678 l 1021 434 m 395 627 q 387 736 395 715 q 353 757 380 757 q 322 737 330 757 q 315 654 315 718 l 315 262 q 321 160 315 178 q 353 143 327 143 q 387 162 378 143 q 395 253 395 182 l 395 627 m 747 580 l 747 676 q 735 745 747 734 q 707 757 722 757 q 677 742 685 757 q 669 676 669 726 l 669 580 l 747 580 z "},"–":{"ha":694,"x_min":-8,"x_max":703,"o":"m -8 534 l 703 534 l 703 366 l -8 366 l -8 534 z "},"—":{"ha":1389,"x_min":-8,"x_max":1397,"o":"m -8 534 l 1397 534 l 1397 366 l -8 366 l -8 534 z "},"“":{"ha":479,"x_min":24,"x_max":454,"o":"m 270 743 l 270 841 q 289 968 270 918 q 352 1052 307 1017 q 454 1098 397 1086 l 454 1019 q 408 958 414 996 l 454 958 l 454 743 l 270 743 m 24 743 l 24 841 q 43 968 24 918 q 107 1052 62 1017 q 208 1098 152 1086 l 208 1019 q 163 958 168 996 l 208 958 l 208 743 l 24 743 z "},"”":{"ha":479,"x_min":24,"x_max":454,"o":"m 454 1098 l 454 1000 q 435 873 454 923 q 372 789 417 823 q 270 743 327 755 l 270 822 q 315 883 310 844 l 270 883 l 270 1098 l 454 1098 m 208 1098 l 208 1000 q 190 873 208 923 q 126 789 172 823 q 24 743 81 755 l 24 822 q 71 883 65 844 l 24 883 l 24 1098 l 208 1098 z "},"‘":{"ha":233,"x_min":24,"x_max":208,"o":"m 24 743 l 24 841 q 43 968 24 918 q 107 1052 62 1017 q 208 1098 152 1086 l 208 1019 q 163 958 168 996 l 208 958 l 208 743 l 24 743 z "},"’":{"ha":233,"x_min":24,"x_max":208,"o":"m 208 1098 l 208 1000 q 190 873 208 923 q 126 789 172 823 q 24 743 81 755 l 24 822 q 71 883 65 844 l 24 883 l 24 1098 l 208 1098 z "},"÷":{"ha":741,"x_min":43,"x_max":697,"o":"m 274 776 q 302 843 274 816 q 368 870 330 870 q 435 842 407 870 q 463 777 463 814 q 435 710 463 738 q 368 682 407 682 q 301 711 328 682 q 274 776 274 739 m 43 629 l 697 629 l 697 469 l 43 469 l 43 629 m 274 323 q 302 393 274 366 q 369 420 331 420 q 436 392 408 420 q 464 325 464 365 q 436 258 464 286 q 369 231 408 231 q 301 259 329 231 q 274 323 274 288 z "},"◊":{"ha":686,"x_min":31,"x_max":655,"o":"m 372 964 l 655 481 l 372 0 l 296 0 l 31 481 l 296 964 l 372 964 m 335 899 l 104 481 l 335 64 l 578 481 l 335 899 z "},"ÿ":{"ha":623,"x_min":-8,"x_max":623,"o":"m 623 900 l 544 249 q 513 38 526 94 q 471 -55 500 -18 q 390 -109 442 -92 q 224 -126 338 -126 l 58 -126 l 58 18 q 140 24 122 18 q 159 53 159 31 q 142 147 159 64 l -8 900 l 241 900 l 330 293 l 374 900 l 623 900 m 261 1137 l 261 960 l 84 960 l 84 1137 l 261 1137 m 557 1137 l 557 960 l 380 960 l 380 1137 l 557 1137 z "},"Ÿ":{"ha":657,"x_min":-8,"x_max":665,"o":"m 665 1098 l 457 397 l 457 0 l 193 0 l 193 397 l -8 1098 l 254 1098 q 323 666 316 777 q 403 1098 347 842 l 665 1098 m 269 1309 l 269 1133 l 92 1133 l 92 1309 l 269 1309 m 566 1309 l 566 1133 l 389 1133 l 389 1309 l 566 1309 z "},"∕":{"ha":174,"x_min":-180,"x_max":353,"o":"m 353 1119 l -75 -21 l -180 -21 l 251 1119 l 353 1119 z "},"€":{"ha":737,"x_min":-17,"x_max":692,"o":"m 310 703 l 387 703 l 387 586 l 310 586 l 310 532 l 387 532 l 387 415 l 310 415 l 310 292 q 314 213 310 234 q 334 177 318 192 q 375 163 351 163 q 413 175 395 163 q 434 209 430 186 q 439 301 439 232 l 439 406 l 692 406 l 692 363 q 663 137 692 210 q 558 20 635 64 q 372 -24 481 -24 q 215 7 285 -24 q 108 90 145 38 q 60 202 71 141 q 49 386 49 263 l 49 415 l -17 415 l -17 532 l 49 532 l 49 586 l -17 586 l -17 703 l 49 703 l 49 722 q 58 890 49 828 q 109 1006 67 953 q 221 1090 150 1060 q 380 1121 292 1121 q 540 1089 469 1121 q 652 986 612 1057 q 692 757 692 916 l 692 721 l 439 721 l 439 810 q 434 898 437 880 q 419 925 431 916 q 382 935 408 935 q 334 921 352 935 q 313 884 317 907 q 310 802 310 861 l 310 703 z "},"‹":{"ha":275,"x_min":24,"x_max":250,"o":"m 83 852 l 250 852 l 191 472 l 250 71 l 83 71 l 24 472 l 83 852 z "},"›":{"ha":275,"x_min":24,"x_max":250,"o":"m 191 852 l 250 472 l 191 71 l 24 71 l 83 472 l 24 852 l 191 852 z "},"ﬁ":{"ha":779,"x_min":3,"x_max":729,"o":"m 729 1098 l 729 955 l 447 955 l 447 1098 l 729 1098 m 398 1098 l 398 959 q 298 951 313 959 q 283 907 283 943 l 283 878 l 398 878 l 398 736 l 333 736 l 333 0 l 59 0 l 59 736 l 3 736 l 3 878 l 59 878 q 65 997 59 967 q 95 1050 71 1027 q 163 1086 119 1074 q 298 1098 206 1098 l 398 1098 m 729 900 l 729 0 l 447 0 l 447 900 l 729 900 z "},"ﬂ":{"ha":777,"x_min":3,"x_max":727,"o":"m 398 1098 l 398 959 q 298 951 313 959 q 283 907 283 943 l 283 878 l 398 878 l 398 736 l 333 736 l 333 0 l 59 0 l 59 736 l 3 736 l 3 878 l 59 878 q 65 997 59 967 q 95 1050 71 1027 q 163 1086 119 1074 q 298 1098 206 1098 l 398 1098 m 727 1098 l 727 0 l 445 0 l 445 1098 l 727 1098 z "},"‡":{"ha":755,"x_min":24,"x_max":730,"o":"m 227 1098 l 528 1098 l 528 844 l 730 844 l 730 586 l 528 586 l 528 384 l 730 384 l 730 125 l 528 125 l 528 -128 l 227 -128 l 227 125 l 24 125 l 24 384 l 227 384 l 227 586 l 24 586 l 24 844 l 227 844 l 227 1098 z "},"∙":{"ha":305,"x_min":49,"x_max":256,"o":"m 256 659 l 256 435 l 49 435 l 49 659 l 256 659 z "},"‚":{"ha":233,"x_min":24,"x_max":208,"o":"m 208 215 l 208 117 q 190 -10 208 39 q 126 -94 172 -60 q 24 -140 81 -129 l 24 -62 q 71 0 65 -39 l 24 0 l 24 215 l 208 215 z "},"„":{"ha":479,"x_min":24,"x_max":454,"o":"m 454 215 l 454 117 q 435 -10 454 39 q 372 -94 417 -60 q 270 -140 327 -129 l 270 -62 q 315 0 310 -39 l 270 0 l 270 215 l 454 215 m 208 215 l 208 117 q 190 -10 208 39 q 126 -94 172 -60 q 24 -140 81 -129 l 24 -62 q 71 0 65 -39 l 24 0 l 24 215 l 208 215 z "},"‰":{"ha":1423,"x_min":24,"x_max":1399,"o":"m 748 1119 l 319 -21 l 214 -21 l 645 1119 l 748 1119 m 429 911 l 429 722 q 415 611 429 648 q 355 547 401 574 q 234 519 309 519 q 102 546 147 519 q 40 608 56 572 q 24 713 24 645 l 24 911 q 41 1031 24 992 q 105 1095 58 1070 q 222 1119 153 1119 q 348 1092 300 1119 q 412 1027 396 1065 q 429 911 429 989 m 255 959 q 251 1013 255 1002 q 227 1023 246 1023 q 203 1012 208 1023 q 197 959 197 1001 l 197 682 q 202 625 197 635 q 227 616 207 616 q 250 627 245 616 q 255 677 255 637 l 255 959 m 938 380 l 938 191 q 924 81 938 118 q 864 16 910 43 q 743 -12 819 -12 q 611 15 657 -12 q 550 78 566 41 q 534 182 534 115 l 534 380 q 550 500 534 461 q 614 564 567 539 q 732 589 662 589 q 858 562 810 589 q 922 496 906 534 q 938 380 938 458 m 764 428 q 760 482 764 471 q 736 492 755 492 q 712 481 718 492 q 707 428 707 471 l 707 151 q 712 95 707 104 q 736 85 717 85 q 760 96 755 85 q 764 147 764 106 l 764 428 m 1399 380 l 1399 191 q 1385 81 1399 118 q 1325 16 1371 43 q 1204 -12 1280 -12 q 1073 15 1118 -12 q 1011 78 1027 41 q 995 182 995 115 l 995 380 q 1011 500 995 461 q 1076 564 1028 539 q 1193 589 1123 589 q 1319 562 1271 589 q 1383 496 1367 534 q 1399 380 1399 458 m 1225 428 q 1221 482 1225 471 q 1197 492 1217 492 q 1174 481 1179 492 q 1168 428 1168 471 l 1168 151 q 1173 95 1168 104 q 1198 85 1178 85 q 1220 96 1215 85 q 1225 147 1225 106 l 1225 428 z "},"Â":{"ha":705,"x_min":-8,"x_max":713,"o":"m 550 1098 l 713 0 l 421 0 l 407 197 l 304 197 l 288 0 l -8 0 l 137 1098 l 550 1098 m 399 392 q 355 852 377 578 q 301 392 312 538 l 399 392 m 346 1221 l 266 1133 l 76 1133 l 250 1324 l 441 1324 l 605 1133 l 421 1133 l 346 1221 z "},"Ê":{"ha":577,"x_min":24,"x_max":553,"o":"m 57 1098 l 533 1098 l 533 878 l 342 878 l 342 670 l 521 670 l 521 461 l 342 461 l 342 220 l 552 220 l 552 0 l 57 0 l 57 1098 m 294 1221 l 214 1133 l 24 1133 l 198 1324 l 389 1324 l 553 1133 l 369 1133 l 294 1221 z "},"Á":{"ha":705,"x_min":-8,"x_max":713,"o":"m 550 1098 l 713 0 l 421 0 l 407 197 l 304 197 l 288 0 l -8 0 l 137 1098 l 550 1098 m 399 392 q 355 852 377 578 q 301 392 312 538 l 399 392 m 585 1316 l 361 1133 l 224 1133 l 343 1316 l 585 1316 z "},"Ë":{"ha":577,"x_min":52,"x_max":552,"o":"m 57 1098 l 533 1098 l 533 878 l 342 878 l 342 670 l 521 670 l 521 461 l 342 461 l 342 220 l 552 220 l 552 0 l 57 0 l 57 1098 m 229 1309 l 229 1133 l 52 1133 l 52 1309 l 229 1309 m 525 1309 l 525 1133 l 348 1133 l 348 1309 l 525 1309 z "},"È":{"ha":577,"x_min":57,"x_max":552,"o":"m 57 1098 l 533 1098 l 533 878 l 342 878 l 342 670 l 521 670 l 521 461 l 342 461 l 342 220 l 552 220 l 552 0 l 57 0 l 57 1098 m 57 1316 l 298 1316 l 418 1133 l 280 1133 l 57 1316 z "},"Í":{"ha":400,"x_min":57,"x_max":431,"o":"m 342 1098 l 342 0 l 57 0 l 57 1098 l 342 1098 m 431 1316 l 208 1133 l 71 1133 l 190 1316 l 431 1316 z "},"Î":{"ha":400,"x_min":-64,"x_max":465,"o":"m 342 1098 l 342 0 l 57 0 l 57 1098 l 342 1098 m 205 1221 l 125 1133 l -64 1133 l 110 1324 l 301 1324 l 465 1133 l 281 1133 l 205 1221 z "},"Ï":{"ha":400,"x_min":-37,"x_max":437,"o":"m 342 1098 l 342 0 l 57 0 l 57 1098 l 342 1098 m 140 1309 l 140 1133 l -37 1133 l -37 1309 l 140 1309 m 437 1309 l 437 1133 l 260 1133 l 260 1309 l 437 1309 z "},"Ì":{"ha":400,"x_min":-32,"x_max":342,"o":"m 342 1098 l 342 0 l 57 0 l 57 1098 l 342 1098 m -32 1316 l 210 1316 l 329 1133 l 191 1133 l -32 1316 z "},"Ó":{"ha":759,"x_min":49,"x_max":709,"o":"m 709 455 q 702 221 709 290 q 653 95 694 152 q 542 7 612 38 q 379 -23 472 -23 q 221 6 291 -23 q 108 92 151 35 q 57 218 65 150 q 49 455 49 286 l 49 643 q 57 877 49 808 q 105 1003 64 946 q 216 1090 146 1060 q 379 1121 286 1121 q 537 1092 467 1121 q 650 1006 608 1063 q 701 880 693 948 q 709 643 709 812 l 709 455 m 424 816 q 415 914 424 892 q 380 935 407 935 q 346 918 358 935 q 334 816 334 901 l 334 303 q 342 185 334 208 q 378 163 350 163 q 416 189 408 163 q 424 311 424 214 l 424 816 m 610 1316 l 387 1133 l 250 1133 l 369 1316 l 610 1316 z "},"Ô":{"ha":759,"x_min":49,"x_max":709,"o":"m 709 455 q 702 221 709 290 q 653 95 694 152 q 542 7 612 38 q 379 -23 472 -23 q 221 6 291 -23 q 108 92 151 35 q 57 218 65 150 q 49 455 49 286 l 49 643 q 57 877 49 808 q 105 1003 64 946 q 216 1090 146 1060 q 379 1121 286 1121 q 537 1092 467 1121 q 650 1006 608 1063 q 701 880 693 948 q 709 643 709 812 l 709 455 m 424 816 q 415 914 424 892 q 380 935 407 935 q 346 918 358 935 q 334 816 334 901 l 334 303 q 342 185 334 208 q 378 163 350 163 q 416 189 408 163 q 424 311 424 214 l 424 816 m 385 1221 l 304 1133 l 115 1133 l 289 1324 l 480 1324 l 644 1133 l 460 1133 l 385 1221 z "},"Ò":{"ha":759,"x_min":49,"x_max":709,"o":"m 709 455 q 702 221 709 290 q 653 95 694 152 q 542 7 612 38 q 379 -23 472 -23 q 221 6 291 -23 q 108 92 151 35 q 57 218 65 150 q 49 455 49 286 l 49 643 q 57 877 49 808 q 105 1003 64 946 q 216 1090 146 1060 q 379 1121 286 1121 q 537 1092 467 1121 q 650 1006 608 1063 q 701 880 693 948 q 709 643 709 812 l 709 455 m 424 816 q 415 914 424 892 q 380 935 407 935 q 346 918 358 935 q 334 816 334 901 l 334 303 q 342 185 334 208 q 378 163 350 163 q 416 189 408 163 q 424 311 424 214 l 424 816 m 148 1316 l 389 1316 l 509 1133 l 371 1133 l 148 1316 z "},"Ú":{"ha":760,"x_min":53,"x_max":706,"o":"m 706 1098 l 706 364 q 698 189 706 239 q 650 85 690 138 q 544 4 610 32 q 390 -23 479 -23 q 216 9 292 -23 q 104 94 141 42 q 60 204 66 146 q 53 448 53 262 l 53 1098 l 338 1098 l 338 275 q 346 183 338 203 q 378 163 354 163 q 413 185 405 163 q 420 289 420 207 l 420 1098 l 706 1098 m 611 1316 l 388 1133 l 250 1133 l 370 1316 l 611 1316 z "},"Û":{"ha":760,"x_min":53,"x_max":706,"o":"m 706 1098 l 706 364 q 698 189 706 239 q 650 85 690 138 q 544 4 610 32 q 390 -23 479 -23 q 216 9 292 -23 q 104 94 141 42 q 60 204 66 146 q 53 448 53 262 l 53 1098 l 338 1098 l 338 275 q 346 183 338 203 q 378 163 354 163 q 413 185 405 163 q 420 289 420 207 l 420 1098 l 706 1098 m 385 1221 l 305 1133 l 115 1133 l 290 1324 l 481 1324 l 644 1133 l 460 1133 l 385 1221 z "},"Ù":{"ha":760,"x_min":53,"x_max":706,"o":"m 706 1098 l 706 364 q 698 189 706 239 q 650 85 690 138 q 544 4 610 32 q 390 -23 479 -23 q 216 9 292 -23 q 104 94 141 42 q 60 204 66 146 q 53 448 53 262 l 53 1098 l 338 1098 l 338 275 q 346 183 338 203 q 378 163 354 163 q 413 185 405 163 q 420 289 420 207 l 420 1098 l 706 1098 m 148 1316 l 389 1316 l 509 1133 l 371 1133 l 148 1316 z "},"ı":{"ha":380,"x_min":49,"x_max":331,"o":"m 331 900 l 331 0 l 49 0 l 49 900 l 331 900 z "},"ˆ":{"ha":463,"x_min":-33,"x_max":496,"o":"m 237 1107 l 157 1018 l -33 1018 l 142 1209 l 333 1209 l 496 1018 l 313 1018 l 237 1107 z "},"˜":{"ha":463,"x_min":-55,"x_max":517,"o":"m 517 1147 q 441 1051 486 1078 q 361 1024 395 1024 q 257 1046 313 1024 l 207 1066 q 135 1086 159 1086 q 52 1018 85 1086 l -55 1089 q 113 1221 20 1221 q 220 1199 162 1221 l 262 1183 q 334 1164 315 1164 q 408 1225 390 1164 l 517 1147 z "},"ˉ":{"ha":463,"x_min":-39,"x_max":501,"o":"m 501 1135 l 501 1018 l -39 1018 l -39 1135 l 501 1135 z "},"˘":{"ha":463,"x_min":39,"x_max":424,"o":"m 309 1223 l 424 1223 q 370 1074 420 1131 q 231 1018 320 1018 q 93 1075 142 1018 q 39 1223 43 1131 l 155 1223 q 231 1130 163 1130 q 309 1223 300 1130 z "},"˙":{"ha":463,"x_min":143,"x_max":320,"o":"m 320 1194 l 320 1018 l 143 1018 l 143 1194 l 320 1194 z "},"˚":{"ha":463,"x_min":89,"x_max":374,"o":"m 232 1303 q 332 1262 289 1303 q 374 1160 374 1221 q 332 1060 374 1101 q 232 1018 290 1018 q 131 1060 172 1018 q 89 1160 89 1101 q 131 1261 89 1219 q 232 1303 173 1303 m 231 1214 q 192 1198 208 1214 q 175 1158 175 1181 q 192 1118 175 1135 q 231 1102 208 1102 q 270 1118 254 1102 q 287 1158 287 1135 q 270 1198 287 1181 q 231 1214 254 1214 z "},"¸":{"ha":463,"x_min":77,"x_max":354,"o":"m 256 8 l 256 -76 q 323 -100 292 -76 q 354 -165 354 -123 q 312 -255 354 -217 q 212 -293 270 -293 q 77 -186 106 -293 l 177 -186 q 211 -214 186 -214 q 241 -203 231 -214 q 251 -173 251 -193 q 237 -139 251 -151 q 195 -128 223 -128 q 177 -129 189 -128 l 177 8 l 256 8 z "},"˝":{"ha":463,"x_min":16,"x_max":545,"o":"m 281 1228 l 117 1018 l 16 1018 l 96 1228 l 281 1228 m 545 1228 l 382 1018 l 281 1018 l 361 1228 l 545 1228 z "},"˛":{"ha":463,"x_min":106,"x_max":359,"o":"m 178 14 l 277 14 q 205 -91 205 -55 q 217 -124 205 -113 q 254 -135 229 -135 q 331 -117 288 -135 l 359 -185 q 241 -214 302 -214 q 144 -186 182 -214 q 106 -109 106 -159 q 178 14 106 -49 z "},"ˇ":{"ha":463,"x_min":-33,"x_max":496,"o":"m 237 1120 l 313 1209 l 496 1209 l 333 1018 l 142 1018 l -33 1209 l 157 1209 l 237 1120 z "},"Ł":{"ha":532,"x_min":9,"x_max":524,"o":"m 351 686 l 516 723 l 516 606 l 351 569 l 351 220 l 524 220 l 524 0 l 65 0 l 65 505 l 9 492 l 9 608 l 65 621 l 65 1098 l 351 1098 l 351 686 z "},"ł":{"ha":397,"x_min":9,"x_max":387,"o":"m 339 709 l 387 723 l 387 606 l 339 592 l 339 0 l 57 0 l 57 507 l 9 492 l 9 608 l 57 623 l 57 1098 l 339 1098 l 339 709 z "},"Š":{"ha":718,"x_min":33,"x_max":686,"o":"m 662 766 l 397 766 l 397 847 q 387 920 397 904 q 353 935 376 935 q 314 914 327 935 q 300 850 300 893 q 315 768 300 795 q 396 701 330 740 q 636 515 587 587 q 686 281 686 442 q 658 108 686 163 q 552 15 631 52 q 369 -23 473 -23 q 173 20 254 -23 q 67 131 92 64 q 42 321 42 198 l 42 393 l 307 393 l 307 260 q 318 180 307 198 q 358 163 330 163 q 400 185 387 163 q 414 252 414 208 q 388 378 414 349 q 254 478 361 408 q 113 581 148 549 q 56 669 79 612 q 33 812 33 725 q 65 997 33 939 q 170 1088 98 1055 q 343 1121 241 1121 q 533 1085 454 1121 q 636 995 611 1049 q 662 809 662 940 l 662 766 m 364 1235 l 439 1324 l 623 1324 l 460 1133 l 269 1133 l 94 1324 l 284 1324 l 364 1235 z "},"š":{"ha":654,"x_min":28,"x_max":629,"o":"m 608 612 l 366 612 l 366 661 q 358 740 366 724 q 323 757 351 757 q 288 742 300 757 q 277 696 277 726 q 282 635 277 654 q 317 593 288 616 q 435 526 346 570 q 592 416 555 467 q 629 266 629 364 q 601 100 629 156 q 506 14 572 44 q 345 -16 439 -16 q 166 16 240 -16 q 64 104 92 49 q 36 273 36 160 l 36 316 l 279 316 l 279 259 q 288 165 279 186 q 324 143 297 143 q 365 158 353 143 q 376 219 376 172 q 361 300 376 283 q 202 396 346 316 q 55 519 81 464 q 28 650 28 574 q 57 809 28 758 q 154 888 85 861 q 312 916 222 916 q 464 893 401 916 q 561 833 527 871 q 601 764 594 796 q 608 665 608 732 l 608 612 m 332 1063 l 408 1152 l 591 1152 l 428 960 l 237 960 l 62 1152 l 252 1152 l 332 1063 z "},"Ž":{"ha":551,"x_min":8,"x_max":540,"o":"m 534 1098 l 534 878 l 321 220 l 534 220 l 534 0 l 8 0 l 8 159 l 228 878 l 34 878 l 34 1098 l 534 1098 m 281 1235 l 356 1324 l 540 1324 l 376 1133 l 185 1133 l 11 1324 l 201 1324 l 281 1235 z "},"ž":{"ha":488,"x_min":-33,"x_max":496,"o":"m 475 900 l 475 701 l 273 180 l 475 180 l 475 0 l 8 0 l 8 189 l 215 720 l 29 720 l 29 900 l 475 900 m 237 1063 l 312 1152 l 496 1152 l 332 960 l 141 960 l -33 1152 l 157 1152 l 237 1063 z "},"¦":{"ha":376,"x_min":115,"x_max":262,"o":"m 115 1098 l 262 1098 l 262 545 l 115 545 l 115 1098 m 115 373 l 262 373 l 262 -180 l 115 -180 l 115 373 z "},"Ð":{"ha":776,"x_min":9,"x_max":726,"o":"m 65 549 l 9 549 l 9 666 l 65 666 l 65 1098 l 279 1098 q 558 1079 486 1098 q 669 1017 631 1060 q 717 920 707 973 q 726 711 726 867 l 726 326 q 712 129 726 178 q 664 51 699 79 q 578 11 629 22 q 425 0 528 0 l 65 0 l 65 549 m 351 549 l 351 188 q 427 213 412 188 q 441 347 441 237 l 441 774 q 436 869 441 848 q 415 900 431 890 q 351 910 398 910 l 351 666 l 395 666 l 395 549 l 351 549 z "},"ð":{"ha":710,"x_min":41,"x_max":669,"o":"m 251 1098 l 417 1098 q 452 1071 435 1085 l 561 1098 l 581 1038 l 504 1016 q 591 887 550 962 q 651 735 633 812 q 669 526 669 658 l 669 321 q 640 136 669 208 q 536 24 610 65 q 350 -16 463 -16 q 164 22 237 -16 q 66 126 92 60 q 41 335 41 191 l 41 533 q 64 716 41 652 q 147 828 87 781 q 281 876 206 876 q 395 838 348 876 q 345 975 382 910 l 215 939 l 195 1001 l 308 1032 q 251 1098 274 1078 m 395 615 q 388 699 395 682 q 355 716 380 716 q 323 696 332 716 q 315 624 315 675 l 315 238 q 325 162 315 182 q 356 143 334 143 q 386 162 377 143 q 395 245 395 180 l 395 615 z "},"Ý":{"ha":657,"x_min":-8,"x_max":665,"o":"m 665 1098 l 457 397 l 457 0 l 193 0 l 193 397 l -8 1098 l 254 1098 q 323 666 316 777 q 403 1098 347 842 l 665 1098 m 560 1316 l 337 1133 l 199 1133 l 319 1316 l 560 1316 z "},"ý":{"ha":623,"x_min":-8,"x_max":623,"o":"m 623 900 l 544 249 q 513 38 526 94 q 471 -55 500 -18 q 390 -109 442 -92 q 224 -126 338 -126 l 58 -126 l 58 18 q 140 24 122 18 q 159 53 159 31 q 142 147 159 64 l -8 900 l 241 900 l 330 293 l 374 900 l 623 900 m 552 1144 l 329 960 l 191 960 l 311 1144 l 552 1144 z "},"Þ":{"ha":697,"x_min":57,"x_max":672,"o":"m 342 893 q 521 876 462 893 q 616 822 581 859 q 662 739 652 785 q 672 586 672 692 l 672 491 q 653 344 672 393 q 577 266 634 294 q 419 237 521 237 l 342 237 l 342 0 l 57 0 l 57 1098 l 342 1098 l 342 893 m 342 705 l 342 426 l 363 426 q 418 445 403 426 q 433 526 433 465 l 433 615 q 416 688 433 670 q 342 705 398 705 z "},"þ":{"ha":721,"x_min":49,"x_max":680,"o":"m 323 1098 l 323 821 q 500 916 395 916 q 610 882 564 916 q 668 803 656 848 q 680 651 680 758 l 680 272 q 665 97 680 149 q 605 15 650 45 q 496 -16 560 -16 q 323 78 395 -16 l 323 -128 l 49 -128 l 49 1098 l 323 1098 m 406 638 q 399 739 406 722 q 366 757 393 757 q 331 736 338 757 q 323 638 323 716 l 323 265 q 331 163 323 184 q 366 143 339 143 q 399 162 393 143 q 406 252 406 180 l 406 638 z "},"−":{"ha":741,"x_min":43,"x_max":697,"o":"m 43 631 l 697 631 l 697 466 l 43 466 l 43 631 z "},"×":{"ha":741,"x_min":50,"x_max":690,"o":"m 50 761 l 167 878 l 370 675 l 573 878 l 690 761 l 488 557 l 689 357 l 572 239 l 371 441 l 169 240 l 52 357 l 254 557 l 50 761 z "},"¹":{"ha":340,"x_min":8,"x_max":298,"o":"m 298 1109 l 298 531 l 125 531 l 125 841 q 122 919 125 907 q 102 937 119 930 q 27 943 85 943 l 8 943 l 8 1018 q 197 1109 132 1040 l 298 1109 z "},"²":{"ha":441,"x_min":24,"x_max":416,"o":"m 401 636 l 401 531 l 24 531 l 24 618 q 223 902 194 851 q 253 982 253 953 q 217 1023 253 1023 q 189 1011 197 1023 q 180 964 180 1000 l 180 906 l 24 906 l 24 931 q 37 1028 24 991 q 94 1092 50 1065 q 210 1119 137 1119 q 364 1076 311 1119 q 416 966 416 1034 q 388 862 416 916 q 267 696 359 809 l 220 636 l 401 636 z "},"³":{"ha":453,"x_min":24,"x_max":429,"o":"m 361 857 q 410 821 391 847 q 429 706 429 794 q 373 555 429 591 q 228 519 317 519 q 99 543 146 519 q 39 602 53 567 q 24 717 24 636 l 24 755 l 197 755 l 197 669 q 202 624 197 633 q 224 616 207 616 q 250 627 244 616 q 256 691 256 639 l 256 728 q 237 785 256 773 q 153 797 219 796 l 153 888 q 241 897 227 888 q 256 945 256 905 l 256 978 q 248 1015 256 1008 q 227 1023 241 1023 q 203 1015 210 1023 q 197 974 197 1006 l 197 934 l 24 934 l 24 976 q 69 1090 24 1061 q 212 1119 113 1119 q 377 1079 332 1119 q 422 964 422 1039 q 411 903 422 932 q 361 857 400 874 z "},"½":{"ha":896,"x_min":8,"x_max":871,"o":"m 679 1119 l 250 -21 l 145 -21 l 576 1119 l 679 1119 m 298 1109 l 298 531 l 125 531 l 125 841 q 122 919 125 907 q 102 937 119 930 q 27 943 85 943 l 8 943 l 8 1018 q 197 1109 132 1040 l 298 1109 m 856 105 l 856 0 l 479 0 l 479 87 q 678 371 648 320 q 707 452 707 422 q 671 492 707 492 q 643 481 652 492 q 634 433 634 470 l 634 376 l 479 376 l 479 400 q 492 497 479 460 q 548 562 505 534 q 664 589 591 589 q 818 546 766 589 q 871 435 871 503 q 841 331 871 386 q 722 165 812 277 l 675 105 l 856 105 z "},"¼":{"ha":866,"x_min":8,"x_max":850,"o":"m 679 1119 l 250 -21 l 145 -21 l 576 1119 l 679 1119 m 298 1109 l 298 531 l 125 531 l 125 841 q 122 919 125 907 q 102 937 119 930 q 27 943 85 943 l 8 943 l 8 1018 q 197 1109 132 1040 l 298 1109 m 802 579 l 802 206 l 850 206 l 850 100 l 802 100 l 802 0 l 628 0 l 628 100 l 427 100 l 427 203 l 574 579 l 802 579 m 628 206 l 628 433 l 543 206 l 628 206 z "},"¾":{"ha":960,"x_min":24,"x_max":943,"o":"m 361 857 q 410 821 391 847 q 429 706 429 794 q 373 555 429 591 q 228 519 317 519 q 99 543 146 519 q 39 602 53 567 q 24 717 24 636 l 24 755 l 197 755 l 197 669 q 202 624 197 633 q 224 616 207 616 q 250 627 244 616 q 256 691 256 639 l 256 728 q 237 785 256 773 q 153 797 219 796 l 153 888 q 241 897 227 888 q 256 945 256 905 l 256 978 q 248 1015 256 1008 q 227 1023 241 1023 q 203 1015 210 1023 q 197 974 197 1006 l 197 934 l 24 934 l 24 976 q 69 1090 24 1061 q 212 1119 113 1119 q 377 1079 332 1119 q 422 964 422 1039 q 411 903 422 932 q 361 857 400 874 m 772 1119 l 344 -21 l 239 -21 l 669 1119 l 772 1119 m 895 579 l 895 206 l 943 206 l 943 100 l 895 100 l 895 0 l 722 0 l 722 100 l 520 100 l 520 203 l 668 579 l 895 579 m 722 206 l 722 433 l 636 206 l 722 206 z "},"Ğ":{"ha":766,"x_min":49,"x_max":712,"o":"m 712 694 l 427 694 l 427 793 q 418 911 427 888 q 380 935 410 935 q 344 915 353 935 q 334 810 334 895 l 334 283 q 344 186 334 210 q 382 163 353 163 q 424 189 413 163 q 435 292 435 216 l 435 422 l 378 422 l 378 589 l 712 589 l 712 0 l 532 0 l 506 79 q 432 2 477 28 q 328 -23 388 -23 q 193 12 256 -23 q 98 98 130 47 q 57 207 65 150 q 49 376 49 263 l 49 703 q 66 931 49 860 q 163 1062 83 1002 q 371 1121 243 1121 q 579 1069 496 1121 q 687 947 662 1018 q 712 741 712 876 l 712 694 m 460 1337 l 575 1337 q 521 1189 571 1245 q 382 1133 471 1133 q 244 1189 293 1133 q 191 1337 195 1246 l 306 1337 q 382 1244 314 1244 q 460 1337 452 1244 z "},"ğ":{"ha":720,"x_min":41,"x_max":671,"o":"m 671 900 l 671 207 q 665 25 671 66 q 619 -61 659 -16 q 510 -131 580 -107 q 333 -155 439 -155 q 123 -111 202 -155 q 41 64 43 -66 l 307 64 q 350 4 307 4 q 391 22 381 4 q 401 99 401 41 l 401 167 q 327 119 366 135 q 245 102 288 102 q 124 132 172 102 q 58 211 76 162 q 41 349 41 259 l 41 675 q 87 860 41 804 q 227 916 133 916 q 321 895 279 916 q 397 832 363 874 l 416 900 l 671 900 m 397 661 q 390 740 397 723 q 358 757 382 757 q 325 738 334 757 q 315 661 315 718 l 315 359 q 322 280 315 298 q 353 262 330 262 q 389 284 380 262 q 397 382 397 306 l 397 661 m 437 1165 l 552 1165 q 498 1017 548 1073 q 359 960 448 960 q 221 1017 270 960 q 168 1165 172 1074 l 283 1165 q 359 1072 291 1072 q 437 1165 429 1072 z "},"İ":{"ha":400,"x_min":57,"x_max":342,"o":"m 342 1098 l 342 0 l 57 0 l 57 1098 l 342 1098 m 288 1309 l 288 1133 l 111 1133 l 111 1309 l 288 1309 z "},"Ş":{"ha":718,"x_min":33,"x_max":686,"o":"m 383 -22 l 383 -35 q 450 -59 419 -35 q 481 -125 481 -83 q 439 -214 481 -176 q 339 -252 397 -252 q 204 -144 233 -252 l 304 -144 q 338 -173 313 -173 q 378 -132 378 -173 q 322 -87 378 -87 l 304 -87 l 304 -18 q 134 45 195 -3 q 58 159 73 94 q 42 321 42 223 l 42 393 l 307 393 l 307 260 q 318 180 307 198 q 358 163 330 163 q 414 252 414 163 q 388 378 414 349 q 254 478 361 408 q 113 581 148 549 q 56 669 79 612 q 33 812 33 725 q 65 997 33 939 q 170 1088 98 1055 q 343 1121 241 1121 q 533 1085 454 1121 q 636 995 611 1049 q 662 809 662 940 l 662 766 l 397 766 l 397 847 q 387 920 397 904 q 353 935 376 935 q 300 850 300 935 q 315 768 300 795 q 396 701 330 740 q 636 515 587 587 q 686 281 686 442 q 663 116 686 170 q 563 21 640 62 q 383 -22 487 -21 z "},"ş":{"ha":654,"x_min":28,"x_max":629,"o":"m 351 -16 l 351 -35 q 418 -59 387 -35 q 449 -125 449 -83 q 407 -214 449 -176 q 307 -252 366 -252 q 172 -144 201 -252 l 272 -144 q 307 -173 281 -173 q 347 -132 347 -173 q 290 -87 347 -87 l 272 -87 l 272 -12 q 141 29 194 -1 q 62 109 87 59 q 36 273 36 158 l 36 316 l 279 316 l 279 259 q 288 165 279 186 q 324 143 297 143 q 365 158 353 143 q 376 219 376 172 q 361 300 376 283 q 202 396 346 316 q 55 519 81 464 q 28 650 28 574 q 57 809 28 758 q 154 888 85 861 q 312 916 222 916 q 464 893 401 916 q 561 833 527 871 q 601 764 594 796 q 608 665 608 732 l 608 612 l 366 612 l 366 661 q 358 740 366 724 q 323 757 351 757 q 277 696 277 757 q 282 635 277 654 q 317 593 288 616 q 435 526 346 570 q 592 416 555 467 q 629 266 629 364 q 604 107 629 161 q 516 19 579 52 q 351 -16 454 -14 z "},"Ć":{"ha":769,"x_min":49,"x_max":724,"o":"m 724 619 l 438 619 l 438 810 q 429 915 438 894 q 389 935 420 935 q 344 910 353 935 q 334 802 334 885 l 334 292 q 344 187 334 212 q 387 163 353 163 q 428 187 418 163 q 438 302 438 212 l 438 439 l 724 439 l 724 397 q 700 155 724 227 q 593 31 675 84 q 390 -23 511 -23 q 183 22 264 -23 q 75 148 102 68 q 49 390 49 229 l 49 711 q 57 889 49 829 q 105 1003 65 948 q 217 1089 146 1058 q 382 1121 289 1121 q 590 1072 508 1121 q 698 950 672 1023 q 724 724 724 878 l 724 619 m 618 1316 l 395 1133 l 257 1133 l 376 1316 l 618 1316 z "},"ć":{"ha":687,"x_min":41,"x_max":654,"o":"m 654 560 l 396 560 l 396 664 q 387 738 396 718 q 355 757 378 757 q 323 740 331 757 q 315 664 315 723 l 315 239 q 327 167 315 191 q 363 143 339 143 q 400 168 391 143 q 410 263 410 193 l 410 370 l 654 370 q 647 209 654 262 q 601 98 640 155 q 501 13 563 41 q 349 -16 439 -16 q 165 23 233 -16 q 69 135 97 63 q 41 338 41 206 l 41 593 q 64 766 41 708 q 162 870 87 825 q 345 916 237 916 q 528 871 452 916 q 629 756 604 825 q 654 560 654 687 m 577 1144 l 354 960 l 216 960 l 336 1144 l 577 1144 z "},"Č":{"ha":769,"x_min":49,"x_max":724,"o":"m 724 619 l 438 619 l 438 810 q 429 915 438 894 q 389 935 420 935 q 344 910 353 935 q 334 802 334 885 l 334 292 q 344 187 334 212 q 387 163 353 163 q 428 187 418 163 q 438 302 438 212 l 438 439 l 724 439 l 724 397 q 700 155 724 227 q 593 31 675 84 q 390 -23 511 -23 q 183 22 264 -23 q 75 148 102 68 q 49 390 49 229 l 49 711 q 57 889 49 829 q 105 1003 65 948 q 217 1089 146 1058 q 382 1121 289 1121 q 590 1072 508 1121 q 698 950 672 1023 q 724 724 724 878 l 724 619 m 392 1235 l 467 1324 l 651 1324 l 488 1133 l 296 1133 l 122 1324 l 312 1324 l 392 1235 z "},"č":{"ha":687,"x_min":41,"x_max":654,"o":"m 654 560 l 396 560 l 396 664 q 387 738 396 718 q 355 757 378 757 q 323 740 331 757 q 315 664 315 723 l 315 239 q 327 167 315 191 q 363 143 339 143 q 400 168 391 143 q 410 263 410 193 l 410 370 l 654 370 q 647 209 654 262 q 601 98 640 155 q 501 13 563 41 q 349 -16 439 -16 q 165 23 233 -16 q 69 135 97 63 q 41 338 41 206 l 41 593 q 64 766 41 708 q 162 870 87 825 q 345 916 237 916 q 528 871 452 916 q 629 756 604 825 q 654 560 654 687 m 351 1063 l 427 1152 l 610 1152 l 447 960 l 256 960 l 81 1152 l 271 1152 l 351 1063 z "},"đ":{"ha":722,"x_min":41,"x_max":720,"o":"m 672 1065 l 720 1065 l 720 949 l 672 949 l 672 0 l 398 0 l 398 65 q 224 -16 319 -16 q 114 17 161 -16 q 54 95 67 51 q 41 239 41 139 l 41 660 q 54 807 41 764 q 115 883 67 850 q 228 916 162 916 q 398 843 329 916 l 398 949 l 228 949 l 228 1065 l 398 1065 l 398 1098 l 672 1098 l 672 1065 m 398 673 q 390 740 398 723 q 356 757 381 757 q 323 742 332 757 q 315 673 315 726 l 315 233 q 323 160 315 178 q 354 143 331 143 q 389 162 380 143 q 398 257 398 182 l 398 673 z "},"¯":{"ha":767,"x_min":-8,"x_max":775,"o":"m -8 1215 l 775 1215 l 775 1146 l -8 1146 l -8 1215 z "},"·":{"ha":463,"x_min":132,"x_max":331,"o":"m 231 572 q 301 544 271 572 q 331 473 331 515 q 302 403 331 432 q 231 374 273 374 q 161 403 191 374 q 132 473 132 432 q 161 544 132 515 q 231 572 191 572 z "},"⁴":{"ha":448,"x_min":8,"x_max":431,"o":"m 383 1109 l 383 736 l 431 736 l 431 631 l 383 631 l 383 531 l 210 531 l 210 631 l 8 631 l 8 734 l 156 1109 l 383 1109 m 210 736 l 210 964 l 124 736 l 210 736 z "},"Ā":{"ha":705,"x_min":-8,"x_max":713,"o":"m 550 1098 l 713 0 l 421 0 l 407 197 l 304 197 l 288 0 l -8 0 l 137 1098 l 550 1098 m 399 392 q 355 852 377 578 q 301 392 312 538 l 399 392 m 614 1250 l 614 1133 l 74 1133 l 74 1250 l 614 1250 z "},"ā":{"ha":700,"x_min":37,"x_max":654,"o":"m 294 551 l 37 551 l 37 612 q 61 773 37 716 q 157 873 85 829 q 346 916 230 916 q 555 867 485 916 q 640 746 626 818 q 654 452 654 675 l 654 0 l 388 0 l 388 80 q 323 8 363 32 q 229 -16 283 -16 q 97 24 157 -16 q 37 201 37 64 l 37 275 q 68 412 37 376 q 227 498 100 449 q 371 569 361 551 q 380 644 380 587 q 370 735 380 714 q 335 757 359 757 q 300 739 307 757 q 294 646 294 721 l 294 551 m 380 428 q 304 347 315 380 q 294 254 294 315 q 303 163 294 184 q 339 143 312 143 q 373 159 365 143 q 380 243 380 175 l 380 428 m 629 1078 l 629 960 l 89 960 l 89 1078 l 629 1078 z "},"Ă":{"ha":705,"x_min":-8,"x_max":713,"o":"m 550 1098 l 713 0 l 421 0 l 407 197 l 304 197 l 288 0 l -8 0 l 137 1098 l 550 1098 m 399 392 q 355 852 377 578 q 301 392 312 538 l 399 392 m 420 1337 l 536 1337 q 482 1189 532 1245 q 343 1133 432 1133 q 204 1189 254 1133 q 151 1337 155 1246 l 267 1337 q 343 1244 275 1244 q 420 1337 412 1244 z "},"ă":{"ha":700,"x_min":37,"x_max":654,"o":"m 294 551 l 37 551 l 37 612 q 61 773 37 716 q 157 873 85 829 q 346 916 230 916 q 555 867 485 916 q 640 746 626 818 q 654 452 654 675 l 654 0 l 388 0 l 388 80 q 323 8 363 32 q 229 -16 283 -16 q 97 24 157 -16 q 37 201 37 64 l 37 275 q 68 412 37 376 q 227 498 100 449 q 371 569 361 551 q 380 644 380 587 q 370 735 380 714 q 335 757 359 757 q 300 739 307 757 q 294 646 294 721 l 294 551 m 380 428 q 304 347 315 380 q 294 254 294 315 q 303 163 294 184 q 339 143 312 143 q 373 159 365 143 q 380 243 380 175 l 380 428 m 419 1165 l 534 1165 q 480 1017 530 1073 q 342 960 431 960 q 203 1017 252 960 q 150 1165 154 1074 l 265 1165 q 342 1072 273 1072 q 419 1165 411 1072 z "},"Ą":{"ha":705,"x_min":-8,"x_max":714,"o":"m 596 0 q 538 -92 538 -58 q 586 -135 538 -135 q 664 -117 620 -135 l 692 -184 q 574 -215 627 -215 q 475 -186 512 -215 q 439 -110 439 -157 q 496 0 439 -54 l 421 0 l 407 197 l 304 197 l 288 0 l -8 0 l 138 1099 l 550 1099 l 714 0 l 596 0 m 301 393 l 399 393 q 355 852 371 639 q 301 393 319 587 z "},"ą":{"ha":700,"x_min":37,"x_max":664,"o":"m 568 0 q 510 -92 510 -58 q 558 -135 510 -135 q 636 -117 592 -135 l 664 -184 q 546 -215 599 -215 q 448 -186 484 -215 q 411 -110 411 -157 q 468 0 411 -54 l 389 0 l 389 81 q 330 18 365 37 q 229 -1 295 -1 q 82 41 127 -1 q 37 201 37 83 l 37 275 q 64 408 37 372 q 191 484 92 444 q 352 552 321 535 q 382 643 382 569 q 373 729 382 702 q 339 757 363 757 q 306 745 317 757 q 294 686 294 733 l 294 551 l 37 551 l 37 611 q 53 750 37 698 q 113 840 68 802 q 204 885 159 878 q 347 893 250 893 q 493 882 435 893 q 585 843 551 871 q 635 763 619 814 q 653 653 650 711 q 656 452 656 595 l 656 0 l 568 0 m 382 199 l 382 428 q 310 356 326 385 q 294 237 294 327 q 306 160 294 178 q 340 143 318 143 q 382 199 382 143 z "},"Ĉ":{"ha":769,"x_min":49,"x_max":724,"o":"m 724 619 l 438 619 l 438 810 q 429 915 438 894 q 389 935 420 935 q 344 910 353 935 q 334 802 334 885 l 334 292 q 344 187 334 212 q 387 163 353 163 q 428 187 418 163 q 438 302 438 212 l 438 439 l 724 439 l 724 397 q 700 155 724 227 q 593 31 675 84 q 390 -23 511 -23 q 183 22 264 -23 q 75 148 102 68 q 49 390 49 229 l 49 711 q 57 889 49 829 q 105 1003 65 948 q 217 1089 146 1058 q 382 1121 289 1121 q 590 1072 508 1121 q 698 950 672 1023 q 724 724 724 878 l 724 619 m 382 1221 l 302 1133 l 113 1133 l 287 1324 l 478 1324 l 642 1133 l 458 1133 l 382 1221 z "},"ĉ":{"ha":687,"x_min":41,"x_max":654,"o":"m 654 560 l 396 560 l 396 664 q 387 738 396 718 q 355 757 378 757 q 323 740 331 757 q 315 664 315 723 l 315 239 q 327 167 315 191 q 363 143 339 143 q 400 168 391 143 q 410 263 410 193 l 410 370 l 654 370 q 647 209 654 262 q 601 98 640 155 q 501 13 563 41 q 349 -16 439 -16 q 165 23 233 -16 q 69 135 97 63 q 41 338 41 206 l 41 593 q 64 766 41 708 q 162 870 87 825 q 345 916 237 916 q 528 871 452 916 q 629 756 604 825 q 654 560 654 687 m 342 1049 l 262 960 l 72 960 l 246 1152 l 437 1152 l 601 960 l 417 960 l 342 1049 z "},"Ċ":{"ha":769,"x_min":49,"x_max":724,"o":"m 724 619 l 438 619 l 438 810 q 429 915 438 894 q 389 935 420 935 q 344 910 353 935 q 334 802 334 885 l 334 292 q 344 187 334 212 q 387 163 353 163 q 428 187 418 163 q 438 302 438 212 l 438 439 l 724 439 l 724 397 q 700 155 724 227 q 593 31 675 84 q 390 -23 511 -23 q 183 22 264 -23 q 75 148 102 68 q 49 390 49 229 l 49 711 q 57 889 49 829 q 105 1003 65 948 q 217 1089 146 1058 q 382 1121 289 1121 q 590 1072 508 1121 q 698 950 672 1023 q 724 724 724 878 l 724 619 m 462 1309 l 462 1133 l 285 1133 l 285 1309 l 462 1309 z "},"ċ":{"ha":687,"x_min":41,"x_max":654,"o":"m 654 560 l 396 560 l 396 664 q 387 738 396 718 q 355 757 378 757 q 323 740 331 757 q 315 664 315 723 l 315 239 q 327 167 315 191 q 363 143 339 143 q 400 168 391 143 q 410 263 410 193 l 410 370 l 654 370 q 647 209 654 262 q 601 98 640 155 q 501 13 563 41 q 349 -16 439 -16 q 165 23 233 -16 q 69 135 97 63 q 41 338 41 206 l 41 593 q 64 766 41 708 q 162 870 87 825 q 345 916 237 916 q 528 871 452 916 q 629 756 604 825 q 654 560 654 687 m 429 1137 l 429 960 l 252 960 l 252 1137 l 429 1137 z "},"Ď":{"ha":768,"x_min":57,"x_max":718,"o":"m 57 1098 l 271 1098 q 550 1079 477 1098 q 661 1017 623 1060 q 709 920 699 973 q 718 711 718 867 l 718 326 q 704 129 718 178 q 656 51 690 79 q 570 11 621 22 q 417 0 519 0 l 57 0 l 57 1098 m 342 910 l 342 188 q 418 213 404 188 q 433 347 433 237 l 433 774 q 428 869 433 848 q 406 900 423 890 q 342 910 389 910 m 375 1235 l 450 1324 l 634 1324 l 471 1133 l 279 1133 l 105 1324 l 295 1324 l 375 1235 z "},"ď":{"ha":917,"x_min":41,"x_max":917,"o":"m 672 1098 l 672 0 l 398 0 l 398 65 q 315 4 359 24 q 224 -16 272 -16 q 114 17 161 -16 q 54 95 67 51 q 41 239 41 139 l 41 660 q 54 807 41 764 q 115 883 67 850 q 228 916 162 916 q 321 898 279 916 q 398 843 363 880 l 398 1098 l 672 1098 m 398 673 q 390 740 398 723 q 356 757 381 757 q 323 742 332 757 q 315 673 315 726 l 315 233 q 323 160 315 178 q 354 143 331 143 q 389 162 380 143 q 398 257 398 182 l 398 673 m 732 1098 l 917 1098 l 917 1041 q 732 784 917 823 l 732 863 q 778 924 772 887 l 732 924 l 732 1098 z "},"Ē":{"ha":577,"x_min":29,"x_max":569,"o":"m 57 1098 l 533 1098 l 533 878 l 342 878 l 342 670 l 521 670 l 521 461 l 342 461 l 342 220 l 552 220 l 552 0 l 57 0 l 57 1098 m 569 1250 l 569 1133 l 29 1133 l 29 1250 l 569 1250 z "},"ē":{"ha":710,"x_min":41,"x_max":669,"o":"m 669 434 l 315 434 l 315 239 q 323 161 315 178 q 357 143 332 143 q 399 166 389 143 q 410 257 410 190 l 410 376 l 669 376 l 669 309 q 659 181 669 226 q 610 85 648 136 q 512 9 571 35 q 363 -16 452 -16 q 210 9 276 -16 q 106 78 143 34 q 55 174 69 121 q 41 327 41 227 l 41 589 q 73 775 41 707 q 177 880 104 844 q 344 916 250 916 q 534 872 459 916 q 639 756 609 829 q 669 553 669 684 l 669 434 m 395 581 l 395 646 q 387 736 395 716 q 357 757 380 757 q 321 740 328 757 q 315 646 315 722 l 315 581 l 395 581 m 626 1078 l 626 960 l 86 960 l 86 1078 l 626 1078 z "},"Ĕ":{"ha":577,"x_min":57,"x_max":552,"o":"m 57 1098 l 533 1098 l 533 878 l 342 878 l 342 670 l 521 670 l 521 461 l 342 461 l 342 220 l 552 220 l 552 0 l 57 0 l 57 1098 m 380 1337 l 496 1337 q 442 1189 492 1245 q 303 1133 392 1133 q 164 1189 214 1133 q 111 1337 115 1246 l 227 1337 q 303 1244 235 1244 q 380 1337 372 1244 z "},"ĕ":{"ha":710,"x_min":41,"x_max":669,"o":"m 669 434 l 315 434 l 315 239 q 323 161 315 178 q 357 143 332 143 q 399 166 389 143 q 410 257 410 190 l 410 376 l 669 376 l 669 309 q 659 181 669 226 q 610 85 648 136 q 512 9 571 35 q 363 -16 452 -16 q 210 9 276 -16 q 106 78 143 34 q 55 174 69 121 q 41 327 41 227 l 41 589 q 73 775 41 707 q 177 880 104 844 q 344 916 250 916 q 534 872 459 916 q 639 756 609 829 q 669 553 669 684 l 669 434 m 395 581 l 395 646 q 387 736 395 716 q 357 757 380 757 q 321 740 328 757 q 315 646 315 722 l 315 581 l 395 581 m 422 1165 l 537 1165 q 483 1017 533 1073 q 345 960 433 960 q 206 1017 255 960 q 153 1165 157 1074 l 268 1165 q 345 1072 276 1072 q 422 1165 414 1072 z "},"Ė":{"ha":577,"x_min":57,"x_max":552,"o":"m 57 1098 l 533 1098 l 533 878 l 342 878 l 342 670 l 521 670 l 521 461 l 342 461 l 342 220 l 552 220 l 552 0 l 57 0 l 57 1098 m 395 1309 l 395 1133 l 218 1133 l 218 1309 l 395 1309 z "},"ė":{"ha":710,"x_min":41,"x_max":669,"o":"m 669 434 l 315 434 l 315 239 q 323 161 315 178 q 357 143 332 143 q 399 166 389 143 q 410 257 410 190 l 410 376 l 669 376 l 669 309 q 659 181 669 226 q 610 85 648 136 q 512 9 571 35 q 363 -16 452 -16 q 210 9 276 -16 q 106 78 143 34 q 55 174 69 121 q 41 327 41 227 l 41 589 q 73 775 41 707 q 177 880 104 844 q 344 916 250 916 q 534 872 459 916 q 639 756 609 829 q 669 553 669 684 l 669 434 m 395 581 l 395 646 q 387 736 395 716 q 357 757 380 757 q 321 740 328 757 q 315 646 315 722 l 315 581 l 395 581 m 429 1137 l 429 960 l 252 960 l 252 1137 l 429 1137 z "},"Ę":{"ha":576,"x_min":57,"x_max":583,"o":"m 387 0 l 57 0 l 57 1099 l 533 1099 l 533 879 l 343 879 l 343 669 l 521 669 l 521 461 l 343 461 l 343 220 l 551 220 l 551 0 l 488 0 q 429 -92 429 -58 q 478 -135 429 -135 q 555 -117 511 -135 l 583 -184 q 465 -215 518 -215 q 367 -186 404 -215 q 330 -110 330 -157 q 387 0 330 -54 z "},"ę":{"ha":710,"x_min":40,"x_max":668,"o":"m 416 0 q 358 -92 358 -56 q 407 -135 358 -135 q 485 -117 441 -135 l 513 -184 q 395 -215 448 -215 q 296 -186 333 -215 q 260 -110 260 -157 q 317 0 260 -54 q 179 31 237 5 q 89 102 121 56 q 48 198 56 149 q 40 326 40 248 l 40 589 q 52 718 40 662 q 99 816 63 773 q 197 880 136 859 q 343 900 259 900 q 546 860 471 900 q 644 745 621 819 q 668 553 668 671 l 668 433 l 314 433 l 314 239 q 325 159 314 174 q 357 143 336 143 q 397 164 385 143 q 410 237 410 184 l 410 376 l 668 376 l 668 310 q 660 190 668 235 q 617 96 651 144 q 534 26 583 48 q 416 0 486 4 m 314 690 l 314 581 l 395 581 l 395 646 q 388 732 395 709 q 355 755 382 755 q 324 743 334 755 q 314 690 314 730 z "},"Ě":{"ha":577,"x_min":33,"x_max":562,"o":"m 57 1098 l 533 1098 l 533 878 l 342 878 l 342 670 l 521 670 l 521 461 l 342 461 l 342 220 l 552 220 l 552 0 l 57 0 l 57 1098 m 303 1235 l 378 1324 l 562 1324 l 399 1133 l 208 1133 l 33 1324 l 223 1324 l 303 1235 z "},"ě":{"ha":710,"x_min":41,"x_max":669,"o":"m 669 434 l 315 434 l 315 239 q 323 161 315 178 q 357 143 332 143 q 399 166 389 143 q 410 257 410 190 l 410 376 l 669 376 l 669 309 q 659 181 669 226 q 610 85 648 136 q 512 9 571 35 q 363 -16 452 -16 q 210 9 276 -16 q 106 78 143 34 q 55 174 69 121 q 41 327 41 227 l 41 589 q 73 775 41 707 q 177 880 104 844 q 344 916 250 916 q 534 872 459 916 q 639 756 609 829 q 669 553 669 684 l 669 434 m 395 581 l 395 646 q 387 736 395 716 q 357 757 380 757 q 321 740 328 757 q 315 646 315 722 l 315 581 l 395 581 m 345 1063 l 420 1152 l 604 1152 l 441 960 l 250 960 l 75 1152 l 265 1152 l 345 1063 z "},"Ĝ":{"ha":766,"x_min":49,"x_max":712,"o":"m 712 692 l 427 692 l 427 792 q 418 910 427 886 q 380 934 410 934 q 344 913 353 934 q 334 809 334 893 l 334 282 q 344 185 334 208 q 382 161 353 161 q 424 188 413 161 q 435 291 435 214 l 435 421 l 378 421 l 378 588 l 712 588 l 712 -1 l 532 -1 l 506 77 q 432 1 477 26 q 328 -24 388 -24 q 193 11 256 -24 q 98 97 130 45 q 57 205 65 149 q 49 375 49 262 l 49 701 q 66 930 49 859 q 163 1060 83 1001 q 371 1120 243 1120 q 579 1068 496 1120 q 687 946 662 1017 q 712 740 712 875 l 712 692 m 385 1221 l 305 1133 l 115 1133 l 290 1324 l 481 1324 l 644 1133 l 460 1133 l 385 1221 z "},"ĝ":{"ha":720,"x_min":41,"x_max":671,"o":"m 671 900 l 671 207 q 665 25 671 66 q 619 -61 659 -16 q 510 -131 580 -107 q 333 -155 439 -155 q 123 -111 202 -155 q 41 64 43 -66 l 307 64 q 350 4 307 4 q 391 22 381 4 q 401 99 401 41 l 401 167 q 327 119 366 135 q 245 102 288 102 q 124 132 172 102 q 58 211 76 162 q 41 349 41 259 l 41 675 q 87 860 41 804 q 227 916 133 916 q 321 895 279 916 q 397 832 363 874 l 416 900 l 671 900 m 397 661 q 390 740 397 723 q 358 757 382 757 q 325 738 334 757 q 315 661 315 718 l 315 359 q 322 280 315 298 q 353 262 330 262 q 389 284 380 262 q 397 382 397 306 l 397 661 m 376 1049 l 296 960 l 106 960 l 280 1152 l 471 1152 l 635 960 l 451 960 l 376 1049 z "},"Ġ":{"ha":766,"x_min":49,"x_max":712,"o":"m 712 692 l 427 692 l 427 792 q 418 910 427 886 q 380 934 410 934 q 344 913 353 934 q 334 809 334 893 l 334 282 q 344 185 334 208 q 382 161 353 161 q 424 188 413 161 q 435 291 435 214 l 435 421 l 378 421 l 378 588 l 712 588 l 712 -1 l 532 -1 l 506 77 q 432 1 477 26 q 328 -24 388 -24 q 193 11 256 -24 q 98 97 130 45 q 57 205 65 149 q 49 375 49 262 l 49 701 q 66 930 49 859 q 163 1060 83 1001 q 371 1120 243 1120 q 579 1068 496 1120 q 687 946 662 1017 q 712 740 712 875 l 712 692 m 471 1309 l 471 1133 l 294 1133 l 294 1309 l 471 1309 z "},"ġ":{"ha":720,"x_min":41,"x_max":671,"o":"m 671 900 l 671 207 q 665 25 671 66 q 619 -61 659 -16 q 510 -131 580 -107 q 333 -155 439 -155 q 123 -111 202 -155 q 41 64 43 -66 l 307 64 q 350 4 307 4 q 391 22 381 4 q 401 99 401 41 l 401 167 q 327 119 366 135 q 245 102 288 102 q 124 132 172 102 q 58 211 76 162 q 41 349 41 259 l 41 675 q 87 860 41 804 q 227 916 133 916 q 321 895 279 916 q 397 832 363 874 l 416 900 l 671 900 m 397 661 q 390 740 397 723 q 358 757 382 757 q 325 738 334 757 q 315 661 315 718 l 315 359 q 322 280 315 298 q 353 262 330 262 q 389 284 380 262 q 397 382 397 306 l 397 661 m 463 1137 l 463 960 l 286 960 l 286 1137 l 463 1137 z "},"Ģ":{"ha":766,"x_min":49,"x_max":712,"o":"m 712 694 l 427 694 l 427 793 q 418 911 427 888 q 380 935 410 935 q 344 915 353 935 q 334 810 334 895 l 334 283 q 344 186 334 210 q 382 163 353 163 q 424 189 413 163 q 435 292 435 216 l 435 422 l 378 422 l 378 589 l 712 589 l 712 0 l 532 0 l 506 79 q 432 2 477 28 q 328 -23 388 -23 q 193 12 256 -23 q 98 98 130 47 q 57 207 65 150 q 49 376 49 263 l 49 703 q 66 931 49 860 q 163 1062 83 1002 q 371 1121 243 1121 q 579 1069 496 1121 q 687 947 662 1018 q 712 741 712 876 l 712 694 m 290 -54 l 475 -54 l 475 -111 q 290 -368 475 -330 l 290 -289 q 336 -228 330 -265 l 290 -228 l 290 -54 z "},"ģ":{"ha":720,"x_min":41,"x_max":671,"o":"m 671 900 l 671 207 q 665 25 671 66 q 619 -61 659 -16 q 510 -131 580 -107 q 333 -155 439 -155 q 123 -111 202 -155 q 41 64 43 -66 l 307 64 q 350 4 307 4 q 391 22 381 4 q 401 99 401 41 l 401 167 q 327 119 366 135 q 245 102 288 102 q 124 132 172 102 q 58 211 76 162 q 41 349 41 259 l 41 675 q 87 860 41 804 q 227 916 133 916 q 321 895 279 916 q 397 832 363 874 l 416 900 l 671 900 m 397 661 q 390 740 397 723 q 358 757 382 757 q 325 738 334 757 q 315 661 315 718 l 315 359 q 322 280 315 298 q 353 262 330 262 q 389 284 380 262 q 397 382 397 306 l 397 661 m 273 960 l 273 1059 q 291 1185 273 1136 q 355 1270 310 1235 q 456 1316 400 1304 l 456 1237 q 411 1175 416 1214 l 456 1175 l 456 960 l 273 960 z "},"Ĥ":{"ha":771,"x_min":57,"x_max":713,"o":"m 713 1098 l 713 0 l 428 0 l 428 461 l 342 461 l 342 0 l 57 0 l 57 1098 l 342 1098 l 342 705 l 428 705 l 428 1098 l 713 1098 m 387 1221 l 307 1133 l 117 1133 l 291 1324 l 482 1324 l 646 1133 l 462 1133 l 387 1221 z "},"ĥ":{"ha":728,"x_min":49,"x_max":682,"o":"m 323 1098 l 323 851 q 399 900 358 884 q 487 916 440 916 q 609 880 559 916 q 671 795 660 843 q 682 621 682 747 l 682 0 l 408 0 l 408 633 q 400 734 408 712 q 366 757 393 757 q 332 734 340 757 q 323 642 323 711 l 323 0 l 49 0 l 49 1098 l 323 1098 m 373 1221 l 293 1133 l 103 1133 l 277 1324 l 469 1324 l 632 1133 l 448 1133 l 373 1221 z "},"Ħ":{"ha":771,"x_min":9,"x_max":760,"o":"m 57 951 l 57 1099 l 343 1099 l 343 951 l 428 951 l 428 1099 l 714 1099 l 714 951 l 760 951 l 760 835 l 714 835 l 714 0 l 428 0 l 428 461 l 343 461 l 343 0 l 57 0 l 57 835 l 9 835 l 9 951 l 57 951 m 343 835 l 343 705 l 428 705 l 428 835 l 343 835 z "},"ħ":{"ha":728,"x_min":0,"x_max":682,"o":"m 49 1057 l 49 1099 l 322 1099 l 322 1057 l 386 1057 l 386 940 l 322 940 l 322 851 q 486 900 374 900 q 612 872 564 900 q 671 791 661 844 q 682 621 682 739 l 682 0 l 408 0 l 408 633 q 401 730 408 705 q 366 755 395 755 q 332 733 341 755 q 322 643 322 711 l 322 0 l 49 0 l 49 940 l 0 940 l 0 1057 l 49 1057 z "},"Ĩ":{"ha":400,"x_min":-85,"x_max":488,"o":"m 342 1098 l 342 0 l 57 0 l 57 1098 l 342 1098 m 488 1261 q 411 1166 456 1193 q 331 1139 366 1139 q 227 1161 283 1139 l 177 1181 q 105 1200 129 1200 q 22 1133 55 1200 l -85 1204 q 83 1335 -10 1335 q 190 1314 132 1335 l 232 1298 q 304 1278 285 1278 q 378 1339 360 1278 l 488 1261 z "},"ĩ":{"ha":380,"x_min":-96,"x_max":477,"o":"m 331 900 l 331 0 l 49 0 l 49 900 l 331 900 m 477 1089 q 400 994 446 1021 q 320 966 355 966 q 216 989 272 966 l 166 1008 q 94 1028 118 1028 q 12 960 44 1028 l -96 1031 q 73 1163 -21 1163 q 179 1141 121 1163 l 221 1126 q 293 1106 274 1106 q 368 1167 349 1106 l 477 1089 z "},"Ī":{"ha":400,"x_min":-69,"x_max":471,"o":"m 342 1098 l 342 0 l 57 0 l 57 1098 l 342 1098 m 471 1250 l 471 1133 l -69 1133 l -69 1250 l 471 1250 z "},"ī":{"ha":380,"x_min":-79,"x_max":460,"o":"m 331 900 l 331 0 l 49 0 l 49 900 l 331 900 m 460 1078 l 460 960 l -79 960 l -79 1078 l 460 1078 z "},"Ĭ":{"ha":400,"x_min":4,"x_max":389,"o":"m 342 1098 l 342 0 l 57 0 l 57 1098 l 342 1098 m 273 1337 l 389 1337 q 335 1189 385 1245 q 196 1133 285 1133 q 57 1189 106 1133 q 4 1337 8 1246 l 119 1337 q 196 1244 127 1244 q 273 1337 265 1244 z "},"ĭ":{"ha":380,"x_min":-1,"x_max":383,"o":"m 331 900 l 331 0 l 49 0 l 49 900 l 331 900 m 268 1165 l 383 1165 q 329 1017 379 1073 q 191 960 279 960 q 52 1017 101 960 q -1 1165 3 1074 l 114 1165 q 191 1072 122 1072 q 268 1165 260 1072 z "},"Į":{"ha":400,"x_min":57,"x_max":358,"o":"m 163 0 l 57 0 l 57 1099 l 343 1099 l 343 0 l 262 0 q 204 -92 204 -58 q 253 -135 204 -135 q 330 -117 287 -135 l 358 -184 q 240 -215 293 -215 q 142 -186 178 -215 q 106 -110 106 -157 q 163 0 106 -54 z "},"į":{"ha":380,"x_min":49,"x_max":345,"o":"m 149 0 l 49 0 l 49 900 l 330 900 l 330 0 l 249 0 q 191 -92 191 -58 q 239 -135 191 -135 q 317 -117 273 -135 l 345 -184 q 227 -215 279 -215 q 128 -186 165 -215 q 92 -110 92 -157 q 149 0 92 -54 z "},"Ĳ":{"ha":869,"x_min":57,"x_max":812,"o":"m 57 0 l 57 1099 l 343 1099 l 343 0 l 57 0 m 526 279 l 526 1099 l 812 1099 l 812 244 q 763 47 812 94 q 561 0 713 0 l 418 0 l 418 192 l 456 191 q 509 210 492 191 q 526 279 526 230 z "},"ĳ":{"ha":768,"x_min":49,"x_max":720,"o":"m 49 957 l 49 1099 l 330 1099 l 330 957 l 49 957 m 437 957 l 437 1099 l 720 1099 l 720 957 l 437 957 m 49 0 l 49 900 l 330 900 l 330 0 l 49 0 m 437 106 l 437 900 l 720 900 l 720 103 q 666 -79 720 -31 q 482 -126 613 -126 l 376 -126 l 376 18 q 424 22 414 18 q 435 41 433 25 q 437 106 437 56 z "},"Ĵ":{"ha":460,"x_min":-11,"x_max":518,"o":"m 406 1098 l 406 364 q 403 152 406 199 q 372 67 399 105 q 297 15 345 29 q 155 0 250 0 l 12 0 l 12 192 q 50 190 38 190 q 98 205 80 190 q 118 241 115 220 q 121 326 121 263 l 121 1098 l 406 1098 m 259 1221 l 179 1133 l -11 1133 l 163 1324 l 355 1324 l 518 1133 l 334 1133 l 259 1221 z "},"ĵ":{"ha":389,"x_min":-75,"x_max":454,"o":"m 269 1018 l 195 1107 l 115 1018 l -75 1018 l 100 1210 l 290 1210 l 454 1018 l 269 1018 m 57 106 l 57 900 l 339 900 l 339 103 q 286 -79 339 -31 q 102 -126 233 -126 l -4 -126 l -4 18 q 43 22 34 18 q 55 41 52 25 q 57 106 57 56 z "},"Ķ":{"ha":745,"x_min":57,"x_max":753,"o":"m 737 1098 l 574 602 l 753 0 l 458 0 l 342 471 l 342 0 l 57 0 l 57 1098 l 342 1098 l 342 671 l 469 1098 l 737 1098 m 311 -54 l 496 -54 l 496 -111 q 311 -368 496 -330 l 311 -289 q 357 -228 351 -265 l 311 -228 l 311 -54 z "},"ķ":{"ha":664,"x_min":49,"x_max":672,"o":"m 639 900 l 528 541 l 672 0 l 408 0 l 323 392 l 323 0 l 49 0 l 49 1098 l 323 1098 l 323 637 l 408 900 l 639 900 m 269 -54 l 454 -54 l 454 -111 q 269 -368 454 -330 l 269 -289 q 315 -228 309 -265 l 269 -228 l 269 -54 z "},"ĸ":{"ha":718,"x_min":49,"x_max":721,"o":"m 322 554 l 469 900 l 707 900 l 538 507 l 721 0 l 454 0 l 322 397 l 322 0 l 49 0 l 49 900 l 322 900 l 322 554 z "},"Ĺ":{"ha":528,"x_min":57,"x_max":516,"o":"m 342 1098 l 342 220 l 516 220 l 516 0 l 57 0 l 57 1098 l 342 1098 m 469 1316 l 246 1133 l 109 1133 l 228 1316 l 469 1316 z "},"ĺ":{"ha":380,"x_min":49,"x_max":425,"o":"m 331 1098 l 331 0 l 49 0 l 49 1098 l 331 1098 m 425 1316 l 201 1133 l 64 1133 l 183 1316 l 425 1316 z "},"Ļ":{"ha":528,"x_min":57,"x_max":516,"o":"m 342 1098 l 342 220 l 516 220 l 516 0 l 57 0 l 57 1098 l 342 1098 m 215 -54 l 399 -54 l 399 -111 q 215 -368 399 -330 l 215 -289 q 260 -228 254 -265 l 215 -228 l 215 -54 z "},"ļ":{"ha":380,"x_min":49,"x_max":331,"o":"m 331 1098 l 331 0 l 49 0 l 49 1098 l 331 1098 m 98 -54 l 282 -54 l 282 -111 q 98 -368 282 -330 l 98 -289 q 143 -228 137 -265 l 98 -228 l 98 -54 z "},"Ľ":{"ha":600,"x_min":57,"x_max":589,"o":"m 342 1098 l 342 220 l 516 220 l 516 0 l 57 0 l 57 1098 l 342 1098 m 404 1099 l 589 1099 l 589 1042 q 404 785 589 823 l 404 864 q 450 925 444 888 l 404 925 l 404 1099 z "},"ľ":{"ha":596,"x_min":49,"x_max":582,"o":"m 331 1098 l 331 0 l 49 0 l 49 1098 l 331 1098 m 397 1099 l 582 1099 l 582 1042 q 397 785 582 823 l 397 864 q 443 925 437 888 l 397 925 l 397 1099 z "},"Ŀ":{"ha":591,"x_min":57,"x_max":566,"o":"m 342 1098 l 342 220 l 516 220 l 516 0 l 57 0 l 57 1098 l 342 1098 m 566 833 l 566 656 l 389 656 l 389 833 l 566 833 z "},"ŀ":{"ha":591,"x_min":49,"x_max":566,"o":"m 331 1098 l 331 0 l 49 0 l 49 1098 l 331 1098 m 566 833 l 566 656 l 389 656 l 389 833 l 566 833 z "},"Ń":{"ha":752,"x_min":57,"x_max":694,"o":"m 694 1098 l 694 0 l 444 0 l 296 499 l 296 0 l 57 0 l 57 1098 l 296 1098 l 456 604 l 456 1098 l 694 1098 m 594 1316 l 371 1133 l 233 1133 l 353 1316 l 594 1316 z "},"ń":{"ha":726,"x_min":49,"x_max":681,"o":"m 328 900 l 323 817 q 396 891 353 867 q 495 916 439 916 q 610 883 566 916 q 668 799 655 850 q 681 631 681 749 l 681 0 l 407 0 l 407 623 q 401 736 407 716 q 367 757 395 757 q 330 733 338 757 q 323 608 323 710 l 323 0 l 49 0 l 49 900 l 328 900 m 561 1144 l 338 960 l 200 960 l 319 1144 l 561 1144 z "},"Ņ":{"ha":752,"x_min":57,"x_max":694,"o":"m 694 1098 l 694 0 l 444 0 l 296 499 l 296 0 l 57 0 l 57 1098 l 296 1098 l 456 604 l 456 1098 l 694 1098 m 283 -54 l 468 -54 l 468 -111 q 283 -368 468 -330 l 283 -289 q 329 -228 323 -265 l 283 -228 l 283 -54 z "},"ņ":{"ha":726,"x_min":49,"x_max":681,"o":"m 328 900 l 323 817 q 396 891 353 867 q 495 916 439 916 q 610 883 566 916 q 668 799 655 850 q 681 631 681 749 l 681 0 l 407 0 l 407 623 q 401 736 407 716 q 367 757 395 757 q 330 733 338 757 q 323 608 323 710 l 323 0 l 49 0 l 49 900 l 328 900 m 271 -54 l 455 -54 l 455 -111 q 271 -368 455 -330 l 271 -289 q 316 -228 310 -265 l 271 -228 l 271 -54 z "},"Ň":{"ha":752,"x_min":57,"x_max":694,"o":"m 694 1098 l 694 0 l 444 0 l 296 499 l 296 0 l 57 0 l 57 1098 l 296 1098 l 456 604 l 456 1098 l 694 1098 m 366 1235 l 441 1324 l 625 1324 l 461 1133 l 270 1133 l 96 1324 l 286 1324 l 366 1235 z "},"ň":{"ha":726,"x_min":49,"x_max":681,"o":"m 328 900 l 323 817 q 396 891 353 867 q 495 916 439 916 q 610 883 566 916 q 668 799 655 850 q 681 631 681 749 l 681 0 l 407 0 l 407 623 q 401 736 407 716 q 367 757 395 757 q 330 733 338 757 q 323 608 323 710 l 323 0 l 49 0 l 49 900 l 328 900 m 359 1063 l 434 1152 l 618 1152 l 454 960 l 263 960 l 89 1152 l 279 1152 l 359 1063 z "},"ŉ":{"ha":909,"x_min":7,"x_max":861,"o":"m 508 896 l 503 813 q 576 887 533 863 q 675 912 619 912 q 791 879 746 912 q 848 795 836 846 q 861 627 861 745 l 861 -4 l 587 -4 l 587 619 q 581 732 587 712 q 547 753 575 753 q 511 729 518 753 q 503 604 503 706 l 503 -4 l 229 -4 l 229 896 l 508 896 m 7 1099 l 191 1099 l 191 1042 q 7 785 191 823 l 7 864 q 52 925 46 888 l 7 925 l 7 1099 z "},"Ŋ":{"ha":768,"x_min":57,"x_max":715,"o":"m 464 0 l 396 0 l 396 144 q 422 162 416 145 q 429 232 429 178 l 429 815 q 422 910 429 884 q 385 936 415 936 q 355 920 367 936 q 343 889 343 904 l 343 0 l 57 0 l 57 1099 l 343 1099 l 343 1042 q 397 1078 357 1061 q 473 1096 437 1096 q 622 1051 576 1096 q 691 944 667 1006 q 715 643 715 882 l 715 456 q 708 233 715 304 q 667 106 701 161 q 580 26 633 52 q 464 0 527 0 z "},"ŋ":{"ha":726,"x_min":49,"x_max":681,"o":"m 453 -171 l 347 -171 l 347 -26 q 398 -21 389 -26 q 407 61 407 -16 l 407 624 q 401 734 407 712 q 367 757 396 757 q 329 729 335 757 q 322 608 322 701 l 322 0 l 49 0 l 49 900 l 328 900 l 322 817 q 494 908 380 908 q 584 896 548 908 q 644 848 619 884 q 675 768 669 813 q 681 631 681 722 l 681 62 q 453 -171 681 -171 z "},"Ō":{"ha":759,"x_min":49,"x_max":709,"o":"m 709 453 q 702 219 709 288 q 653 93 694 150 q 542 5 612 36 q 379 -25 472 -25 q 221 4 291 -25 q 108 90 151 33 q 57 216 65 148 q 49 453 49 283 l 49 641 q 57 875 49 806 q 105 1001 64 944 q 216 1088 146 1058 q 379 1119 286 1119 q 537 1090 467 1119 q 650 1004 608 1061 q 701 878 693 946 q 709 641 709 810 l 709 453 m 424 814 q 415 912 424 890 q 380 933 407 933 q 346 916 358 933 q 334 814 334 899 l 334 301 q 342 183 334 205 q 378 161 350 161 q 416 186 408 161 q 424 309 424 212 l 424 814 m 646 1250 l 646 1133 l 106 1133 l 106 1250 l 646 1250 z "},"ō":{"ha":710,"x_min":41,"x_max":669,"o":"m 669 584 l 669 363 q 656 185 669 242 q 604 80 644 129 q 502 7 564 31 q 357 -16 439 -16 q 203 4 267 -16 q 105 64 140 24 q 56 162 71 104 q 41 334 41 219 l 41 564 q 68 760 41 690 q 165 873 95 831 q 346 916 236 916 q 504 889 438 916 q 606 817 570 861 q 655 726 642 773 q 669 584 669 680 m 395 652 q 387 739 395 721 q 355 757 380 757 q 323 739 331 757 q 315 652 315 721 l 315 245 q 323 162 315 182 q 355 143 331 143 q 387 161 379 143 q 395 237 395 178 l 395 652 m 623 1078 l 623 960 l 83 960 l 83 1078 l 623 1078 z "},"Ŏ":{"ha":759,"x_min":49,"x_max":709,"o":"m 709 453 q 702 219 709 288 q 653 93 694 150 q 542 5 612 36 q 379 -25 472 -25 q 221 4 291 -25 q 108 90 151 33 q 57 216 65 148 q 49 453 49 283 l 49 641 q 57 875 49 806 q 105 1001 64 944 q 216 1088 146 1058 q 379 1119 286 1119 q 537 1090 467 1119 q 650 1004 608 1061 q 701 878 693 946 q 709 641 709 810 l 709 453 m 424 814 q 415 912 424 890 q 380 933 407 933 q 346 916 358 933 q 334 814 334 899 l 334 301 q 342 183 334 205 q 378 161 350 161 q 416 186 408 161 q 424 309 424 212 l 424 814 m 452 1337 l 568 1337 q 514 1189 564 1245 q 375 1133 464 1133 q 236 1189 286 1133 q 183 1337 187 1246 l 298 1337 q 375 1244 307 1244 q 452 1337 444 1244 z "},"ŏ":{"ha":710,"x_min":41,"x_max":669,"o":"m 669 584 l 669 363 q 656 185 669 242 q 604 80 644 129 q 502 7 564 31 q 357 -16 439 -16 q 203 4 267 -16 q 105 64 140 24 q 56 162 71 104 q 41 334 41 219 l 41 564 q 68 760 41 690 q 165 873 95 831 q 346 916 236 916 q 504 889 438 916 q 606 817 570 861 q 655 726 642 773 q 669 584 669 680 m 395 652 q 387 739 395 721 q 355 757 380 757 q 323 739 331 757 q 315 652 315 721 l 315 245 q 323 162 315 182 q 355 143 331 143 q 387 161 379 143 q 395 237 395 178 l 395 652 m 425 1165 l 540 1165 q 486 1017 536 1073 q 347 960 436 960 q 209 1017 258 960 q 155 1165 159 1074 l 271 1165 q 347 1072 279 1072 q 425 1165 416 1072 z "},"Ő":{"ha":759,"x_min":49,"x_max":709,"o":"m 709 453 q 702 219 709 288 q 653 93 694 150 q 542 5 612 36 q 379 -25 472 -25 q 221 4 291 -25 q 108 90 151 33 q 57 216 65 148 q 49 453 49 283 l 49 641 q 57 875 49 806 q 105 1001 64 944 q 216 1088 146 1058 q 379 1119 286 1119 q 537 1090 467 1119 q 650 1004 608 1061 q 701 878 693 946 q 709 641 709 810 l 709 453 m 424 814 q 415 912 424 890 q 380 933 407 933 q 346 916 358 933 q 334 814 334 899 l 334 301 q 342 183 334 205 q 378 161 350 161 q 416 186 408 161 q 424 309 424 212 l 424 814 m 420 1343 l 256 1133 l 155 1133 l 235 1343 l 420 1343 m 684 1343 l 521 1133 l 420 1133 l 500 1343 l 684 1343 z "},"ő":{"ha":710,"x_min":41,"x_max":669,"o":"m 669 584 l 669 363 q 656 185 669 242 q 604 80 644 129 q 502 7 564 31 q 357 -16 439 -16 q 203 4 267 -16 q 105 64 140 24 q 56 162 71 104 q 41 334 41 219 l 41 564 q 68 760 41 690 q 165 873 95 831 q 346 916 236 916 q 504 889 438 916 q 606 817 570 861 q 655 726 642 773 q 669 584 669 680 m 395 652 q 387 739 395 721 q 355 757 380 757 q 323 739 331 757 q 315 652 315 721 l 315 245 q 323 162 315 182 q 355 143 331 143 q 387 161 379 143 q 395 237 395 178 l 395 652 m 392 1171 l 229 960 l 127 960 l 208 1171 l 392 1171 m 656 1171 l 493 960 l 392 960 l 472 1171 l 656 1171 z "},"Ŕ":{"ha":748,"x_min":57,"x_max":694,"o":"m 57 1098 l 259 1098 q 533 1082 461 1098 q 649 1003 604 1067 q 694 798 694 939 q 663 626 694 670 q 537 573 631 582 q 651 517 622 552 q 687 452 680 481 q 694 290 694 422 l 694 0 l 429 0 l 429 365 q 415 474 429 453 q 342 495 401 495 l 342 0 l 57 0 l 57 1098 m 342 910 l 342 666 q 410 679 391 666 q 429 765 429 692 l 429 825 q 411 894 429 878 q 342 910 392 910 m 574 1406 l 351 1222 l 214 1222 l 333 1406 l 574 1406 z "},"ŕ":{"ha":497,"x_min":49,"x_max":485,"o":"m 323 900 l 312 782 q 485 916 372 909 l 485 600 q 374 579 410 600 q 331 523 339 559 q 323 355 323 486 l 323 0 l 49 0 l 49 900 l 323 900 m 464 1202 l 241 1018 l 103 1018 l 222 1202 l 464 1202 z "},"Ŗ":{"ha":748,"x_min":57,"x_max":694,"o":"m 57 1098 l 259 1098 q 533 1082 461 1098 q 649 1003 604 1067 q 694 798 694 939 q 663 626 694 670 q 537 573 631 582 q 651 517 622 552 q 687 452 680 481 q 694 290 694 422 l 694 0 l 429 0 l 429 365 q 415 474 429 453 q 342 495 401 495 l 342 0 l 57 0 l 57 1098 m 342 910 l 342 666 q 410 679 391 666 q 429 765 429 692 l 429 825 q 411 894 429 878 q 342 910 392 910 m 281 -54 l 466 -54 l 466 -111 q 281 -368 466 -330 l 281 -289 q 327 -228 321 -265 l 281 -228 l 281 -54 z "},"ŗ":{"ha":497,"x_min":49,"x_max":485,"o":"m 323 900 l 312 782 q 485 916 372 909 l 485 600 q 374 579 410 600 q 331 523 339 559 q 323 355 323 486 l 323 0 l 49 0 l 49 900 l 323 900 m 94 -54 l 279 -54 l 279 -111 q 94 -368 279 -330 l 94 -289 q 140 -228 134 -265 l 94 -228 l 94 -54 z "},"Ř":{"ha":748,"x_min":57,"x_max":694,"o":"m 57 1098 l 259 1098 q 533 1082 461 1098 q 649 1003 604 1067 q 694 798 694 939 q 663 626 694 670 q 537 573 631 582 q 651 517 622 552 q 687 452 680 481 q 694 290 694 422 l 694 0 l 429 0 l 429 365 q 415 474 429 453 q 342 495 401 495 l 342 0 l 57 0 l 57 1098 m 342 910 l 342 666 q 410 679 391 666 q 429 765 429 692 l 429 825 q 411 894 429 878 q 342 910 392 910 m 356 1235 l 431 1324 l 615 1324 l 452 1133 l 260 1133 l 86 1324 l 276 1324 l 356 1235 z "},"ř":{"ha":497,"x_min":-20,"x_max":509,"o":"m 323 900 l 312 782 q 485 916 372 909 l 485 600 q 374 579 410 600 q 331 523 339 559 q 323 355 323 486 l 323 0 l 49 0 l 49 900 l 323 900 m 250 1063 l 326 1152 l 509 1152 l 346 960 l 155 960 l -20 1152 l 170 1152 l 250 1063 z "},"Ś":{"ha":718,"x_min":33,"x_max":686,"o":"m 662 764 l 397 764 l 397 845 q 387 918 397 902 q 353 933 376 933 q 314 912 327 933 q 300 848 300 891 q 315 766 300 793 q 396 699 330 738 q 636 513 587 585 q 686 279 686 440 q 658 106 686 161 q 552 13 631 50 q 369 -25 473 -25 q 173 18 254 -25 q 67 129 92 62 q 42 319 42 196 l 42 391 l 307 391 l 307 258 q 318 178 307 196 q 358 161 330 161 q 400 183 387 161 q 414 250 414 205 q 388 376 414 347 q 254 476 361 406 q 113 578 148 547 q 56 667 79 610 q 33 810 33 723 q 65 995 33 937 q 170 1086 98 1053 q 343 1119 241 1119 q 533 1083 454 1119 q 636 992 611 1047 q 662 807 662 938 l 662 764 m 577 1316 l 354 1133 l 216 1133 l 336 1316 l 577 1316 z "},"ś":{"ha":654,"x_min":28,"x_max":629,"o":"m 608 612 l 366 612 l 366 661 q 358 740 366 724 q 323 757 351 757 q 288 742 300 757 q 277 696 277 726 q 282 635 277 654 q 317 593 288 616 q 435 526 346 570 q 592 416 555 467 q 629 266 629 364 q 601 100 629 156 q 506 14 572 44 q 345 -16 439 -16 q 166 16 240 -16 q 64 104 92 49 q 36 273 36 160 l 36 316 l 279 316 l 279 259 q 288 165 279 186 q 324 143 297 143 q 365 158 353 143 q 376 219 376 172 q 361 300 376 283 q 202 396 346 316 q 55 519 81 464 q 28 650 28 574 q 57 809 28 758 q 154 888 85 861 q 312 916 222 916 q 464 893 401 916 q 561 833 527 871 q 601 764 594 796 q 608 665 608 732 l 608 612 m 550 1144 l 327 960 l 189 960 l 309 1144 l 550 1144 z "},"Ŝ":{"ha":718,"x_min":33,"x_max":686,"o":"m 662 764 l 397 764 l 397 845 q 387 918 397 902 q 353 933 376 933 q 314 912 327 933 q 300 848 300 891 q 315 766 300 793 q 396 699 330 738 q 636 513 587 585 q 686 279 686 440 q 658 106 686 161 q 552 13 631 50 q 369 -25 473 -25 q 173 18 254 -25 q 67 129 92 62 q 42 319 42 196 l 42 391 l 307 391 l 307 258 q 318 178 307 196 q 358 161 330 161 q 400 183 387 161 q 414 250 414 205 q 388 376 414 347 q 254 476 361 406 q 113 578 148 547 q 56 667 79 610 q 33 810 33 723 q 65 995 33 937 q 170 1086 98 1053 q 343 1119 241 1119 q 533 1083 454 1119 q 636 992 611 1047 q 662 807 662 938 l 662 764 m 344 1221 l 264 1133 l 74 1133 l 248 1324 l 439 1324 l 603 1133 l 419 1133 l 344 1221 z "},"ŝ":{"ha":654,"x_min":28,"x_max":629,"o":"m 608 612 l 366 612 l 366 661 q 358 740 366 724 q 323 757 351 757 q 288 742 300 757 q 277 696 277 726 q 282 635 277 654 q 317 593 288 616 q 435 526 346 570 q 592 416 555 467 q 629 266 629 364 q 601 100 629 156 q 506 14 572 44 q 345 -16 439 -16 q 166 16 240 -16 q 64 104 92 49 q 36 273 36 160 l 36 316 l 279 316 l 279 259 q 288 165 279 186 q 324 143 297 143 q 365 158 353 143 q 376 219 376 172 q 361 300 376 283 q 202 396 346 316 q 55 519 81 464 q 28 650 28 574 q 57 809 28 758 q 154 888 85 861 q 312 916 222 916 q 464 893 401 916 q 561 833 527 871 q 601 764 594 796 q 608 665 608 732 l 608 612 m 315 1049 l 235 960 l 45 960 l 219 1152 l 410 1152 l 574 960 l 390 960 l 315 1049 z "},"Ţ":{"ha":640,"x_min":8,"x_max":632,"o":"m 632 1098 l 632 878 l 463 878 l 463 0 l 177 0 l 177 878 l 8 878 l 8 1098 l 632 1098 m 365 8 l 365 -76 q 431 -100 400 -76 q 463 -165 463 -123 q 420 -255 463 -217 q 320 -293 378 -293 q 185 -186 214 -293 l 286 -186 q 319 -214 295 -214 q 350 -203 340 -214 q 359 -173 359 -193 q 346 -139 359 -151 q 303 -128 332 -128 q 286 -129 297 -128 l 286 8 l 365 8 z "},"ţ":{"ha":423,"x_min":4,"x_max":429,"o":"m 338 1020 l 338 878 l 412 878 l 412 736 l 338 736 l 338 254 q 347 155 338 165 q 423 145 356 145 l 423 0 l 313 0 q 179 8 219 0 q 109 44 139 16 q 71 108 78 72 q 63 279 63 144 l 63 736 l 4 736 l 4 878 l 63 878 l 63 1020 l 338 1020 m 331 3 l 331 -81 q 397 -105 366 -81 q 429 -171 429 -129 q 387 -260 429 -222 q 286 -298 345 -298 q 151 -191 180 -298 l 252 -191 q 286 -219 261 -219 q 316 -209 306 -219 q 326 -178 326 -199 q 312 -145 326 -156 q 269 -134 298 -134 q 252 -134 263 -134 l 252 3 l 331 3 z "},"Ť":{"ha":640,"x_min":8,"x_max":632,"o":"m 632 1098 l 632 878 l 463 878 l 463 0 l 177 0 l 177 878 l 8 878 l 8 1098 l 632 1098 m 320 1235 l 395 1324 l 579 1324 l 416 1133 l 224 1133 l 50 1324 l 240 1324 l 320 1235 z "},"ť":{"ha":640,"x_min":4,"x_max":640,"o":"m 338 1020 l 338 878 l 412 878 l 412 736 l 338 736 l 338 254 q 347 155 338 165 q 423 145 356 145 l 423 0 l 313 0 q 179 8 219 0 q 109 44 139 16 q 71 108 78 72 q 63 279 63 144 l 63 736 l 4 736 l 4 878 l 63 878 l 63 1020 l 338 1020 m 456 1098 l 640 1098 l 640 1041 q 456 784 640 823 l 456 863 q 501 924 495 887 l 456 924 l 456 1098 z "},"Ŧ":{"ha":640,"x_min":8,"x_max":632,"o":"m 178 618 l 178 879 l 8 879 l 8 1099 l 632 1099 l 632 879 l 464 879 l 464 618 l 572 618 l 572 501 l 464 501 l 464 0 l 178 0 l 178 501 l 71 501 l 71 618 l 178 618 z "},"ŧ":{"ha":422,"x_min":4,"x_max":424,"o":"m 64 618 l 64 736 l 4 736 l 4 878 l 64 878 l 64 1021 l 338 1021 l 338 878 l 411 878 l 411 736 l 338 736 l 338 618 l 410 618 l 410 501 l 338 501 l 338 254 q 341 172 338 191 q 358 149 345 153 q 424 144 372 144 l 424 0 l 313 0 q 184 7 227 0 q 109 43 141 14 q 70 118 76 73 q 64 279 64 163 l 64 501 l 4 501 l 4 618 l 64 618 z "},"Ũ":{"ha":760,"x_min":53,"x_max":706,"o":"m 706 1109 l 706 375 q 698 200 706 250 q 650 96 690 149 q 544 15 610 43 q 390 -12 479 -12 q 216 20 292 -12 q 104 105 141 53 q 60 215 66 157 q 53 459 53 273 l 53 1109 l 338 1109 l 338 286 q 346 194 338 214 q 378 174 354 174 q 413 196 405 174 q 420 300 420 218 l 420 1109 l 706 1109 m 661 1261 q 585 1166 630 1193 q 505 1139 539 1139 q 401 1161 456 1139 l 351 1181 q 279 1200 302 1200 q 196 1133 229 1200 l 89 1204 q 257 1335 163 1335 q 363 1314 306 1335 l 406 1298 q 477 1278 458 1278 q 552 1339 534 1278 l 661 1261 z "},"ũ":{"ha":726,"x_min":45,"x_max":676,"o":"m 676 907 l 676 7 l 397 7 l 402 82 q 332 14 374 37 q 236 -9 290 -9 q 134 13 174 -9 q 74 71 93 35 q 50 145 54 106 q 45 300 45 184 l 45 907 l 319 907 l 319 295 q 325 170 319 190 q 360 151 332 151 q 396 171 391 151 q 402 302 402 191 l 402 907 l 676 907 m 637 1089 q 561 994 606 1021 q 481 966 515 966 q 377 989 433 966 l 327 1008 q 255 1028 279 1028 q 172 960 205 1028 l 65 1031 q 233 1163 140 1163 q 340 1141 282 1163 l 382 1126 q 454 1106 435 1106 q 528 1167 510 1106 l 637 1089 z "},"Ū":{"ha":760,"x_min":53,"x_max":706,"o":"m 706 1109 l 706 375 q 698 200 706 250 q 650 96 690 149 q 544 15 610 43 q 390 -12 479 -12 q 216 20 292 -12 q 104 105 141 53 q 60 215 66 157 q 53 459 53 273 l 53 1109 l 338 1109 l 338 286 q 346 194 338 214 q 378 174 354 174 q 413 196 405 174 q 420 300 420 218 l 420 1109 l 706 1109 m 648 1250 l 648 1133 l 109 1133 l 109 1250 l 648 1250 z "},"ū":{"ha":726,"x_min":45,"x_max":676,"o":"m 676 900 l 676 0 l 397 0 l 402 75 q 332 6 374 29 q 236 -16 290 -16 q 134 5 174 -16 q 74 63 93 27 q 50 138 54 99 q 45 293 45 177 l 45 900 l 319 900 l 319 288 q 325 163 319 182 q 360 143 332 143 q 396 163 391 143 q 402 294 402 184 l 402 900 l 676 900 m 627 1078 l 627 960 l 87 960 l 87 1078 l 627 1078 z "},"Ŭ":{"ha":760,"x_min":53,"x_max":706,"o":"m 706 1109 l 706 375 q 698 200 706 250 q 650 96 690 149 q 544 15 610 43 q 390 -12 479 -12 q 216 20 292 -12 q 104 105 141 53 q 60 215 66 157 q 53 459 53 273 l 53 1109 l 338 1109 l 338 286 q 346 194 338 214 q 378 174 354 174 q 413 196 405 174 q 420 300 420 218 l 420 1109 l 706 1109 m 454 1337 l 569 1337 q 515 1189 565 1245 q 376 1133 465 1133 q 238 1189 287 1133 q 184 1337 189 1246 l 300 1337 q 376 1244 308 1244 q 454 1337 446 1244 z "},"ŭ":{"ha":726,"x_min":45,"x_max":676,"o":"m 676 900 l 676 0 l 397 0 l 402 75 q 332 6 374 29 q 236 -16 290 -16 q 134 5 174 -16 q 74 63 93 27 q 50 138 54 99 q 45 293 45 177 l 45 900 l 319 900 l 319 288 q 325 163 319 182 q 360 143 332 143 q 396 163 391 143 q 402 294 402 184 l 402 900 l 676 900 m 437 1165 l 553 1165 q 499 1017 549 1073 q 360 960 449 960 q 221 1017 271 960 q 168 1165 172 1074 l 283 1165 q 360 1072 292 1072 q 437 1165 429 1072 z "},"Ů":{"ha":760,"x_min":53,"x_max":706,"o":"m 706 1109 l 706 375 q 698 200 706 250 q 650 96 690 149 q 544 15 610 43 q 390 -12 479 -12 q 216 20 292 -12 q 104 105 141 53 q 60 215 66 157 q 53 459 53 273 l 53 1109 l 338 1109 l 338 286 q 346 194 338 214 q 378 174 354 174 q 413 196 405 174 q 420 300 420 218 l 420 1109 l 706 1109 m 376 1418 q 476 1377 433 1418 q 519 1275 519 1336 q 477 1174 519 1216 q 376 1133 435 1133 q 275 1174 317 1133 q 233 1275 233 1216 q 275 1376 233 1334 q 376 1418 317 1418 m 375 1329 q 336 1312 353 1329 q 319 1272 319 1296 q 336 1233 319 1249 q 375 1217 353 1217 q 415 1233 398 1217 q 431 1272 431 1249 q 415 1312 431 1296 q 375 1329 398 1329 z "},"ů":{"ha":726,"x_min":45,"x_max":676,"o":"m 676 900 l 676 0 l 397 0 l 402 75 q 332 6 374 29 q 236 -16 290 -16 q 134 5 174 -16 q 74 63 93 27 q 50 138 54 99 q 45 293 45 177 l 45 900 l 319 900 l 319 288 q 325 163 319 182 q 360 143 332 143 q 396 163 391 143 q 402 294 402 184 l 402 900 l 676 900 m 359 1246 q 459 1205 416 1246 q 502 1103 502 1164 q 460 1002 502 1044 q 359 960 418 960 q 258 1002 300 960 q 216 1103 216 1044 q 258 1204 216 1162 q 359 1246 300 1246 m 358 1156 q 319 1140 336 1156 q 302 1100 302 1124 q 319 1061 302 1077 q 358 1044 336 1044 q 398 1061 381 1044 q 414 1100 414 1077 q 398 1140 414 1124 q 358 1156 381 1156 z "},"Ű":{"ha":760,"x_min":53,"x_max":706,"o":"m 706 1109 l 706 375 q 698 200 706 250 q 650 96 690 149 q 544 15 610 43 q 390 -12 479 -12 q 216 20 292 -12 q 104 105 141 53 q 60 215 66 157 q 53 459 53 273 l 53 1109 l 338 1109 l 338 286 q 346 194 338 214 q 378 174 354 174 q 413 196 405 174 q 420 300 420 218 l 420 1109 l 706 1109 m 405 1343 l 241 1133 l 140 1133 l 220 1343 l 405 1343 m 669 1343 l 506 1133 l 405 1133 l 485 1343 l 669 1343 z "},"ű":{"ha":726,"x_min":45,"x_max":676,"o":"m 676 900 l 676 0 l 397 0 l 402 75 q 332 6 374 29 q 236 -16 290 -16 q 134 5 174 -16 q 74 63 93 27 q 50 138 54 99 q 45 293 45 177 l 45 900 l 319 900 l 319 288 q 325 163 319 182 q 360 143 332 143 q 396 163 391 143 q 402 294 402 184 l 402 900 l 676 900 m 387 1171 l 223 960 l 122 960 l 202 1171 l 387 1171 m 650 1171 l 488 960 l 387 960 l 467 1171 l 650 1171 z "},"Ų":{"ha":760,"x_min":53,"x_max":707,"o":"m 335 -1 q 185 33 247 5 q 95 107 123 60 q 60 209 66 155 q 53 364 53 264 l 53 1099 l 339 1099 l 339 250 q 349 177 339 191 q 379 163 359 163 q 410 180 399 163 q 421 265 421 197 l 421 1099 l 707 1099 l 707 314 q 693 172 707 227 q 642 76 680 117 q 554 18 604 35 q 432 -1 504 2 q 376 -92 376 -58 q 425 -135 376 -135 q 503 -117 459 -135 l 530 -184 q 412 -215 465 -215 q 314 -186 351 -215 q 278 -110 278 -157 q 335 -1 278 -55 z "},"ų":{"ha":725,"x_min":45,"x_max":739,"o":"m 543 0 l 397 0 l 401 75 q 334 15 371 32 q 218 -1 296 -1 q 134 9 165 -1 q 78 58 103 20 q 49 138 54 96 q 45 293 45 181 l 45 900 l 318 900 l 318 204 q 359 143 318 143 q 393 158 382 143 q 403 220 403 172 l 403 900 l 676 900 l 676 0 l 643 0 q 585 -92 585 -58 q 633 -135 585 -135 q 711 -117 667 -135 l 739 -184 q 621 -215 673 -215 q 523 -186 559 -215 q 486 -110 486 -157 q 543 0 486 -54 z "},"Ŵ":{"ha":1131,"x_min":0,"x_max":1131,"o":"m 1131 1098 l 1004 0 l 648 0 q 562 575 599 253 q 482 0 545 437 l 127 0 l 0 1098 l 277 1098 l 307 715 l 336 345 q 415 1098 352 632 l 712 1098 q 743 736 718 1050 l 774 319 q 854 1098 798 717 l 1131 1098 m 566 1221 l 486 1133 l 296 1133 l 470 1324 l 661 1324 l 825 1133 l 641 1133 l 566 1221 z "},"ŵ":{"ha":930,"x_min":-4,"x_max":934,"o":"m 934 900 l 825 0 l 527 0 q 471 434 503 165 q 440 195 460 316 l 410 0 l 112 0 l -4 900 l 232 900 q 292 385 235 865 q 353 900 296 434 l 580 900 l 635 385 q 698 900 648 610 l 934 900 m 467 1049 l 387 960 l 197 960 l 372 1152 l 563 1152 l 726 960 l 543 960 l 467 1049 z "},"Ŷ":{"ha":657,"x_min":-8,"x_max":665,"o":"m 665 1098 l 457 397 l 457 0 l 193 0 l 193 397 l -8 1098 l 254 1098 q 323 666 316 777 q 403 1098 347 842 l 665 1098 m 330 1221 l 250 1133 l 60 1133 l 234 1324 l 425 1324 l 589 1133 l 405 1133 l 330 1221 z "},"ŷ":{"ha":623,"x_min":-8,"x_max":623,"o":"m 623 900 l 544 249 q 513 38 526 94 q 471 -55 500 -18 q 390 -109 442 -92 q 224 -126 338 -126 l 58 -126 l 58 18 q 140 24 122 18 q 159 53 159 31 q 142 147 159 64 l -8 900 l 241 900 l 330 293 l 374 900 l 623 900 m 307 1049 l 227 960 l 37 960 l 212 1152 l 403 1152 l 566 960 l 382 960 l 307 1049 z "},"Ź":{"ha":551,"x_min":8,"x_max":534,"o":"m 534 1098 l 534 878 l 321 220 l 534 220 l 534 0 l 8 0 l 8 159 l 228 878 l 34 878 l 34 1098 l 534 1098 m 487 1316 l 264 1133 l 126 1133 l 245 1316 l 487 1316 z "},"ź":{"ha":488,"x_min":8,"x_max":475,"o":"m 475 900 l 475 701 l 273 180 l 475 180 l 475 0 l 8 0 l 8 189 l 215 720 l 29 720 l 29 900 l 475 900 m 464 1144 l 241 960 l 103 960 l 222 1144 l 464 1144 z "},"Ż":{"ha":551,"x_min":8,"x_max":534,"o":"m 534 1098 l 534 878 l 321 220 l 534 220 l 534 0 l 8 0 l 8 159 l 228 878 l 34 878 l 34 1098 l 534 1098 m 370 1309 l 370 1133 l 193 1133 l 193 1309 l 370 1309 z "},"ż":{"ha":488,"x_min":8,"x_max":475,"o":"m 475 900 l 475 701 l 273 180 l 475 180 l 475 0 l 8 0 l 8 189 l 215 720 l 29 720 l 29 900 l 475 900 m 334 1137 l 334 960 l 157 960 l 157 1137 l 334 1137 z "},"ſ":{"ha":400,"x_min":49,"x_max":396,"o":"m 379 961 q 322 847 322 961 l 322 0 l 49 0 l 49 733 q 57 915 49 854 q 103 1025 65 976 q 211 1098 140 1074 q 379 1121 281 1121 l 396 1121 l 396 961 l 379 961 z "},"Ǻ":{"ha":705,"x_min":-8,"x_max":713,"o":"m 550 1098 l 713 0 l 421 0 l 407 197 l 304 197 l 288 0 l -8 0 l 137 1098 l 550 1098 m 399 392 q 355 852 377 578 q 301 392 312 538 l 399 392 m 353 1418 q 453 1377 410 1418 q 496 1275 496 1336 q 454 1174 496 1216 q 353 1133 412 1133 q 252 1174 294 1133 q 210 1275 210 1216 q 252 1376 210 1334 q 353 1418 294 1418 m 352 1329 q 313 1312 330 1329 q 296 1272 296 1296 q 313 1233 296 1249 q 352 1217 330 1217 q 392 1233 375 1217 q 408 1272 408 1249 q 392 1312 408 1296 q 352 1329 375 1329 m 577 1622 l 354 1438 l 216 1438 l 336 1622 l 577 1622 z "},"ǻ":{"ha":700,"x_min":37,"x_max":654,"o":"m 294 551 l 37 551 l 37 612 q 61 773 37 716 q 157 873 85 829 q 346 916 230 916 q 555 867 485 916 q 640 746 626 818 q 654 452 654 675 l 654 0 l 388 0 l 388 80 q 323 8 363 32 q 229 -16 283 -16 q 97 24 157 -16 q 37 201 37 64 l 37 275 q 68 412 37 376 q 227 498 100 449 q 371 569 361 551 q 380 644 380 587 q 370 735 380 714 q 335 757 359 757 q 300 739 307 757 q 294 646 294 721 l 294 551 m 380 428 q 304 347 315 380 q 294 254 294 315 q 303 163 294 184 q 339 143 312 143 q 373 159 365 143 q 380 243 380 175 l 380 428 m 343 1246 q 443 1205 400 1246 q 486 1103 486 1164 q 444 1002 486 1044 q 343 960 401 960 q 242 1002 283 960 q 200 1103 200 1044 q 242 1204 200 1162 q 343 1246 284 1246 m 342 1156 q 303 1140 319 1156 q 286 1100 286 1124 q 303 1061 286 1077 q 342 1044 319 1044 q 381 1061 365 1044 q 398 1100 398 1077 q 381 1140 398 1124 q 342 1156 365 1156 m 559 1461 l 336 1277 l 199 1277 l 318 1461 l 559 1461 z "},"Ǽ":{"ha":991,"x_min":-8,"x_max":966,"o":"m 952 1098 l 952 878 l 760 878 l 760 670 l 941 670 l 941 461 l 760 461 l 760 220 l 966 220 l 966 0 l 475 0 l 475 197 l 311 197 l 264 0 l -8 0 l 281 1098 l 952 1098 m 475 892 l 353 392 l 475 392 l 475 892 m 786 1316 l 563 1133 l 425 1133 l 545 1316 l 786 1316 z "},"ǽ":{"ha":1046,"x_min":37,"x_max":1005,"o":"m 1005 434 l 648 434 l 648 252 q 656 163 648 183 q 694 143 665 143 q 735 163 724 143 q 746 248 746 184 l 746 376 l 1005 376 l 1005 285 q 978 135 1005 196 q 881 29 951 74 q 708 -16 810 -16 q 547 9 613 -16 q 441 87 480 35 q 353 9 404 35 q 239 -16 302 -16 q 116 14 164 -16 q 52 92 67 45 q 37 245 37 138 q 51 375 37 340 q 108 437 64 410 q 258 502 151 465 q 334 534 314 521 q 361 566 353 547 q 368 649 368 585 q 360 733 368 709 q 330 757 352 757 q 301 737 308 757 q 295 637 295 718 l 295 551 l 38 551 l 38 618 q 48 736 38 693 q 97 822 59 779 q 192 890 134 865 q 340 916 250 916 q 437 904 391 916 q 527 867 484 892 q 600 904 558 892 q 692 916 641 916 q 870 871 795 916 q 975 757 944 827 q 1005 550 1005 687 l 1005 434 m 731 581 l 731 662 q 720 741 731 725 q 690 757 708 757 q 657 739 667 757 q 648 662 648 720 l 648 581 l 731 581 m 374 422 q 303 354 321 385 q 286 239 286 323 q 296 165 286 186 q 334 143 307 143 q 363 157 354 143 q 373 197 373 170 l 374 277 l 374 422 m 739 1144 l 516 960 l 378 960 l 498 1144 l 739 1144 z "},"Ǿ":{"ha":759,"x_min":-37,"x_max":795,"o":"m 696 908 q 709 642 709 857 l 709 454 q 702 220 709 289 q 653 94 694 151 q 542 7 612 37 q 379 -24 472 -24 q 210 9 280 -24 q 98 106 140 41 l 25 11 l -37 58 l 62 189 q 49 454 49 237 l 49 642 q 57 877 49 808 q 105 1002 64 945 q 216 1090 146 1059 q 379 1120 286 1120 q 548 1088 477 1120 q 661 991 618 1056 l 733 1086 l 795 1039 l 696 908 m 424 669 l 424 815 q 415 913 424 892 q 380 935 407 935 q 343 912 353 935 q 334 815 334 889 l 334 551 l 424 669 m 334 422 l 334 302 q 342 184 334 207 q 378 162 350 162 q 416 188 408 162 q 424 311 424 214 l 424 541 l 334 422 m 589 1316 l 366 1133 l 228 1133 l 347 1316 l 589 1316 z "},"ǿ":{"ha":710,"x_min":41,"x_max":669,"o":"m 618 801 q 657 723 645 765 q 669 584 669 680 l 669 363 q 656 185 669 242 q 604 80 644 129 q 502 7 564 31 q 357 -16 439 -16 q 223 -2 280 -16 q 130 41 166 13 l 109 9 l 56 44 l 86 91 q 52 176 63 129 q 41 334 41 224 l 41 564 q 68 760 41 690 q 165 873 95 831 q 346 916 236 916 q 474 899 417 916 q 573 848 531 882 l 601 890 l 654 856 l 618 801 m 395 566 l 395 652 q 387 739 395 721 q 355 757 380 757 q 323 739 331 757 q 315 652 315 721 l 315 444 l 395 566 m 315 326 l 315 245 q 323 162 315 182 q 355 143 331 143 q 387 161 379 143 q 395 237 395 178 l 395 449 l 315 326 m 572 1144 l 349 960 l 211 960 l 330 1144 l 572 1144 z "},"΄":{"ha":463,"x_min":134,"x_max":355,"o":"m 170 1099 l 355 1099 l 271 916 l 134 916 l 170 1099 z "},"΅":{"ha":463,"x_min":-4,"x_max":468,"o":"m 174 1440 l 359 1440 l 275 1257 l 138 1257 l 174 1440 m -4 1194 l 170 1194 l 170 1018 l -4 1018 l -4 1194 m 290 1194 l 468 1194 l 468 1018 l 290 1018 l 290 1194 z "},"Ά":{"ha":705,"x_min":-111,"x_max":713,"o":"m 550 1098 l 713 0 l 421 0 l 407 197 l 304 197 l 288 0 l -8 0 l 137 1098 l 550 1098 m 399 392 q 355 852 377 578 q 301 392 312 538 l 399 392 m -75 1099 l 111 1099 l 26 916 l -111 916 l -75 1099 z "},"·":{"ha":305,"x_min":49,"x_max":256,"o":"m 256 659 l 256 435 l 49 435 l 49 659 l 256 659 z "},"Έ":{"ha":746,"x_min":-11,"x_max":722,"o":"m 227 1098 l 703 1098 l 703 878 l 512 878 l 512 670 l 690 670 l 690 461 l 512 461 l 512 220 l 722 220 l 722 0 l 227 0 l 227 1098 m 25 1099 l 211 1099 l 126 916 l -11 916 l 25 1099 z "},"Ή":{"ha":940,"x_min":-11,"x_max":883,"o":"m 883 1098 l 883 0 l 597 0 l 597 461 l 512 461 l 512 0 l 227 0 l 227 1098 l 512 1098 l 512 705 l 597 705 l 597 1098 l 883 1098 m 25 1099 l 211 1099 l 126 916 l -11 916 l 25 1099 z "},"Ί":{"ha":570,"x_min":-11,"x_max":512,"o":"m 512 1098 l 512 0 l 227 0 l 227 1098 l 512 1098 m 25 1099 l 211 1099 l 126 916 l -11 916 l 25 1099 z "},"Ό":{"ha":889,"x_min":-11,"x_max":831,"o":"m 831 456 q 824 221 831 290 q 775 96 816 153 q 664 8 734 39 q 501 -22 594 -22 q 343 6 413 -22 q 230 93 273 35 q 179 218 187 151 q 171 456 171 286 l 171 644 q 179 878 171 809 q 228 1004 186 947 q 338 1091 269 1061 q 501 1122 408 1122 q 660 1093 589 1122 q 772 1006 730 1064 q 823 881 815 949 q 831 644 831 813 l 831 456 m 546 817 q 537 915 546 893 q 503 936 529 936 q 468 919 480 936 q 456 817 456 901 l 456 304 q 464 186 456 208 q 500 163 472 163 q 538 189 530 163 q 546 312 546 215 l 546 817 m 25 1099 l 211 1099 l 126 916 l -11 916 l 25 1099 z "},"Ύ":{"ha":889,"x_min":-11,"x_max":896,"o":"m 896 1098 l 688 397 l 688 0 l 423 0 l 423 397 l 222 1098 l 485 1098 q 554 666 547 777 q 633 1098 578 842 l 896 1098 m 25 1099 l 211 1099 l 126 916 l -11 916 l 25 1099 z "},"Ώ":{"ha":909,"x_min":-11,"x_max":868,"o":"m 502 167 l 502 0 l 172 0 l 172 165 l 214 165 q 321 158 245 165 q 225 274 262 197 q 188 453 188 351 l 188 713 q 195 903 188 855 q 240 1005 201 951 q 345 1083 278 1059 q 518 1107 412 1107 q 686 1083 616 1107 q 797 1009 755 1060 q 845 909 838 958 q 853 713 853 859 l 853 453 q 816 274 853 351 q 720 158 779 197 q 821 165 783 165 l 868 165 l 868 0 l 539 0 l 539 167 q 567 307 567 194 l 567 827 q 557 927 567 907 q 523 947 547 947 q 485 928 496 947 q 474 827 474 909 l 474 307 q 502 167 474 194 m 25 1099 l 211 1099 l 126 916 l -11 916 l 25 1099 z "},"ΐ":{"ha":422,"x_min":-49,"x_max":423,"o":"m 49 257 l 49 900 l 322 900 l 322 243 q 339 169 322 195 q 412 142 357 142 l 412 0 l 368 0 q 167 13 228 0 q 77 80 106 26 q 49 257 49 133 m 129 1383 l 315 1383 l 231 1199 l 93 1199 l 129 1383 m -49 1137 l 125 1137 l 125 960 l -49 960 l -49 1137 m 245 1137 l 423 1137 l 423 960 l 245 960 l 245 1137 z "},"Α":{"ha":705,"x_min":-8,"x_max":713,"o":"m 550 1098 l 713 0 l 421 0 l 407 197 l 304 197 l 288 0 l -8 0 l 137 1098 l 550 1098 m 399 392 q 355 852 377 578 q 301 392 312 538 l 399 392 z "},"Β":{"ha":767,"x_min":57,"x_max":722,"o":"m 57 1098 l 342 1098 q 546 1077 477 1098 q 659 992 616 1056 q 701 785 701 928 q 671 651 701 689 q 552 593 641 613 q 686 518 651 570 q 722 359 722 467 l 722 258 q 696 93 722 146 q 615 20 671 39 q 387 0 559 0 l 57 0 l 57 1098 m 342 910 l 342 666 q 371 667 361 667 q 425 687 413 667 q 436 806 436 708 q 427 878 436 857 q 402 904 417 899 q 342 910 387 909 m 342 495 l 342 188 q 419 207 403 190 q 436 290 436 224 l 436 393 q 421 478 436 463 q 342 495 406 493 z "},"Γ":{"ha":528,"x_min":57,"x_max":515,"o":"m 57 0 l 57 1099 l 515 1099 l 515 880 l 343 880 l 343 0 l 57 0 z "},"Δ":{"ha":705,"x_min":-8,"x_max":714,"o":"m 138 1099 l 550 1099 l 714 0 l -8 0 l 138 1099 m 301 196 l 399 196 q 381 513 399 217 q 355 852 363 809 q 325 509 348 808 q 301 196 301 210 z "},"Ε":{"ha":577,"x_min":57,"x_max":552,"o":"m 57 1098 l 533 1098 l 533 878 l 342 878 l 342 670 l 521 670 l 521 461 l 342 461 l 342 220 l 552 220 l 552 0 l 57 0 l 57 1098 z "},"Ζ":{"ha":551,"x_min":8,"x_max":534,"o":"m 534 1098 l 534 878 l 321 220 l 534 220 l 534 0 l 8 0 l 8 159 l 228 878 l 34 878 l 34 1098 l 534 1098 z "},"Η":{"ha":771,"x_min":57,"x_max":713,"o":"m 713 1098 l 713 0 l 428 0 l 428 461 l 342 461 l 342 0 l 57 0 l 57 1098 l 342 1098 l 342 705 l 428 705 l 428 1098 l 713 1098 z "},"Θ":{"ha":758,"x_min":49,"x_max":710,"o":"m 710 450 q 699 201 710 273 q 645 81 688 129 q 535 13 602 33 q 379 -8 469 -8 q 232 10 295 -8 q 126 68 169 28 q 71 155 84 109 q 53 269 57 201 q 49 450 49 337 l 49 654 q 59 902 49 830 q 113 1021 70 975 q 222 1087 156 1067 q 379 1107 288 1107 q 536 1088 471 1107 q 645 1022 602 1069 q 699 903 688 976 q 710 654 710 829 l 710 450 m 424 633 l 424 827 q 417 922 424 896 q 379 947 410 947 q 345 927 355 947 q 335 827 335 907 l 335 633 l 424 633 m 335 473 l 335 245 q 343 180 335 203 q 378 157 351 157 q 413 176 401 157 q 424 265 424 195 l 424 473 l 335 473 z "},"Ι":{"ha":400,"x_min":57,"x_max":343,"o":"m 57 0 l 57 1099 l 343 1099 l 343 0 l 57 0 z "},"Κ":{"ha":745,"x_min":57,"x_max":753,"o":"m 737 1098 l 574 602 l 753 0 l 458 0 l 342 471 l 342 0 l 57 0 l 57 1098 l 342 1098 l 342 671 l 469 1098 l 737 1098 z "},"Λ":{"ha":728,"x_min":-7,"x_max":736,"o":"m 736 0 l 435 0 q 361 768 390 384 q 294 0 334 384 l -7 0 l 138 1099 l 571 1099 l 736 0 z "},"Μ":{"ha":996,"x_min":57,"x_max":938,"o":"m 938 1098 l 938 0 l 688 0 l 688 741 l 589 0 l 412 0 l 307 724 l 307 0 l 57 0 l 57 1098 l 427 1098 q 461 865 443 999 l 500 585 l 566 1098 l 938 1098 z "},"Ν":{"ha":752,"x_min":57,"x_max":694,"o":"m 694 1098 l 694 0 l 444 0 l 296 499 l 296 0 l 57 0 l 57 1098 l 296 1098 l 456 604 l 456 1098 l 694 1098 z "},"Ξ":{"ha":640,"x_min":22,"x_max":618,"o":"m 22 879 l 22 1099 l 618 1099 l 618 879 l 22 879 m 78 452 l 78 671 l 562 671 l 562 452 l 78 452 m 22 0 l 22 220 l 618 220 l 618 0 l 22 0 z "},"Ο":{"ha":759,"x_min":49,"x_max":709,"o":"m 709 455 q 702 221 709 290 q 653 95 694 152 q 542 7 612 38 q 379 -23 472 -23 q 221 6 291 -23 q 108 92 151 35 q 57 218 65 150 q 49 455 49 286 l 49 643 q 57 877 49 808 q 105 1003 64 946 q 216 1090 146 1060 q 379 1121 286 1121 q 537 1092 467 1121 q 650 1006 608 1063 q 701 880 693 948 q 709 643 709 812 l 709 455 m 424 816 q 415 914 424 892 q 380 935 407 935 q 346 918 358 935 q 334 816 334 901 l 334 303 q 342 185 334 208 q 378 163 350 163 q 416 189 408 163 q 424 311 424 214 l 424 816 z "},"Π":{"ha":771,"x_min":57,"x_max":714,"o":"m 428 879 l 343 879 l 343 0 l 57 0 l 57 1099 l 714 1099 l 714 0 l 428 0 l 428 879 z "},"Ρ":{"ha":697,"x_min":57,"x_max":672,"o":"m 343 0 l 57 0 l 57 1099 l 345 1099 q 512 1085 451 1099 q 613 1030 572 1072 q 663 940 654 988 q 672 790 672 892 l 672 696 q 606 486 672 531 q 419 441 541 441 l 343 441 l 343 0 m 433 730 l 433 819 q 416 892 433 875 q 343 909 399 909 l 343 631 l 364 631 q 418 649 403 631 q 433 730 433 668 z "},"Σ":{"ha":547,"x_min":-16,"x_max":521,"o":"m 302 220 l 521 220 l 521 0 l -12 0 l 175 589 l -16 1099 l 517 1099 l 517 879 l 306 879 l 419 587 l 302 220 z "},"Τ":{"ha":640,"x_min":8,"x_max":632,"o":"m 632 1098 l 632 878 l 463 878 l 463 0 l 177 0 l 177 878 l 8 878 l 8 1098 l 632 1098 z "},"Υ":{"ha":657,"x_min":-8,"x_max":665,"o":"m 665 1098 l 457 397 l 457 0 l 193 0 l 193 397 l -8 1098 l 254 1098 q 323 666 316 777 q 403 1098 347 842 l 665 1098 z "},"Φ":{"ha":1107,"x_min":21,"x_max":1086,"o":"m 1084 538 q 1074 382 1084 430 q 1014 264 1060 317 q 743 182 942 182 l 693 182 l 693 0 l 407 0 l 407 182 l 363 182 q 92 264 163 182 q 31 382 45 317 q 21 538 21 430 l 21 557 q 31 712 21 665 q 92 831 45 778 q 363 911 163 911 q 407 913 378 911 l 407 1099 l 693 1099 l 693 913 q 743 911 728 911 q 1014 831 943 911 q 1074 712 1060 778 q 1084 557 1084 665 l 1084 538 m 799 476 l 799 618 q 777 708 799 674 q 722 742 755 742 l 693 742 l 693 353 l 722 353 q 777 387 755 353 q 799 476 799 420 m 407 353 l 407 742 l 383 742 q 329 708 351 742 q 307 618 307 674 l 307 476 q 329 387 307 420 q 383 353 351 353 l 407 353 m 1086 538 z "},"Χ":{"ha":670,"x_min":0,"x_max":686,"o":"m 635 1098 l 536 612 l 686 0 l 422 0 q 335 399 374 164 q 305 179 324 296 l 278 0 l 0 0 l 103 612 l 0 1098 l 276 1098 q 306 947 283 1053 q 335 799 323 866 l 396 1098 l 635 1098 z "},"Ψ":{"ha":1090,"x_min":3,"x_max":1089,"o":"m 403 1099 l 689 1099 l 689 566 q 755 592 730 567 q 779 656 779 616 l 779 940 q 825 1099 779 1059 l 1089 1099 q 1051 922 1051 1048 l 1051 648 q 979 461 1051 526 q 781 396 907 396 l 689 396 l 689 0 l 403 0 l 403 396 l 311 396 q 113 461 185 396 q 40 648 40 526 l 40 922 q 3 1099 40 1048 l 267 1099 q 313 940 313 1059 l 313 656 q 337 592 313 616 q 403 566 361 567 l 403 1099 z "},"Ω":{"ha":779,"x_min":41,"x_max":737,"o":"m 371 167 l 371 0 l 41 0 l 41 165 l 83 165 q 191 158 115 165 q 94 274 131 197 q 57 453 57 351 l 57 713 q 64 903 57 855 q 109 1005 71 951 q 214 1083 147 1059 q 387 1107 281 1107 q 555 1083 486 1107 q 666 1009 625 1060 q 714 909 707 958 q 722 713 722 859 l 722 453 q 685 274 722 351 q 589 158 648 197 q 690 165 652 165 l 737 165 l 737 0 l 408 0 l 408 167 q 436 307 436 194 l 436 827 q 426 927 436 907 q 392 947 416 947 q 354 928 365 947 q 343 827 343 909 l 343 307 q 371 167 343 194 z "},"Ϊ":{"ha":400,"x_min":-37,"x_max":436,"o":"m 342 1098 l 342 0 l 57 0 l 57 1098 l 342 1098 m 140 1309 l 140 1133 l -37 1133 l -37 1309 l 140 1309 m 436 1309 l 436 1133 l 259 1133 l 259 1309 l 436 1309 z "},"Ϋ":{"ha":657,"x_min":-8,"x_max":665,"o":"m 665 1098 l 457 397 l 457 0 l 193 0 l 193 397 l -8 1098 l 254 1098 q 323 666 316 777 q 403 1098 347 842 l 665 1098 m 270 1309 l 270 1133 l 93 1133 l 93 1309 l 270 1309 m 566 1309 l 566 1133 l 389 1133 l 389 1309 l 566 1309 z "},"ά":{"ha":728,"x_min":40,"x_max":747,"o":"m 40 232 l 40 671 q 46 787 40 748 q 79 859 52 826 q 138 900 106 892 q 228 908 171 908 q 415 821 342 908 q 454 900 425 863 l 713 900 q 672 669 672 806 l 672 350 q 747 0 672 125 l 471 0 q 418 89 430 48 q 332 18 386 43 q 225 -8 278 -8 q 110 17 155 -8 q 52 90 64 42 q 40 232 40 138 m 314 711 l 314 227 q 320 157 314 178 q 353 136 327 136 q 392 160 385 136 q 399 250 399 184 l 399 685 q 388 753 399 739 q 355 768 377 768 q 314 711 314 768 m 309 1143 l 495 1143 l 410 960 l 273 960 l 309 1143 z "},"έ":{"ha":717,"x_min":35,"x_max":689,"o":"m 689 216 q 610 43 689 94 q 347 -8 532 -8 q 35 227 35 -8 l 35 282 q 83 404 35 354 q 211 472 132 454 q 91 529 140 480 q 41 643 41 578 l 41 697 q 123 854 41 801 q 357 908 204 908 q 592 857 511 908 q 673 705 673 805 l 673 603 l 431 603 l 431 684 q 416 746 431 729 q 372 764 401 764 q 323 744 338 764 q 309 676 309 724 q 340 585 309 618 q 422 549 371 552 l 422 411 q 340 367 371 406 q 309 258 309 328 q 322 162 309 189 q 364 136 335 136 q 416 160 405 136 q 427 250 427 184 l 427 322 l 689 322 l 689 216 m 309 1143 l 495 1143 l 410 960 l 273 960 l 309 1143 z "},"ή":{"ha":726,"x_min":9,"x_max":681,"o":"m 289 900 q 322 821 318 864 q 494 908 378 908 q 584 896 548 908 q 644 848 619 884 q 675 768 669 813 q 681 631 681 722 l 681 -126 l 407 -126 l 407 628 q 401 739 407 716 q 367 761 396 761 q 329 733 335 761 q 322 612 322 705 l 322 0 l 49 0 l 49 777 q 9 900 49 841 l 289 900 m 309 1143 l 495 1143 l 410 960 l 273 960 l 309 1143 z "},"ί":{"ha":422,"x_min":49,"x_max":412,"o":"m 49 257 l 49 900 l 322 900 l 322 243 q 339 169 322 195 q 412 142 357 142 l 412 0 l 368 0 q 167 13 228 0 q 77 80 106 26 q 49 257 49 133 m 132 1143 l 317 1143 l 233 960 l 96 960 l 132 1143 z "},"ΰ":{"ha":725,"x_min":49,"x_max":681,"o":"m 681 900 l 681 281 q 652 113 681 175 q 559 21 623 50 q 364 -8 494 -8 q 115 62 182 -8 q 49 288 49 133 l 49 900 l 322 900 l 322 199 q 364 138 322 138 q 397 152 387 138 q 407 214 407 167 l 407 900 l 681 900 m 309 1383 l 495 1383 l 411 1199 l 273 1199 l 309 1383 m 132 1137 l 305 1137 l 305 960 l 132 960 l 132 1137 m 426 1137 l 604 1137 l 604 960 l 426 960 l 426 1137 z "},"α":{"ha":728,"x_min":40,"x_max":747,"o":"m 40 232 l 40 671 q 46 787 40 748 q 79 859 52 826 q 138 900 106 892 q 228 908 171 908 q 415 821 342 908 q 454 900 425 863 l 713 900 q 672 669 672 806 l 672 350 q 747 0 672 125 l 471 0 q 418 89 430 48 q 332 18 386 43 q 225 -8 278 -8 q 110 17 155 -8 q 52 90 64 42 q 40 232 40 138 m 314 711 l 314 227 q 320 157 314 178 q 353 136 327 136 q 392 160 385 136 q 399 250 399 184 l 399 685 q 388 753 399 739 q 355 768 377 768 q 314 711 314 768 z "},"β":{"ha":730,"x_min":49,"x_max":690,"o":"m 322 72 l 322 -126 l 49 -126 l 49 838 q 131 1030 49 961 q 359 1099 212 1099 q 592 1041 510 1099 q 675 875 675 984 l 675 765 q 626 651 675 701 q 505 593 576 601 q 640 534 589 577 q 690 427 690 490 l 690 231 q 638 62 690 127 q 494 -4 587 -4 q 322 72 385 -4 m 322 186 q 338 160 322 177 q 370 143 355 143 q 398 157 389 143 q 408 211 408 170 l 408 443 q 400 508 408 483 q 349 541 391 534 l 349 660 q 399 691 389 662 q 408 762 408 721 l 408 886 q 396 941 408 927 q 361 954 384 954 q 322 879 322 954 l 322 186 z "},"γ":{"ha":694,"x_min":-8,"x_max":701,"o":"m 701 900 l 492 138 l 492 -126 l 218 -126 l 218 142 l 65 650 q 30 739 45 720 q -8 757 14 757 l -8 905 q 28 908 12 908 q 165 890 119 908 q 238 825 212 871 q 292 675 264 779 l 349 463 l 457 900 l 701 900 z "},"δ":{"ha":708,"x_min":40,"x_max":668,"o":"m 244 778 l 61 954 l 61 1099 l 619 1099 l 619 957 l 375 957 q 615 715 562 812 q 668 478 668 619 l 668 357 q 655 174 668 234 q 599 70 643 115 q 493 9 555 26 q 312 -8 431 -8 q 214 -1 252 -8 q 135 33 175 5 q 74 101 96 60 q 46 193 53 142 q 40 326 40 244 l 40 453 q 46 568 40 524 q 76 656 52 612 q 144 731 101 700 q 244 778 188 762 m 395 541 q 385 629 395 613 q 354 646 376 646 q 324 630 334 646 q 314 541 314 614 l 314 214 q 354 136 314 136 q 383 150 372 136 q 395 184 395 163 l 395 541 z "},"ε":{"ha":717,"x_min":35,"x_max":689,"o":"m 689 216 q 610 43 689 94 q 347 -8 532 -8 q 35 227 35 -8 l 35 282 q 83 404 35 354 q 211 472 132 454 q 91 529 140 480 q 41 643 41 578 l 41 697 q 123 854 41 801 q 357 908 204 908 q 592 857 511 908 q 673 705 673 805 l 673 603 l 431 603 l 431 684 q 416 746 431 729 q 372 764 401 764 q 323 744 338 764 q 309 676 309 724 q 340 585 309 618 q 422 549 371 552 l 422 411 q 340 367 371 406 q 309 258 309 328 q 322 162 309 189 q 364 136 335 136 q 416 160 405 136 q 427 250 427 184 l 427 322 l 689 322 l 689 216 z "},"ζ":{"ha":533,"x_min":36,"x_max":525,"o":"m 36 578 q 86 750 36 667 q 285 957 137 833 l 41 957 l 41 1099 l 518 1099 l 518 961 q 353 778 397 857 q 310 595 310 699 l 310 425 q 316 378 310 395 q 332 353 321 360 q 380 336 342 346 q 493 260 461 315 q 525 115 525 205 q 478 -66 525 -7 q 314 -126 431 -126 l 180 -126 l 180 28 l 288 28 q 344 44 332 28 q 357 93 357 60 q 342 143 357 125 q 292 168 328 161 l 151 195 q 83 224 108 203 q 47 288 58 246 q 36 414 36 329 l 36 578 z "},"η":{"ha":726,"x_min":9,"x_max":681,"o":"m 289 900 q 322 821 318 864 q 494 908 378 908 q 584 896 548 908 q 644 848 619 884 q 675 768 669 813 q 681 631 681 722 l 681 -126 l 407 -126 l 407 628 q 401 739 407 716 q 367 761 396 761 q 329 733 335 761 q 322 612 322 705 l 322 0 l 49 0 l 49 777 q 9 900 49 841 l 289 900 z "},"θ":{"ha":710,"x_min":52,"x_max":679,"o":"m 52 326 l 52 765 q 61 903 52 845 q 109 1010 71 961 q 210 1083 147 1059 q 357 1107 272 1107 q 514 1083 447 1107 q 622 1011 581 1059 q 670 917 662 964 q 679 785 679 869 l 679 357 q 666 174 679 234 q 610 70 654 115 q 504 9 567 26 q 323 -8 441 -8 q 225 -1 264 -8 q 146 33 186 5 q 85 101 107 60 q 58 193 64 142 q 52 326 52 244 m 406 625 l 406 852 q 399 942 406 918 q 366 965 393 965 q 331 941 338 965 q 325 852 325 917 l 325 625 l 406 625 m 325 476 l 325 214 q 366 129 325 129 q 394 146 382 129 q 406 184 406 163 l 406 476 l 325 476 z "},"ι":{"ha":422,"x_min":49,"x_max":412,"o":"m 49 257 l 49 900 l 322 900 l 322 243 q 339 169 322 195 q 412 142 357 142 l 412 0 l 368 0 q 167 13 228 0 q 77 80 106 26 q 49 257 49 133 z "},"κ":{"ha":725,"x_min":49,"x_max":730,"o":"m 730 0 l 436 0 l 322 359 l 322 0 l 49 0 l 49 900 l 322 900 l 322 561 q 423 777 404 738 q 474 850 443 817 q 542 893 505 883 q 631 904 578 904 q 717 899 669 904 l 717 757 q 660 741 680 757 q 627 696 640 726 l 538 504 l 730 0 z "},"λ":{"ha":675,"x_min":-1,"x_max":675,"o":"m -1 0 l 149 827 q 158 914 158 880 q 102 957 158 957 l 65 957 l 65 1099 l 232 1099 q 431 1068 370 1099 q 512 967 491 1038 q 551 725 534 896 l 606 210 q 618 156 610 165 q 639 146 627 146 q 675 147 649 146 l 675 1 q 518 -8 595 -8 q 375 147 386 -8 l 338 681 l 248 0 l -1 0 z "},"μ":{"ha":732,"x_min":49,"x_max":681,"o":"m 49 900 l 322 900 l 322 204 q 364 143 322 143 q 397 158 387 143 q 407 220 407 172 l 407 900 l 681 900 l 681 0 l 401 0 l 406 75 q 322 9 368 24 l 322 -115 l 49 -115 l 49 900 z "},"ν":{"ha":607,"x_min":-8,"x_max":615,"o":"m 615 900 l 487 0 l 130 0 l -8 900 l 237 900 l 313 243 q 343 596 322 315 q 370 900 355 753 l 615 900 z "},"ξ":{"ha":530,"x_min":33,"x_max":522,"o":"m 168 578 q 41 745 41 635 q 58 817 41 784 q 106 877 74 850 q 172 924 138 905 q 225 957 205 944 l 39 957 l 39 1099 l 521 1099 l 521 961 q 357 863 418 917 q 296 760 296 810 q 334 680 296 707 q 428 653 373 653 l 428 518 q 307 412 307 496 q 313 374 307 389 q 330 352 319 359 q 378 336 340 346 q 490 260 458 315 q 522 115 522 205 q 475 -66 522 -7 q 311 -126 429 -126 l 178 -126 l 178 28 l 285 28 q 340 42 327 28 q 354 94 354 57 q 339 145 354 128 q 290 168 323 161 l 144 196 q 33 386 33 216 q 65 508 33 463 q 168 578 96 553 z "},"ο":{"ha":710,"x_min":41,"x_max":669,"o":"m 669 584 l 669 363 q 656 185 669 242 q 604 80 644 129 q 502 7 564 31 q 357 -16 439 -16 q 203 4 267 -16 q 105 64 140 24 q 56 162 71 104 q 41 334 41 219 l 41 564 q 68 760 41 690 q 165 873 95 831 q 346 916 236 916 q 504 889 438 916 q 606 817 570 861 q 655 726 642 773 q 669 584 669 680 m 395 652 q 387 739 395 721 q 355 757 380 757 q 323 739 331 757 q 315 652 315 721 l 315 245 q 323 162 315 182 q 355 143 331 143 q 387 161 379 143 q 395 237 395 178 l 395 652 z "},"π":{"ha":755,"x_min":4,"x_max":751,"o":"m 751 900 l 751 745 l 694 745 l 694 0 l 421 0 l 421 745 l 336 745 l 336 0 l 62 0 l 62 745 l 4 745 l 4 900 l 751 900 z "},"ρ":{"ha":718,"x_min":49,"x_max":676,"o":"m 322 5 l 322 -129 l 49 -129 l 49 567 q 58 704 49 646 q 106 811 68 762 q 207 884 144 860 q 354 908 269 908 q 511 884 444 908 q 619 813 578 860 q 668 718 659 766 q 676 586 676 671 l 676 311 q 630 74 676 149 q 464 0 585 0 q 322 5 399 0 m 322 654 l 322 146 q 363 144 345 144 q 391 158 380 144 q 403 193 403 172 l 403 654 q 397 738 403 717 q 363 760 391 760 q 328 738 334 760 q 322 654 322 715 z "},"ς":{"ha":538,"x_min":36,"x_max":525,"o":"m 310 425 q 316 378 310 395 q 332 353 321 360 q 380 336 342 346 q 493 260 461 315 q 525 115 525 205 q 478 -66 525 -7 q 314 -126 431 -126 l 180 -126 l 180 28 l 288 28 q 344 41 331 28 q 357 97 357 54 q 344 145 357 131 q 292 168 332 160 l 144 198 q 82 228 107 205 q 47 293 58 251 q 36 414 36 336 l 36 600 q 102 827 36 747 q 285 908 168 908 q 493 899 353 908 l 493 760 q 400 764 436 764 q 332 731 354 764 q 310 619 310 699 l 310 425 z "},"σ":{"ha":722,"x_min":40,"x_max":728,"o":"m 728 900 l 728 746 l 648 746 q 668 568 668 706 l 668 357 q 655 174 668 234 q 599 70 643 115 q 493 9 555 26 q 312 -8 431 -8 q 214 -1 252 -8 q 135 33 175 5 q 74 101 96 60 q 46 193 53 142 q 40 326 40 244 l 40 558 q 50 697 40 640 q 100 803 60 754 q 201 876 139 852 q 346 900 264 900 l 728 900 m 395 184 l 395 636 q 389 721 395 699 q 354 742 382 742 q 320 720 326 742 q 314 636 314 698 l 314 214 q 354 136 314 136 q 383 150 372 136 q 395 184 395 163 z "},"τ":{"ha":510,"x_min":4,"x_max":505,"o":"m 505 900 l 505 745 l 392 745 l 392 243 q 409 169 392 195 q 482 142 427 142 l 482 0 l 437 0 q 236 13 298 0 q 146 80 175 26 q 118 257 118 133 l 118 745 l 4 745 l 4 900 l 505 900 z "},"υ":{"ha":725,"x_min":49,"x_max":681,"o":"m 681 900 l 681 281 q 652 113 681 175 q 559 21 623 50 q 364 -8 494 -8 q 115 62 182 -8 q 49 288 49 133 l 49 900 l 322 900 l 322 199 q 364 138 322 138 q 397 152 387 138 q 407 214 407 167 l 407 900 l 681 900 z "},"φ":{"ha":1067,"x_min":41,"x_max":1026,"o":"m 41 635 q 132 837 41 768 q 383 905 222 905 l 383 761 q 336 732 357 761 q 315 657 315 703 l 315 205 q 371 144 315 144 l 399 144 l 399 567 q 408 704 399 646 q 456 811 418 762 q 557 884 494 860 q 704 908 619 908 q 861 884 794 908 q 969 813 928 860 q 1018 718 1009 766 q 1026 586 1026 671 l 1026 311 q 1004 159 1026 233 q 905 42 981 85 q 722 0 828 0 l 672 0 l 672 -129 l 399 -129 l 399 0 l 347 0 q 165 41 241 0 q 65 158 90 83 q 41 306 41 233 l 41 635 m 753 205 l 753 654 q 743 743 753 726 q 713 760 732 760 q 682 741 692 760 q 672 654 672 722 l 672 144 l 699 144 q 738 162 724 144 q 753 205 753 180 z "},"χ":{"ha":690,"x_min":14,"x_max":681,"o":"m 100 675 q 77 741 88 723 q 36 758 66 758 q 14 757 28 758 l 14 896 q 154 905 77 905 q 255 869 222 905 q 300 760 288 832 l 339 543 l 415 900 l 659 900 l 522 400 l 576 186 q 608 62 604 73 q 620 38 612 50 q 638 20 629 25 q 681 12 648 14 l 681 -123 q 524 -134 601 -134 q 432 -96 466 -134 q 385 17 399 -59 l 334 281 l 248 -129 l 14 -129 l 164 414 l 100 675 z "},"ψ":{"ha":1028,"x_min":-1,"x_max":1029,"o":"m 325 171 q 110 246 184 171 q 36 482 36 321 l 36 722 q -1 900 36 848 l 249 900 q 294 741 294 859 l 294 396 q 314 339 294 362 q 363 315 334 315 l 378 315 l 378 1099 l 650 1099 l 650 315 l 665 315 q 713 339 694 315 q 733 396 733 363 l 733 741 q 779 900 733 859 l 1029 900 q 991 722 991 848 l 991 482 q 970 332 991 406 q 878 215 948 258 q 703 171 808 171 l 650 171 l 650 -129 l 378 -129 l 378 171 l 325 171 z "},"ω":{"ha":1088,"x_min":49,"x_max":1039,"o":"m 765 647 q 675 751 765 743 l 644 754 l 644 901 q 697 904 678 904 q 928 862 849 904 q 1039 652 1039 802 l 1039 307 q 1017 126 1039 180 q 906 16 983 47 q 742 -8 846 -8 q 618 26 675 -8 q 543 114 562 60 q 470 27 529 61 q 339 -7 410 -7 q 68 138 129 -8 q 49 306 49 184 l 49 650 q 159 860 49 800 q 390 903 239 903 q 443 900 410 903 l 443 753 l 412 750 q 322 646 322 742 l 322 204 q 364 138 322 138 q 407 183 407 138 l 407 637 l 681 637 l 681 182 q 695 151 681 163 q 728 138 709 138 q 765 205 765 138 l 765 646 l 765 647 z "},"ϊ":{"ha":422,"x_min":-26,"x_max":447,"o":"m 49 257 l 49 900 l 322 900 l 322 243 q 339 169 322 195 q 412 142 357 142 l 412 0 l 368 0 q 167 13 228 0 q 77 80 106 26 q 49 257 49 133 m 151 1137 l 151 960 l -26 960 l -26 1137 l 151 1137 m 447 1137 l 447 960 l 270 960 l 270 1137 l 447 1137 z "},"ϋ":{"ha":725,"x_min":49,"x_max":681,"o":"m 681 900 l 681 281 q 652 113 681 175 q 559 21 623 50 q 364 -8 494 -8 q 115 62 182 -8 q 49 288 49 133 l 49 900 l 322 900 l 322 199 q 364 138 322 138 q 397 152 387 138 q 407 214 407 167 l 407 900 l 681 900 m 302 1137 l 302 960 l 125 960 l 125 1137 l 302 1137 m 598 1137 l 598 960 l 421 960 l 421 1137 l 598 1137 z "},"ό":{"ha":710,"x_min":41,"x_max":669,"o":"m 669 584 l 669 363 q 656 185 669 242 q 604 80 644 129 q 502 7 564 31 q 357 -16 439 -16 q 203 4 267 -16 q 105 64 140 24 q 56 162 71 104 q 41 334 41 219 l 41 564 q 68 760 41 690 q 165 873 95 831 q 346 916 236 916 q 504 889 438 916 q 606 817 570 861 q 655 726 642 773 q 669 584 669 680 m 395 652 q 387 739 395 721 q 355 757 380 757 q 323 739 331 757 q 315 652 315 721 l 315 245 q 323 162 315 182 q 355 143 331 143 q 387 161 379 143 q 395 237 395 178 l 395 652 m 297 1143 l 483 1143 l 398 960 l 261 960 l 297 1143 z "},"ύ":{"ha":725,"x_min":49,"x_max":681,"o":"m 681 900 l 681 281 q 652 113 681 175 q 559 21 623 50 q 364 -8 494 -8 q 115 62 182 -8 q 49 288 49 133 l 49 900 l 322 900 l 322 199 q 364 138 322 138 q 397 152 387 138 q 407 214 407 167 l 407 900 l 681 900 m 309 1143 l 495 1143 l 410 960 l 273 960 l 309 1143 z "},"ώ":{"ha":1088,"x_min":49,"x_max":1039,"o":"m 765 647 q 675 751 765 743 l 644 754 l 644 901 q 697 904 678 904 q 928 862 849 904 q 1039 652 1039 802 l 1039 307 q 1017 126 1039 180 q 906 16 983 47 q 742 -8 846 -8 q 618 26 675 -8 q 543 114 562 60 q 470 27 529 61 q 339 -7 410 -7 q 68 138 129 -8 q 49 306 49 184 l 49 650 q 159 860 49 800 q 390 903 239 903 q 443 900 410 903 l 443 753 l 412 750 q 322 646 322 742 l 322 204 q 364 138 322 138 q 407 183 407 138 l 407 637 l 681 637 l 681 182 q 695 151 681 163 q 728 138 709 138 q 765 205 765 138 l 765 646 l 765 647 m 489 1143 l 675 1143 l 590 960 l 453 960 l 489 1143 z "},"Ё":{"ha":577,"x_min":57,"x_max":552,"o":"m 57 1098 l 533 1098 l 533 878 l 342 878 l 342 670 l 521 670 l 521 461 l 342 461 l 342 220 l 552 220 l 552 0 l 57 0 l 57 1098 m 251 1309 l 251 1133 l 74 1133 l 74 1309 l 251 1309 m 547 1309 l 547 1133 l 370 1133 l 370 1309 l 547 1309 z "},"Ђ":{"ha":918,"x_min":7,"x_max":861,"o":"m 861 244 q 811 47 861 94 q 610 0 761 0 l 514 0 l 514 189 q 563 211 550 189 q 575 275 575 232 l 575 473 q 564 586 575 564 q 526 607 553 607 q 463 497 463 607 l 463 0 l 176 0 l 176 907 l 7 907 l 7 1099 l 631 1099 l 631 907 l 463 907 l 463 671 q 549 736 491 713 q 675 758 606 758 q 775 732 729 758 q 841 660 821 707 q 861 524 861 612 l 861 244 z "},"Ѓ":{"ha":572,"x_min":57,"x_max":553,"o":"m 553 879 l 343 879 l 343 0 l 57 0 l 57 1099 l 553 1099 l 553 879 m 534 1316 l 311 1133 l 174 1133 l 293 1316 l 534 1316 z "},"Є":{"ha":770,"x_min":57,"x_max":715,"o":"m 715 310 q 633 68 715 144 q 371 -8 550 -8 q 133 65 210 -8 q 57 298 57 138 l 57 836 q 378 1107 57 1107 q 642 1045 568 1107 q 715 840 715 983 l 715 747 l 441 747 l 441 873 q 392 939 441 939 q 355 921 368 939 q 343 844 343 903 l 343 654 l 507 654 l 507 494 l 343 494 l 343 313 q 351 192 343 222 q 395 161 359 161 q 441 228 441 161 l 441 396 l 715 396 l 715 310 z "},"Ѕ":{"ha":718,"x_min":33,"x_max":686,"o":"m 662 766 l 397 766 l 397 847 q 387 920 397 904 q 353 935 376 935 q 314 914 327 935 q 300 850 300 893 q 315 768 300 795 q 396 701 330 740 q 636 515 587 587 q 686 281 686 442 q 658 108 686 163 q 552 15 631 52 q 369 -23 473 -23 q 173 20 254 -23 q 67 131 92 64 q 42 321 42 198 l 42 393 l 307 393 l 307 260 q 318 180 307 198 q 358 163 330 163 q 400 185 387 163 q 414 252 414 208 q 388 378 414 349 q 254 478 361 408 q 113 581 148 549 q 56 669 79 612 q 33 812 33 725 q 65 997 33 939 q 170 1088 98 1055 q 343 1121 241 1121 q 533 1085 454 1121 q 636 995 611 1049 q 662 809 662 940 l 662 766 z "},"І":{"ha":400,"x_min":57,"x_max":342,"o":"m 342 1098 l 342 0 l 57 0 l 57 1098 l 342 1098 z "},"Ї":{"ha":400,"x_min":-39,"x_max":435,"o":"m 342 1098 l 342 0 l 57 0 l 57 1098 l 342 1098 m 138 1309 l 138 1133 l -39 1133 l -39 1309 l 138 1309 m 435 1309 l 435 1133 l 258 1133 l 258 1309 l 435 1309 z "},"Ј":{"ha":460,"x_min":12,"x_max":406,"o":"m 406 1098 l 406 364 q 403 152 406 199 q 372 67 399 105 q 297 15 345 29 q 155 0 250 0 l 12 0 l 12 192 q 50 190 38 190 q 98 205 80 190 q 118 241 115 220 q 121 326 121 263 l 121 1098 l 406 1098 z "},"Љ":{"ha":1166,"x_min":7,"x_max":1133,"o":"m 1133 257 q 1101 81 1133 134 q 1005 14 1069 27 q 799 0 940 0 l 468 0 l 468 879 l 385 879 l 385 257 q 353 81 385 134 q 257 14 321 27 q 52 0 193 0 l 7 0 l 7 189 q 79 202 59 189 q 98 290 98 215 l 98 1099 l 754 1099 l 754 722 l 799 722 q 998 707 930 722 q 1100 638 1066 691 q 1133 471 1133 585 l 1133 257 m 847 290 l 847 449 q 833 533 847 518 q 754 550 819 548 l 754 189 q 828 203 808 189 q 847 290 847 217 z "},"Њ":{"ha":1128,"x_min":57,"x_max":1092,"o":"m 1092 257 q 1060 81 1092 134 q 963 14 1028 27 q 757 0 899 0 l 427 0 l 427 461 l 343 461 l 343 0 l 57 0 l 57 1099 l 343 1099 l 343 705 l 427 705 l 427 1099 l 713 1099 l 713 722 l 757 722 q 957 707 889 722 q 1058 638 1024 691 q 1092 471 1092 585 l 1092 257 m 806 290 l 806 449 q 792 533 806 518 q 713 550 778 548 l 713 189 q 786 203 767 189 q 806 290 806 217 z "},"Ћ":{"ha":918,"x_min":7,"x_max":861,"o":"m 463 667 q 550 734 492 711 q 675 758 609 758 q 797 727 754 758 q 850 644 840 696 q 861 481 861 591 l 861 0 l 575 0 l 575 473 q 564 586 575 564 q 526 607 553 607 q 463 497 463 607 l 463 0 l 176 0 l 176 907 l 7 907 l 7 1099 l 631 1099 l 631 907 l 463 907 l 463 667 z "},"Ќ":{"ha":745,"x_min":57,"x_max":743,"o":"m 57 1099 l 343 1099 l 345 635 q 428 724 425 637 l 433 939 q 479 1099 436 1057 l 743 1099 q 705 933 705 1059 l 707 745 q 514 550 708 574 q 707 353 708 526 l 705 178 q 743 0 705 53 l 479 0 q 433 160 433 41 l 433 374 q 409 440 433 415 q 345 465 384 465 l 343 0 l 57 0 l 57 1099 m 340 1213 l 526 1213 l 441 1030 l 304 1030 l 340 1213 z "},"Ў":{"ha":623,"x_min":-8,"x_max":623,"o":"m 623 1099 l 545 371 q 505 129 526 199 q 424 30 484 60 q 225 0 363 0 l 58 0 l 58 142 l 75 142 q 145 151 132 142 q 158 179 158 160 q 142 272 158 180 l -8 1099 l 240 1099 l 330 415 l 374 1099 l 623 1099 m 394 1337 l 509 1337 q 455 1189 505 1245 q 317 1133 406 1133 q 178 1189 227 1133 q 125 1337 129 1246 l 240 1337 q 317 1244 248 1244 q 394 1337 386 1244 z "},"Џ":{"ha":771,"x_min":57,"x_max":714,"o":"m 714 0 l 486 0 l 486 -189 l 289 -189 l 289 0 l 57 0 l 57 1099 l 343 1099 l 343 220 l 428 220 l 428 1099 l 714 1099 l 714 0 z "},"А":{"ha":705,"x_min":-8,"x_max":713,"o":"m 550 1098 l 713 0 l 421 0 l 407 197 l 304 197 l 288 0 l -8 0 l 137 1098 l 550 1098 m 399 392 q 355 852 377 578 q 301 392 312 538 l 399 392 z "},"Б":{"ha":766,"x_min":57,"x_max":722,"o":"m 722 257 q 690 81 722 134 q 594 14 659 27 q 387 0 529 0 l 57 0 l 57 1099 l 616 1099 l 616 908 l 343 908 l 343 722 l 387 722 q 587 707 519 722 q 689 638 655 691 q 722 471 722 585 l 722 257 m 436 290 l 436 449 q 422 533 436 518 q 343 550 408 548 l 343 189 q 417 203 397 189 q 436 290 436 217 z "},"В":{"ha":767,"x_min":57,"x_max":722,"o":"m 57 1098 l 342 1098 q 546 1077 477 1098 q 659 992 616 1056 q 701 785 701 928 q 671 651 701 689 q 552 593 641 613 q 686 518 651 570 q 722 359 722 467 l 722 258 q 696 93 722 146 q 615 20 671 39 q 387 0 559 0 l 57 0 l 57 1098 m 342 910 l 342 666 q 371 667 361 667 q 425 687 413 667 q 436 806 436 708 q 427 878 436 857 q 402 904 417 899 q 342 910 387 909 m 342 495 l 342 188 q 419 207 403 190 q 436 290 436 224 l 436 393 q 421 478 436 463 q 342 495 406 493 z "},"Г":{"ha":572,"x_min":57,"x_max":553,"o":"m 553 879 l 343 879 l 343 0 l 57 0 l 57 1099 l 553 1099 l 553 879 z "},"Д":{"ha":905,"x_min":18,"x_max":873,"o":"m 873 -189 l 676 -189 l 676 0 l 215 0 l 215 -189 l 18 -189 l 18 229 l 77 229 q 152 584 123 364 q 182 1065 182 804 l 182 1099 l 815 1099 l 815 231 l 873 231 l 873 -189 m 529 231 l 529 882 l 444 882 l 444 873 q 376 231 444 558 l 529 231 z "},"Е":{"ha":577,"x_min":57,"x_max":552,"o":"m 57 1098 l 533 1098 l 533 878 l 342 878 l 342 670 l 521 670 l 521 461 l 342 461 l 342 220 l 552 220 l 552 0 l 57 0 l 57 1098 z "},"Ж":{"ha":1028,"x_min":16,"x_max":1017,"o":"m 372 472 q 282 395 282 470 l 282 106 q 270 24 282 48 q 252 0 257 0 l 16 0 q 46 131 46 44 l 46 378 q 90 498 46 456 q 240 557 134 539 l 240 558 q 47 737 47 568 l 47 970 q 17 1099 47 1056 l 253 1099 q 273 1069 263 1095 q 283 994 283 1044 l 283 721 q 372 643 283 646 l 372 1099 l 659 1099 l 659 643 q 749 721 749 646 l 749 994 q 761 1075 749 1051 q 779 1099 773 1099 l 1015 1099 q 985 970 985 1056 l 985 737 q 791 558 985 568 l 791 557 q 942 498 898 539 q 986 378 986 456 l 986 131 q 1017 0 986 44 l 781 0 q 760 31 770 5 q 750 106 750 56 l 750 395 q 659 472 750 470 l 659 0 l 372 0 l 372 472 z "},"З":{"ha":736,"x_min":41,"x_max":687,"o":"m 564 622 q 656 553 626 601 q 687 329 687 505 q 657 126 687 198 q 554 16 627 54 q 366 -22 481 -22 q 162 22 236 -22 q 64 129 87 66 q 41 349 41 193 l 41 436 l 315 436 l 315 258 q 323 167 315 186 q 361 148 332 148 q 403 172 393 148 q 413 300 413 197 l 413 376 q 399 468 413 439 q 357 506 385 497 q 249 517 329 515 l 249 676 q 370 684 347 676 q 403 716 393 691 q 413 795 413 741 l 413 856 q 401 932 413 913 q 364 950 389 950 q 325 931 336 950 q 315 848 315 911 l 315 758 l 41 758 l 41 852 q 113 1064 41 1009 q 341 1120 184 1120 q 607 1043 537 1120 q 677 830 677 966 q 652 697 677 738 q 564 622 627 656 z "},"И":{"ha":751,"x_min":57,"x_max":694,"o":"m 694 0 l 456 0 l 456 500 l 307 0 l 57 0 l 57 1099 l 296 1099 l 296 603 l 456 1099 l 694 1099 l 694 0 z "},"Й":{"ha":751,"x_min":57,"x_max":694,"o":"m 694 0 l 456 0 l 456 500 l 307 0 l 57 0 l 57 1099 l 296 1099 l 296 603 l 456 1099 l 694 1099 l 694 0 m 451 1337 l 566 1337 q 512 1189 562 1245 q 374 1133 463 1133 q 235 1189 284 1133 q 182 1337 186 1246 l 297 1337 q 374 1244 305 1244 q 451 1337 443 1244 z "},"К":{"ha":745,"x_min":57,"x_max":743,"o":"m 57 1099 l 343 1099 l 345 635 q 428 724 425 637 l 433 939 q 479 1099 436 1057 l 743 1099 q 705 933 705 1059 l 707 745 q 514 550 708 574 q 707 353 708 526 l 705 178 q 743 0 705 53 l 479 0 q 433 160 433 41 l 433 374 q 409 440 433 415 q 345 465 384 465 l 343 0 l 57 0 l 57 1099 z "},"Л":{"ha":811,"x_min":7,"x_max":754,"o":"m 754 0 l 468 0 l 468 879 l 385 879 l 385 257 q 353 81 385 134 q 257 14 321 27 q 52 0 193 0 l 7 0 l 7 189 q 79 202 59 189 q 98 290 98 215 l 98 1099 l 754 1099 l 754 0 z "},"М":{"ha":996,"x_min":57,"x_max":938,"o":"m 938 1098 l 938 0 l 688 0 l 688 741 l 589 0 l 412 0 l 307 724 l 307 0 l 57 0 l 57 1098 l 427 1098 q 461 865 443 999 l 500 585 l 566 1098 l 938 1098 z "},"Н":{"ha":771,"x_min":57,"x_max":713,"o":"m 713 1098 l 713 0 l 428 0 l 428 461 l 342 461 l 342 0 l 57 0 l 57 1098 l 342 1098 l 342 705 l 428 705 l 428 1098 l 713 1098 z "},"О":{"ha":759,"x_min":49,"x_max":709,"o":"m 709 455 q 702 221 709 290 q 653 95 694 152 q 542 7 612 38 q 379 -23 472 -23 q 221 6 291 -23 q 108 92 151 35 q 57 218 65 150 q 49 455 49 286 l 49 643 q 57 877 49 808 q 105 1003 64 946 q 216 1090 146 1060 q 379 1121 286 1121 q 537 1092 467 1121 q 650 1006 608 1063 q 701 880 693 948 q 709 643 709 812 l 709 455 m 424 816 q 415 914 424 892 q 380 935 407 935 q 346 918 358 935 q 334 816 334 901 l 334 303 q 342 185 334 208 q 378 163 350 163 q 416 189 408 163 q 424 311 424 214 l 424 816 z "},"П":{"ha":771,"x_min":57,"x_max":714,"o":"m 714 0 l 428 0 l 428 879 l 343 879 l 343 0 l 57 0 l 57 1099 l 714 1099 l 714 0 z "},"Р":{"ha":697,"x_min":57,"x_max":672,"o":"m 57 1098 l 345 1098 q 524 1080 461 1098 q 618 1027 587 1061 q 661 943 650 992 q 672 791 672 894 l 672 695 q 650 542 672 590 q 571 468 629 494 q 419 442 513 442 l 342 442 l 342 0 l 57 0 l 57 1098 m 342 910 l 342 631 q 363 630 355 630 q 418 649 403 630 q 433 730 433 669 l 433 820 q 416 893 433 876 q 342 910 398 910 z "},"С":{"ha":769,"x_min":49,"x_max":724,"o":"m 724 619 l 438 619 l 438 810 q 429 915 438 894 q 389 935 420 935 q 344 910 353 935 q 334 802 334 885 l 334 292 q 344 187 334 212 q 387 163 353 163 q 428 187 418 163 q 438 302 438 212 l 438 439 l 724 439 l 724 397 q 700 155 724 227 q 593 31 675 84 q 390 -23 511 -23 q 183 22 264 -23 q 75 148 102 68 q 49 390 49 229 l 49 711 q 57 889 49 829 q 105 1003 65 948 q 217 1089 146 1058 q 382 1121 289 1121 q 590 1072 508 1121 q 698 950 672 1023 q 724 724 724 878 l 724 619 z "},"Т":{"ha":640,"x_min":8,"x_max":632,"o":"m 632 1098 l 632 878 l 463 878 l 463 0 l 177 0 l 177 878 l 8 878 l 8 1098 l 632 1098 z "},"У":{"ha":623,"x_min":-8,"x_max":623,"o":"m 623 1099 l 545 371 q 505 129 526 199 q 424 30 484 60 q 225 0 363 0 l 58 0 l 58 142 l 75 142 q 145 151 132 142 q 158 179 158 160 q 142 272 158 180 l -8 1099 l 240 1099 l 330 415 l 374 1099 l 623 1099 z "},"Ф":{"ha":1107,"x_min":21,"x_max":1086,"o":"m 1084 538 q 1074 382 1084 430 q 1014 264 1060 317 q 743 182 942 182 l 693 182 l 693 0 l 407 0 l 407 182 l 363 182 q 92 264 163 182 q 31 382 45 317 q 21 538 21 430 l 21 557 q 31 712 21 665 q 92 831 45 778 q 363 911 163 911 q 407 913 378 911 l 407 1099 l 693 1099 l 693 913 q 743 911 728 911 q 1014 831 943 911 q 1074 712 1060 778 q 1084 557 1084 665 l 1084 538 m 799 476 l 799 618 q 777 708 799 674 q 722 742 755 742 l 693 742 l 693 353 l 722 353 q 777 387 755 353 q 799 476 799 420 m 407 353 l 407 742 l 383 742 q 329 708 351 742 q 307 618 307 674 l 307 476 q 329 387 307 420 q 383 353 351 353 l 407 353 m 1086 538 z "},"Х":{"ha":670,"x_min":0,"x_max":686,"o":"m 635 1098 l 536 612 l 686 0 l 422 0 q 335 399 374 164 q 305 179 324 296 l 278 0 l 0 0 l 103 612 l 0 1098 l 276 1098 q 306 947 283 1053 q 335 799 323 866 l 396 1098 l 635 1098 z "},"Ц":{"ha":791,"x_min":57,"x_max":772,"o":"m 772 -189 l 575 -189 l 575 0 l 57 0 l 57 1099 l 343 1099 l 343 220 l 428 220 l 428 1099 l 714 1099 l 714 220 l 772 220 l 772 -189 z "},"Ч":{"ha":790,"x_min":49,"x_max":733,"o":"m 447 421 q 357 362 412 385 q 244 340 301 340 q 95 397 142 340 q 49 574 49 454 l 49 1099 l 335 1099 l 335 604 q 346 516 335 540 q 383 492 357 492 q 447 602 447 492 l 447 1099 l 733 1099 l 733 0 l 447 0 l 447 421 z "},"Ш":{"ha":1143,"x_min":57,"x_max":1086,"o":"m 1086 0 l 57 0 l 57 1099 l 343 1099 l 343 220 l 428 220 l 428 1099 l 714 1099 l 714 220 l 799 220 l 799 1099 l 1086 1099 l 1086 0 z "},"Щ":{"ha":1166,"x_min":57,"x_max":1140,"o":"m 1140 -189 l 943 -189 l 943 0 l 57 0 l 57 1099 l 343 1099 l 343 220 l 425 220 l 425 1099 l 711 1099 l 711 220 l 796 220 l 796 1099 l 1082 1099 l 1082 220 l 1140 220 l 1140 -189 z "},"Ъ":{"ha":863,"x_min":17,"x_max":819,"o":"m 819 257 q 787 81 819 134 q 691 14 755 27 q 485 0 626 0 l 154 0 l 154 926 l 17 926 l 17 1099 l 440 1099 l 440 722 l 485 722 q 685 707 617 722 q 786 638 752 691 q 819 471 819 585 l 819 257 m 533 290 l 533 449 q 519 533 533 518 q 440 550 505 548 l 440 189 q 514 203 494 189 q 533 290 533 217 z "},"Ы":{"ha":1153,"x_min":57,"x_max":1105,"o":"m 722 257 q 690 81 722 134 q 594 14 659 27 q 387 0 529 0 l 57 0 l 57 1099 l 343 1099 l 343 722 l 387 722 q 587 707 519 722 q 689 638 655 691 q 722 471 722 585 l 722 257 m 436 290 l 436 449 q 422 533 436 518 q 343 550 408 548 l 343 189 q 417 203 397 189 q 436 290 436 217 m 1105 0 l 819 0 l 819 1099 l 1105 1099 l 1105 0 z "},"Ь":{"ha":766,"x_min":57,"x_max":722,"o":"m 722 257 q 690 81 722 134 q 594 14 659 27 q 387 0 529 0 l 57 0 l 57 1099 l 343 1099 l 343 722 l 387 722 q 587 707 519 722 q 689 638 655 691 q 722 471 722 585 l 722 257 m 436 290 l 436 449 q 422 533 436 518 q 343 550 408 548 l 343 189 q 417 203 397 189 q 436 290 436 217 z "},"Э":{"ha":736,"x_min":40,"x_max":681,"o":"m 681 298 q 603 66 681 140 q 363 -8 525 -8 q 115 64 191 -8 q 40 310 40 136 l 40 396 l 314 396 l 314 228 q 361 161 314 161 q 401 187 395 161 q 407 313 407 213 l 407 494 l 249 494 l 249 654 l 407 654 l 407 842 q 400 915 407 895 q 364 936 393 936 q 314 871 314 936 l 314 745 l 40 745 l 40 838 q 111 1048 40 991 q 355 1105 181 1105 q 598 1036 516 1105 q 681 833 681 967 l 681 298 z "},"Ю":{"ha":1131,"x_min":57,"x_max":1082,"o":"m 421 461 l 343 461 l 343 0 l 57 0 l 57 1099 l 343 1099 l 343 705 l 421 705 q 436 912 422 848 q 492 1018 449 975 q 600 1078 536 1060 q 751 1096 664 1096 q 908 1077 843 1096 q 1017 1011 974 1057 q 1070 892 1059 965 q 1082 643 1082 819 l 1082 456 q 1071 206 1082 278 q 1017 87 1060 134 q 908 18 974 39 q 751 -3 842 -3 q 604 16 667 -3 q 499 74 541 34 q 443 160 456 114 q 425 274 429 206 q 421 456 421 342 l 421 461 m 796 271 l 796 815 q 789 910 796 884 q 751 936 782 936 q 717 916 727 936 q 707 815 707 896 l 707 252 q 715 186 707 209 q 750 163 723 163 q 785 181 774 163 q 796 271 796 200 z "},"Я":{"ha":747,"x_min":56,"x_max":693,"o":"m 693 0 l 407 0 l 407 494 q 337 476 353 494 q 321 397 321 458 l 321 0 l 56 0 l 56 328 q 65 454 56 411 q 107 526 74 498 q 212 574 140 555 q 85 630 114 583 q 56 799 56 677 q 83 971 56 909 q 161 1060 110 1033 q 280 1093 213 1087 q 490 1099 347 1099 l 693 1099 l 693 0 m 407 667 l 407 909 l 393 909 q 339 893 357 909 q 321 825 321 878 l 321 765 q 336 685 321 704 q 407 667 351 667 z "},"а":{"ha":700,"x_min":37,"x_max":654,"o":"m 294 551 l 37 551 l 37 612 q 61 773 37 716 q 157 873 85 829 q 346 916 230 916 q 555 867 485 916 q 640 746 626 818 q 654 452 654 675 l 654 0 l 388 0 l 388 80 q 323 8 363 32 q 229 -16 283 -16 q 97 24 157 -16 q 37 201 37 64 l 37 275 q 68 412 37 376 q 227 498 100 449 q 371 569 361 551 q 380 644 380 587 q 370 735 380 714 q 335 757 359 757 q 300 739 307 757 q 294 646 294 721 l 294 551 m 380 428 q 304 347 315 380 q 294 254 294 315 q 303 163 294 184 q 339 143 312 143 q 373 159 365 143 q 380 243 380 175 l 380 428 z "},"б":{"ha":725,"x_min":49,"x_max":676,"o":"m 403 184 l 403 644 q 399 719 403 705 q 363 750 392 750 q 326 718 333 750 q 322 644 322 703 l 322 214 q 363 136 322 136 q 403 184 403 136 m 468 900 q 672 742 663 900 q 676 576 676 667 l 676 357 q 656 149 676 204 q 361 -8 596 -8 q 245 -5 273 -8 q 149 29 189 2 q 64 149 85 73 q 49 326 49 205 l 49 854 q 123 1037 49 966 q 318 1107 198 1107 q 462 1100 368 1107 q 585 1093 555 1093 q 646 1101 621 1093 l 646 960 q 593 950 612 950 q 489 956 556 950 q 392 961 421 961 q 323 908 336 961 q 319 821 319 892 q 468 900 385 900 z "},"в":{"ha":714,"x_min":49,"x_max":684,"o":"m 684 237 q 624 50 684 100 q 363 0 564 0 l 49 0 l 49 900 l 372 900 q 601 845 538 900 q 664 657 664 790 q 505 484 664 505 q 636 419 588 470 q 684 290 684 368 l 684 237 m 321 566 q 397 581 383 566 q 411 643 411 597 q 395 696 411 682 q 321 711 380 711 l 321 566 m 411 279 l 411 310 q 395 383 411 368 q 321 397 380 397 l 321 189 q 393 205 376 189 q 411 279 411 221 z "},"г":{"ha":479,"x_min":49,"x_max":479,"o":"m 49 0 l 49 900 l 479 900 l 479 745 l 322 745 l 322 0 l 49 0 z "},"д":{"ha":865,"x_min":18,"x_max":846,"o":"m 846 -174 l 663 -174 l 663 0 l 201 0 l 201 -174 l 18 -174 l 18 215 l 77 215 q 162 466 129 296 q 196 867 196 635 l 196 900 l 787 900 l 787 216 l 846 216 l 846 -174 m 515 216 l 515 697 l 444 697 l 444 688 q 363 216 444 437 l 515 216 z "},"е":{"ha":710,"x_min":41,"x_max":669,"o":"m 669 434 l 315 434 l 315 239 q 323 161 315 178 q 357 143 332 143 q 399 166 389 143 q 410 257 410 190 l 410 376 l 669 376 l 669 309 q 659 181 669 226 q 610 85 648 136 q 512 9 571 35 q 363 -16 452 -16 q 210 9 276 -16 q 106 78 143 34 q 55 174 69 121 q 41 327 41 227 l 41 589 q 73 775 41 707 q 177 880 104 844 q 344 916 250 916 q 534 872 459 916 q 639 756 609 829 q 669 553 669 684 l 669 434 m 395 581 l 395 646 q 387 736 395 716 q 357 757 380 757 q 321 740 328 757 q 315 646 315 722 l 315 581 l 395 581 z "},"ж":{"ha":1038,"x_min":8,"x_max":1029,"o":"m 1029 0 l 765 0 q 734 106 734 41 l 734 296 q 647 387 734 387 l 647 0 l 376 0 l 376 387 q 302 296 302 387 l 302 106 q 272 0 302 14 l 8 0 q 39 131 39 44 l 39 289 q 179 446 39 401 q 268 468 218 458 q 176 492 244 469 q 87 542 108 524 q 40 648 40 582 l 40 770 q 9 900 40 856 l 273 900 q 304 794 304 859 l 304 642 q 376 550 304 550 l 376 900 l 647 900 l 647 550 q 733 642 733 550 l 733 794 q 764 900 733 886 l 1028 900 q 997 770 997 856 l 997 648 q 951 542 997 582 q 861 492 930 524 q 770 468 820 473 q 859 446 793 464 q 999 289 999 401 l 999 131 q 1029 0 999 44 z "},"з":{"ha":701,"x_min":40,"x_max":660,"o":"m 534 482 q 629 422 599 462 q 660 300 660 383 q 646 166 660 208 q 594 81 633 124 q 487 19 555 38 q 336 0 419 0 q 106 64 172 0 q 40 298 40 129 l 40 364 l 300 364 l 300 237 q 347 170 300 170 q 386 189 372 170 q 399 290 399 208 l 399 347 q 372 401 399 387 q 262 416 346 416 l 262 545 l 283 545 q 359 547 341 545 q 388 567 376 550 q 399 623 399 583 l 399 642 q 386 715 399 699 q 350 730 374 730 q 300 671 300 730 l 300 597 l 40 597 l 40 637 q 110 840 40 780 q 342 900 179 900 q 573 842 498 900 q 648 664 648 785 q 624 543 648 583 q 534 482 600 503 z "},"и":{"ha":777,"x_min":49,"x_max":728,"o":"m 728 0 l 489 0 l 489 486 l 298 0 l 49 0 l 49 900 l 288 900 l 288 418 l 475 900 l 728 900 l 728 0 z "},"й":{"ha":777,"x_min":49,"x_max":728,"o":"m 728 0 l 489 0 l 489 486 l 298 0 l 49 0 l 49 900 l 288 900 l 288 418 l 475 900 l 728 900 l 728 0 m 464 1165 l 579 1165 q 525 1017 575 1073 q 387 960 475 960 q 248 1017 297 960 q 195 1165 199 1074 l 310 1165 q 387 1072 318 1072 q 464 1165 456 1072 z "},"к":{"ha":710,"x_min":49,"x_max":701,"o":"m 319 900 l 319 550 q 406 642 406 550 l 406 794 q 436 900 406 886 l 700 900 q 669 770 669 856 l 669 644 q 616 535 669 578 q 533 489 596 519 q 441 468 492 469 q 530 446 465 464 q 671 289 671 401 l 671 131 q 701 0 671 44 l 437 0 q 407 106 407 41 l 407 296 q 319 387 407 387 l 319 0 l 49 0 l 49 900 l 319 900 z "},"л":{"ha":779,"x_min":4,"x_max":737,"o":"m 465 0 l 465 711 l 368 711 l 368 257 q 340 80 368 133 q 250 13 311 26 q 49 0 189 0 l 4 0 l 4 147 q 76 160 56 148 q 96 249 96 173 l 96 900 l 737 900 l 737 0 l 465 0 z "},"м":{"ha":949,"x_min":49,"x_max":900,"o":"m 900 0 l 665 0 l 665 621 l 551 0 l 401 0 l 283 621 l 283 0 l 49 0 l 49 900 l 389 900 l 476 403 l 555 900 l 900 900 l 900 0 z "},"н":{"ha":741,"x_min":49,"x_max":692,"o":"m 692 0 l 419 0 l 419 332 l 321 332 l 321 0 l 49 0 l 49 900 l 321 900 l 321 576 l 419 576 l 419 900 l 692 900 l 692 0 z "},"о":{"ha":710,"x_min":41,"x_max":669,"o":"m 669 584 l 669 363 q 656 185 669 242 q 604 80 644 129 q 502 7 564 31 q 357 -16 439 -16 q 203 4 267 -16 q 105 64 140 24 q 56 162 71 104 q 41 334 41 219 l 41 564 q 68 760 41 690 q 165 873 95 831 q 346 916 236 916 q 504 889 438 916 q 606 817 570 861 q 655 726 642 773 q 669 584 669 680 m 395 652 q 387 739 395 721 q 355 757 380 757 q 323 739 331 757 q 315 652 315 721 l 315 245 q 323 162 315 182 q 355 143 331 143 q 387 161 379 143 q 395 237 395 178 l 395 652 z "},"п":{"ha":739,"x_min":49,"x_max":690,"o":"m 49 0 l 49 900 l 690 900 l 690 0 l 418 0 l 418 711 l 321 711 l 321 0 l 49 0 z "},"р":{"ha":721,"x_min":49,"x_max":680,"o":"m 328 900 l 323 821 q 404 892 359 869 q 500 916 448 916 q 610 882 564 916 q 668 803 656 848 q 680 651 680 758 l 680 272 q 665 97 680 149 q 605 15 650 45 q 496 -16 560 -16 q 402 7 446 -16 q 323 78 359 31 l 323 -128 l 49 -128 l 49 900 l 328 900 m 406 638 q 399 739 406 722 q 366 757 393 757 q 331 736 338 757 q 323 638 323 716 l 323 265 q 331 163 323 184 q 366 143 339 143 q 399 162 393 143 q 406 252 406 180 l 406 638 z "},"с":{"ha":687,"x_min":41,"x_max":654,"o":"m 654 560 l 396 560 l 396 664 q 387 738 396 718 q 355 757 378 757 q 323 740 331 757 q 315 664 315 723 l 315 239 q 327 167 315 191 q 363 143 339 143 q 400 168 391 143 q 410 263 410 193 l 410 370 l 654 370 q 647 209 654 262 q 601 98 640 155 q 501 13 563 41 q 349 -16 439 -16 q 165 23 233 -16 q 69 135 97 63 q 41 338 41 206 l 41 593 q 64 766 41 708 q 162 870 87 825 q 345 916 237 916 q 528 871 452 916 q 629 756 604 825 q 654 560 654 687 z "},"т":{"ha":597,"x_min":4,"x_max":591,"o":"m 591 900 l 591 711 l 435 711 l 435 0 l 161 0 l 161 711 l 4 711 l 4 900 l 591 900 z "},"у":{"ha":623,"x_min":-8,"x_max":623,"o":"m 623 900 l 544 249 q 513 38 526 94 q 471 -55 500 -18 q 390 -109 442 -92 q 224 -126 338 -126 l 58 -126 l 58 18 q 140 24 122 18 q 159 53 159 31 q 142 147 159 64 l -8 900 l 241 900 l 330 293 l 374 900 l 623 900 z "},"ф":{"ha":1068,"x_min":40,"x_max":1026,"o":"m 1026 272 q 1015 121 1026 178 q 963 30 1004 64 q 839 -4 922 -4 q 669 78 730 -4 l 669 -129 l 397 -129 l 397 77 q 220 -5 332 -5 q 104 23 146 -5 q 51 101 61 52 q 40 245 40 151 l 40 625 q 52 776 40 720 q 104 867 63 833 q 228 901 144 901 q 397 819 336 901 l 397 1040 l 669 1040 l 669 821 q 847 903 735 903 q 963 874 920 903 q 1016 796 1006 846 q 1026 652 1026 746 l 1026 272 m 753 211 l 753 639 q 752 719 753 705 q 743 745 751 733 q 713 757 734 757 q 680 740 690 757 q 669 681 669 724 l 669 212 q 714 143 669 143 q 743 157 733 143 q 753 211 753 170 m 397 216 l 397 685 q 353 754 397 754 q 324 741 334 754 q 314 686 314 727 l 314 258 q 315 178 314 193 q 324 152 315 164 q 354 140 333 140 q 387 157 377 140 q 397 216 397 174 z "},"х":{"ha":602,"x_min":0,"x_max":614,"o":"m 591 900 l 482 470 l 614 0 l 348 0 q 288 306 309 178 q 229 0 261 146 l 0 0 l 118 470 l 0 900 l 229 900 q 288 587 284 625 q 348 900 328 817 l 591 900 z "},"ц":{"ha":768,"x_min":49,"x_max":749,"o":"m 49 0 l 49 900 l 321 900 l 321 189 l 418 189 l 418 900 l 690 900 l 690 189 l 749 189 l 749 -174 l 566 -174 l 566 0 l 49 0 z "},"ч":{"ha":715,"x_min":40,"x_max":673,"o":"m 673 0 l 400 0 l 400 248 q 236 199 349 199 q 110 227 158 199 q 51 307 62 254 q 40 478 40 360 l 40 900 l 314 900 l 314 465 q 321 368 314 393 q 357 343 328 343 q 391 366 381 343 q 400 456 400 388 l 400 900 l 673 900 l 673 0 z "},"ш":{"ha":1112,"x_min":49,"x_max":1064,"o":"m 693 189 l 790 189 l 790 900 l 1064 900 l 1064 0 l 49 0 l 49 900 l 322 900 l 322 189 l 419 189 l 419 900 l 693 900 l 693 189 z "},"щ":{"ha":1141,"x_min":49,"x_max":1122,"o":"m 49 0 l 49 900 l 322 900 l 322 189 l 419 189 l 419 900 l 693 900 l 693 189 l 790 189 l 790 900 l 1064 900 l 1064 189 l 1122 189 l 1122 -174 l 939 -174 l 939 0 l 49 0 z "},"ъ":{"ha":823,"x_min":7,"x_max":782,"o":"m 782 257 q 753 80 782 134 q 663 13 724 26 q 461 0 602 0 l 144 0 l 144 711 l 7 711 l 7 900 l 416 900 l 416 600 l 461 600 q 656 585 592 600 q 751 516 721 569 q 782 349 782 463 l 782 257 m 510 290 l 510 326 q 496 411 510 396 q 416 428 481 426 l 416 189 q 490 203 471 189 q 510 290 510 217 z "},"ы":{"ha":1089,"x_min":49,"x_max":1042,"o":"m 686 257 q 657 80 686 134 q 567 13 629 26 q 366 0 505 0 l 49 0 l 49 900 l 321 900 l 321 600 l 366 600 q 561 585 496 600 q 656 516 625 569 q 686 349 686 463 l 686 257 m 414 290 l 414 326 q 400 411 414 396 q 321 428 386 426 l 321 189 q 394 203 375 189 q 414 290 414 217 m 1042 0 l 770 0 l 770 900 l 1042 900 l 1042 0 z "},"ь":{"ha":725,"x_min":49,"x_max":686,"o":"m 686 257 q 657 80 686 134 q 567 13 629 26 q 366 0 505 0 l 49 0 l 49 900 l 321 900 l 321 600 l 366 600 q 561 585 496 600 q 656 516 625 569 q 686 349 686 463 l 686 257 m 414 290 l 414 326 q 400 411 414 396 q 321 428 386 426 l 321 189 q 394 203 375 189 q 414 290 414 217 z "},"э":{"ha":694,"x_min":39,"x_max":653,"o":"m 269 533 l 393 533 l 393 689 q 383 741 393 728 q 351 754 373 754 q 319 731 326 754 q 313 644 313 708 l 313 587 l 40 587 l 40 628 q 78 780 40 716 q 184 871 117 844 q 364 899 251 899 q 581 831 509 899 q 653 587 653 764 l 653 325 q 643 186 653 239 q 595 87 633 134 q 496 19 557 41 q 345 -3 435 -3 q 197 16 255 -3 q 99 82 139 35 q 48 179 58 129 q 39 309 39 230 l 39 347 l 297 347 l 297 236 q 310 162 297 183 q 350 142 322 142 q 382 157 371 142 q 393 237 393 173 l 393 411 l 269 411 l 269 533 z "},"ю":{"ha":1075,"x_min":49,"x_max":1034,"o":"m 406 363 l 322 363 l 322 0 l 49 0 l 49 900 l 323 900 l 323 551 l 406 551 l 406 564 q 415 702 406 644 q 463 808 425 760 q 564 881 501 857 q 711 905 626 905 q 868 881 801 905 q 976 810 935 857 q 1025 715 1017 763 q 1034 583 1034 668 l 1034 364 q 1021 181 1034 241 q 965 77 1008 122 q 859 16 921 33 q 677 -1 796 -1 q 579 5 618 -1 q 500 39 540 12 q 439 108 461 66 q 412 200 418 149 q 406 334 406 251 l 406 363 m 760 192 l 760 652 q 753 735 760 714 q 720 757 747 757 q 685 735 692 757 q 679 652 679 713 l 679 221 q 720 143 679 143 q 748 157 737 143 q 760 192 760 171 z "},"я":{"ha":710,"x_min":45,"x_max":661,"o":"m 661 0 l 389 0 l 389 354 q 316 332 336 354 q 296 248 296 309 l 296 0 l 45 0 l 45 211 q 54 327 45 292 q 94 383 62 363 q 201 424 125 404 q 74 480 103 433 q 45 648 45 527 q 122 841 45 783 q 458 900 200 900 l 661 900 l 661 0 m 389 510 l 389 725 l 361 725 q 313 708 331 725 q 296 627 296 690 l 296 615 q 316 530 296 550 q 389 510 336 510 z "},"ё":{"ha":710,"x_min":41,"x_max":669,"o":"m 669 434 l 315 434 l 315 239 q 323 161 315 178 q 357 143 332 143 q 399 166 389 143 q 410 257 410 190 l 410 376 l 669 376 l 669 309 q 659 181 669 226 q 610 85 648 136 q 512 9 571 35 q 363 -16 452 -16 q 210 9 276 -16 q 106 78 143 34 q 55 174 69 121 q 41 327 41 227 l 41 589 q 73 775 41 707 q 177 880 104 844 q 344 916 250 916 q 534 872 459 916 q 639 756 609 829 q 669 553 669 684 l 669 434 m 395 581 l 395 646 q 387 736 395 716 q 357 757 380 757 q 321 740 328 757 q 315 646 315 722 l 315 581 l 395 581 m 294 1137 l 294 960 l 117 960 l 117 1137 l 294 1137 m 590 1137 l 590 960 l 413 960 l 413 1137 l 590 1137 z "},"ђ":{"ha":743,"x_min":5,"x_max":701,"o":"m 68 875 l 5 875 l 5 1017 l 68 1017 l 68 1100 l 342 1100 l 342 1017 l 489 1017 l 489 875 l 342 875 l 342 745 q 505 793 396 793 q 632 765 584 793 q 691 685 680 738 q 701 514 701 631 l 701 52 q 636 -143 701 -81 q 390 -205 571 -205 l 374 -205 l 374 -17 q 417 11 407 -17 q 428 85 428 39 l 428 526 q 421 624 428 599 q 385 648 414 648 q 351 626 360 648 q 342 536 342 604 l 342 0 l 68 0 l 68 875 z "},"ѓ":{"ha":479,"x_min":49,"x_max":479,"o":"m 49 8 l 49 908 l 479 908 l 479 753 l 322 753 l 322 8 l 49 8 m 472 1146 l 249 962 l 111 962 l 231 1146 l 472 1146 z "},"є":{"ha":694,"x_min":41,"x_max":656,"o":"m 656 302 q 645 172 656 223 q 594 74 635 121 q 495 10 553 28 q 350 -8 438 -8 q 197 14 259 -8 q 98 83 135 36 q 51 182 61 130 q 41 319 41 235 l 41 597 q 53 725 41 670 q 98 823 64 779 q 190 888 133 867 q 330 908 247 908 q 582 834 509 908 q 654 637 654 760 l 654 597 l 382 597 l 382 654 q 375 741 382 718 q 343 764 369 764 q 311 751 321 764 q 301 699 301 738 l 301 533 l 425 533 l 425 406 l 301 406 l 301 232 q 312 152 301 167 q 345 136 323 136 q 385 157 372 136 q 397 231 397 178 l 397 342 l 656 342 l 656 302 z "},"ѕ":{"ha":654,"x_min":28,"x_max":629,"o":"m 608 612 l 366 612 l 366 661 q 358 740 366 724 q 323 757 351 757 q 288 742 300 757 q 277 696 277 726 q 282 635 277 654 q 317 593 288 616 q 435 526 346 570 q 592 416 555 467 q 629 266 629 364 q 601 100 629 156 q 506 14 572 44 q 345 -16 439 -16 q 166 16 240 -16 q 64 104 92 49 q 36 273 36 160 l 36 316 l 279 316 l 279 259 q 288 165 279 186 q 324 143 297 143 q 365 158 353 143 q 376 219 376 172 q 361 300 376 283 q 202 396 346 316 q 55 519 81 464 q 28 650 28 574 q 57 809 28 758 q 154 888 85 861 q 312 916 222 916 q 464 893 401 916 q 561 833 527 871 q 601 764 594 796 q 608 665 608 732 l 608 612 z "},"і":{"ha":380,"x_min":49,"x_max":331,"o":"m 331 1098 l 331 955 l 49 955 l 49 1098 l 331 1098 m 331 900 l 331 0 l 49 0 l 49 900 l 331 900 z "},"ї":{"ha":380,"x_min":-45,"x_max":429,"o":"m 331 900 l 331 0 l 49 0 l 49 900 l 331 900 m 132 1137 l 132 961 l -45 961 l -45 1137 l 132 1137 m 429 1137 l 429 961 l 252 961 l 252 1137 l 429 1137 z "},"ј":{"ha":389,"x_min":-4,"x_max":339,"o":"m 339 1098 l 339 955 l 57 955 l 57 1098 l 339 1098 m 339 900 l 339 188 q 334 18 339 62 q 303 -60 329 -26 q 233 -110 277 -94 q 102 -126 189 -126 l -4 -126 l -4 18 q 51 28 45 18 q 57 164 57 39 l 57 900 l 339 900 z "},"љ":{"ha":1145,"x_min":4,"x_max":1103,"o":"m 368 711 l 368 257 q 340 80 368 133 q 250 13 311 26 q 49 0 189 0 l 4 0 l 4 189 q 76 202 56 189 q 96 290 96 215 l 96 900 l 737 900 l 737 600 l 782 600 q 977 585 913 600 q 1072 516 1042 569 q 1103 349 1103 463 l 1103 257 q 1074 80 1103 134 q 984 13 1045 26 q 782 0 922 0 l 465 0 l 465 711 l 368 711 m 831 290 l 831 326 q 817 411 831 396 q 737 428 802 426 l 737 189 q 811 203 791 189 q 831 290 831 217 z "},"њ":{"ha":1089,"x_min":40,"x_max":1047,"o":"m 682 900 l 682 600 l 726 600 q 922 585 857 600 q 1017 516 986 569 q 1047 349 1047 463 l 1047 257 q 1018 80 1047 134 q 928 13 989 26 q 726 0 867 0 l 410 0 l 410 336 l 313 336 l 313 0 l 40 0 l 40 900 l 313 900 l 313 576 l 410 576 l 410 900 l 682 900 m 775 290 l 775 326 q 761 411 775 396 q 682 428 747 426 l 682 189 q 756 203 736 189 q 775 290 775 217 z "},"ћ":{"ha":743,"x_min":5,"x_max":701,"o":"m 428 0 l 428 526 q 421 624 428 599 q 385 648 414 648 q 351 626 360 648 q 342 536 342 604 l 342 0 l 68 0 l 68 875 l 5 875 l 5 1017 l 68 1017 l 68 1100 l 342 1100 l 342 1017 l 489 1017 l 489 875 l 342 875 l 342 745 q 505 793 393 793 q 632 765 584 793 q 691 685 680 738 q 701 514 701 631 l 701 0 l 428 0 z "},"ќ":{"ha":710,"x_min":49,"x_max":701,"o":"m 319 900 l 319 550 q 406 642 406 550 l 406 794 q 436 900 406 886 l 700 900 q 669 770 669 856 l 669 644 q 616 535 669 578 q 533 489 596 519 q 441 468 492 469 q 530 446 465 464 q 671 289 671 401 l 671 131 q 701 0 671 44 l 437 0 q 407 106 407 41 l 407 296 q 319 387 407 387 l 319 0 l 49 0 l 49 900 l 319 900 m 591 1144 l 368 960 l 231 960 l 350 1144 l 591 1144 z "},"ў":{"ha":623,"x_min":-8,"x_max":623,"o":"m 623 900 l 544 249 q 513 38 526 94 q 471 -55 500 -18 q 390 -109 442 -92 q 224 -126 338 -126 l 58 -126 l 58 18 q 140 24 122 18 q 159 53 159 31 q 142 147 159 64 l -8 900 l 241 900 l 330 293 l 374 900 l 623 900 m 394 1165 l 509 1165 q 455 1017 505 1073 q 317 960 406 960 q 178 1017 227 960 q 125 1165 129 1074 l 240 1165 q 317 1072 248 1072 q 394 1165 386 1072 z "},"џ":{"ha":724,"x_min":40,"x_max":682,"o":"m 269 0 l 40 0 l 40 900 l 313 900 l 313 189 l 410 189 l 410 900 l 682 900 l 682 0 l 453 0 l 453 -174 l 269 -174 l 269 0 z "},"Ґ":{"ha":597,"x_min":57,"x_max":579,"o":"m 382 1182 l 579 1182 l 579 879 l 343 879 l 343 0 l 57 0 l 57 1099 l 382 1099 l 382 1182 z "},"ґ":{"ha":561,"x_min":49,"x_max":558,"o":"m 375 900 l 375 1029 l 558 1029 l 558 711 l 322 711 l 322 0 l 49 0 l 49 900 l 375 900 z "},"Ẁ":{"ha":1131,"x_min":0,"x_max":1131,"o":"m 1131 1098 l 1004 0 l 648 0 q 562 575 599 253 q 482 0 545 437 l 127 0 l 0 1098 l 277 1098 l 307 715 l 336 345 q 415 1098 352 632 l 712 1098 q 743 736 718 1050 l 774 319 q 854 1098 798 717 l 1131 1098 m 330 1316 l 572 1316 l 691 1133 l 553 1133 l 330 1316 z "},"ẁ":{"ha":930,"x_min":-4,"x_max":934,"o":"m 934 900 l 825 0 l 527 0 q 471 434 503 165 q 440 195 460 316 l 410 0 l 112 0 l -4 900 l 232 900 q 292 385 235 865 q 353 900 296 434 l 580 900 l 635 385 q 698 900 648 610 l 934 900 m 253 1144 l 494 1144 l 614 960 l 476 960 l 253 1144 z "},"Ẃ":{"ha":1131,"x_min":0,"x_max":1131,"o":"m 1131 1098 l 1004 0 l 648 0 q 562 575 599 253 q 482 0 545 437 l 127 0 l 0 1098 l 277 1098 l 307 715 l 336 345 q 415 1098 352 632 l 712 1098 q 743 736 718 1050 l 774 319 q 854 1098 798 717 l 1131 1098 m 764 1316 l 541 1133 l 403 1133 l 522 1316 l 764 1316 z "},"ẃ":{"ha":930,"x_min":-4,"x_max":934,"o":"m 934 900 l 825 0 l 527 0 q 471 434 503 165 q 440 195 460 316 l 410 0 l 112 0 l -4 900 l 232 900 q 292 385 235 865 q 353 900 296 434 l 580 900 l 635 385 q 698 900 648 610 l 934 900 m 663 1144 l 440 960 l 302 960 l 422 1144 l 663 1144 z "},"Ẅ":{"ha":1131,"x_min":0,"x_max":1131,"o":"m 1131 1098 l 1004 0 l 648 0 q 562 575 599 253 q 482 0 545 437 l 127 0 l 0 1098 l 277 1098 l 307 715 l 336 345 q 415 1098 352 632 l 712 1098 q 743 736 718 1050 l 774 319 q 854 1098 798 717 l 1131 1098 m 506 1309 l 506 1133 l 329 1133 l 329 1309 l 506 1309 m 802 1309 l 802 1133 l 625 1133 l 625 1309 l 802 1309 z "},"ẅ":{"ha":930,"x_min":-4,"x_max":934,"o":"m 934 900 l 825 0 l 527 0 q 471 434 503 165 q 440 195 460 316 l 410 0 l 112 0 l -4 900 l 232 900 q 292 385 235 865 q 353 900 296 434 l 580 900 l 635 385 q 698 900 648 610 l 934 900 m 404 1137 l 404 960 l 227 960 l 227 1137 l 404 1137 m 700 1137 l 700 960 l 523 960 l 523 1137 l 700 1137 z "},"Ỳ":{"ha":657,"x_min":-8,"x_max":665,"o":"m 665 1098 l 457 397 l 457 0 l 193 0 l 193 397 l -8 1098 l 254 1098 q 323 666 316 777 q 403 1098 347 842 l 665 1098 m 114 1316 l 355 1316 l 475 1133 l 337 1133 l 114 1316 z "},"ỳ":{"ha":623,"x_min":-8,"x_max":623,"o":"m 623 900 l 544 249 q 513 38 526 94 q 471 -55 500 -18 q 390 -109 442 -92 q 224 -126 338 -126 l 58 -126 l 58 18 q 140 24 122 18 q 159 53 159 31 q 142 147 159 64 l -8 900 l 241 900 l 330 293 l 374 900 l 623 900 m 97 1144 l 338 1144 l 458 960 l 320 960 l 97 1144 z "},"―":{"ha":1389,"x_min":-8,"x_max":1397,"o":"m -8 534 l 1397 534 l 1397 366 l -8 366 l -8 534 z "},"‗":{"ha":766,"x_min":-8,"x_max":775,"o":"m -8 -174 l -8 -104 l 775 -104 l 775 -174 l -8 -174 m -8 -313 l -8 -243 l 775 -243 l 775 -313 l -8 -313 z "},"‛":{"ha":233,"x_min":25,"x_max":209,"o":"m 25 1098 l 209 1098 l 209 883 l 163 883 q 209 822 168 844 l 209 743 q 43 873 81 770 q 25 1000 25 923 l 25 1098 z "},"′":{"ha":257,"x_min":54,"x_max":261,"o":"m 201 745 l 61 745 l 54 1099 l 261 1099 l 201 745 z "},"″":{"ha":539,"x_min":54,"x_max":539,"o":"m 201 745 l 61 745 l 54 1099 l 261 1099 l 201 745 m 479 745 l 339 745 l 332 1099 l 539 1099 l 479 745 z "},"‼":{"ha":755,"x_min":49,"x_max":701,"o":"m 49 1099 l 350 1099 l 306 271 l 93 271 l 49 1099 m 400 1099 l 701 1099 l 657 271 l 444 271 l 400 1099 m 71 220 l 328 220 l 328 0 l 71 0 l 71 220 m 422 220 l 679 220 l 679 0 l 422 0 l 422 220 z "},"‾":{"ha":814,"x_min":-28,"x_max":844,"o":"m -28 1267 l 844 1267 l 844 1217 l -28 1217 l -28 1267 z "},"ⁿ":{"ha":463,"x_min":25,"x_max":432,"o":"m 207 1099 l 203 1048 q 323 1105 241 1105 q 391 1088 365 1105 q 425 1039 418 1070 q 432 940 432 1008 l 432 570 l 254 570 l 254 935 q 249 1002 254 989 q 232 1014 244 1014 q 209 994 216 1014 q 203 926 203 974 l 203 570 l 25 570 l 25 1099 l 207 1099 z "},"₣":{"ha":553,"x_min":1,"x_max":541,"o":"m 343 196 l 343 0 l 57 0 l 57 196 l 1 196 l 1 313 l 57 313 l 57 1099 l 541 1099 l 541 879 l 343 879 l 343 669 l 519 669 l 519 461 l 343 461 l 343 313 l 437 313 l 437 196 l 343 196 z "}}}
